<svg width="32" height="32" viewBox="0 0 32 32" fill="none" xmlns="http://www.w3.org/2000/svg">
<g clip-path="url(#clip0_2345_32983)">
<path d="M18.69 30H13.28C5.53125 30 2 24.7933 2 18.3827V12.96H29.97V18.3827C29.97 24.7933 26.5625 30 18.69 30Z" fill="url(#paint0_linear_2345_32983)"/>
<path d="M21.9697 7.17969C25.1597 7.17969 27.7497 9.76969 27.7497 12.9597C27.7497 16.1497 25.1597 18.7397 21.9697 18.7397H9.99973C6.80973 18.7397 4.21973 16.1497 4.21973 12.9597C4.21973 9.76969 6.80973 7.17969 9.99973 7.17969H21.9697Z" fill="url(#paint1_linear_2345_32983)"/>
<path d="M21.97 6H10C5.58 6 2 9.3143 2 13.4063C2 17.4982 5.58 20.8125 10 20.8125H21.97C26.39 20.8125 29.97 17.4982 29.97 13.4063C29.97 9.3143 26.39 6 21.97 6Z" fill="url(#paint2_linear_2345_32983)"/>
<g filter="url(#filter0_f_2345_32983)">
<path d="M21.7684 6.1875H10.0129C5.67209 6.1875 2.15625 9.5018 2.15625 13.5938C2.15625 17.6857 5.67209 21 10.0129 21H21.7684C26.1092 21 29.625 17.6857 29.625 13.5938C29.625 9.5018 26.1092 6.1875 21.7684 6.1875Z" fill="#DDDAE4"/>
</g>
<path d="M27.1719 11.4062C25.8932 8.92056 24.0313 8.90625 22.4219 7.79688C20.8125 6.6875 20.7275 5.99165 19.8101 4.84C18.9201 3.72 17.5401 3 16.0001 3C14.4601 3 13.0801 3.72 12.1901 4.84C11.0661 6.25093 10.9688 7.25 9.71881 7.92188C7.87725 8.91171 6.09871 8.44724 4.81254 11.8906C4.1827 13.5769 4.35813 14.7818 4.81256 15.7969C6.22381 18.9493 10.8594 19.2812 16.047 19.2812C21.2345 19.2812 23.2813 19.1719 25.4063 17.7812C27.8903 16.1557 28.1181 13.2455 27.1719 11.4062Z" fill="url(#paint3_linear_2345_32983)"/>
<path d="M27.1719 11.4062C25.8932 8.92056 24.0313 8.90625 22.4219 7.79688C20.8125 6.6875 20.7275 5.99165 19.8101 4.84C18.9201 3.72 17.5401 3 16.0001 3C14.4601 3 13.0801 3.72 12.1901 4.84C11.0661 6.25093 10.9688 7.25 9.71881 7.92188C7.87725 8.91171 6.09871 8.44724 4.81254 11.8906C4.1827 13.5769 4.35813 14.7818 4.81256 15.7969C6.22381 18.9493 10.8594 19.2812 16.047 19.2812C21.2345 19.2812 23.2813 19.1719 25.4063 17.7812C27.8903 16.1557 28.1181 13.2455 27.1719 11.4062Z" fill="url(#paint4_radial_2345_32983)"/>
<path d="M27.1719 11.4062C25.8932 8.92056 24.0313 8.90625 22.4219 7.79688C20.8125 6.6875 20.7275 5.99165 19.8101 4.84C18.9201 3.72 17.5401 3 16.0001 3C14.4601 3 13.0801 3.72 12.1901 4.84C11.0661 6.25093 10.9688 7.25 9.71881 7.92188C7.87725 8.91171 6.09871 8.44724 4.81254 11.8906C4.1827 13.5769 4.35813 14.7818 4.81256 15.7969C6.22381 18.9493 10.8594 19.2812 16.047 19.2812C21.2345 19.2812 23.2813 19.1719 25.4063 17.7812C27.8903 16.1557 28.1181 13.2455 27.1719 11.4062Z" fill="url(#paint5_radial_2345_32983)"/>
<g filter="url(#filter1_f_2345_32983)">
<path d="M27.1562 15.0742C26.6517 14.3554 24.4814 12.7026 21.8657 12.6054C19.0351 12.5002 17.7372 14.1523 15.994 14.1523C14.7861 14.1523 11.6447 12.5054 10.1377 12.6054C6.79085 12.8454 5.88686 14.0742 5 15.2929C5.61163 16.9492 7.1819 18.1077 9.80129 18.5898C12.2631 19.0429 19.5302 19.1424 21.7739 18.7773C24.0176 18.4121 26.2541 17.4023 27.1562 15.0742Z" fill="url(#paint6_linear_2345_32983)"/>
</g>
<path d="M24.8361 12.7202C26.4911 10.7961 26.4811 7.99454 24.9159 6.09029C24.6168 5.72141 24.0585 5.71144 23.7494 6.08032L18.1065 12.6405C17.7974 12.9994 17.8871 13.5477 18.2959 13.797C20.3995 15.0432 23.1711 14.6444 24.8361 12.7202Z" fill="url(#paint7_linear_2345_32983)"/>
<g filter="url(#filter2_f_2345_32983)">
<path d="M24.6603 12.573C26.1885 10.755 26.1793 8.10805 24.7339 6.30888C24.4577 5.96035 24.1171 6.02628 23.8317 6.37481L18.6208 12.573C18.3354 12.9121 18.2434 13.3548 18.6209 13.5903C20.5634 14.7678 23.1228 14.391 24.6603 12.573Z" fill="url(#paint8_linear_2345_32983)"/>
</g>
<g filter="url(#filter3_f_2345_32983)">
<path d="M21.8188 8.53125C21.048 7.84375 20.3895 7.34209 19.3032 5.8125C18.5376 4.73438 17.2355 4.1875 16.5063 4" stroke="url(#paint9_radial_2345_32983)" stroke-linecap="round"/>
</g>
<path d="M23.0726 11.1424C24.0726 9.98242 23.9426 8.23242 22.7826 7.23242L19.1626 11.4324C20.3226 12.4424 22.0726 12.3024 23.0726 11.1424Z" fill="url(#paint10_linear_2345_32983)"/>
<path d="M27.375 15.3749C26.8594 14.6562 24.6416 13.0034 21.9687 12.9062C19.0763 12.801 17.75 14.4531 15.9688 14.4531C14.7344 14.4531 11.5244 12.8062 9.98437 12.9062C6.56437 13.1462 5.64062 14.3749 4.73438 15.5937C5.35938 17.2499 6.96398 18.4084 9.64062 18.8906C12.1562 19.3437 19.5822 19.4432 21.875 19.0781C24.1678 18.7129 26.4531 17.7031 27.375 15.3749Z" fill="url(#paint11_linear_2345_32983)"/>
<g filter="url(#filter4_f_2345_32983)">
<path d="M12.875 14.8751C13.5833 15.1876 15.0938 15.6877 17.0312 15.6877C18.9688 15.6876 19.5 14.0939 22.3125 14.2189C24.5625 14.3189 26.3125 15.4585 26.625 15.9377" stroke="url(#paint12_radial_2345_32983)" stroke-linecap="round"/>
</g>
<g filter="url(#filter5_f_2345_32983)">
<path d="M13.0723 18.9054C14.0556 18.9054 14.8527 18.1083 14.8527 17.1251C14.8527 16.1418 14.0556 15.3447 13.0723 15.3447C12.0891 15.3447 11.292 16.1418 11.292 17.1251C11.292 18.1083 12.0891 18.9054 13.0723 18.9054Z" fill="#447437"/>
</g>
<path d="M8.88593 16.5325C11.2159 17.5625 13.9059 16.7425 15.2759 14.6925C15.5359 14.3025 15.3859 13.7625 14.9559 13.5625L7.02593 10.0525C6.58593 9.85248 6.08593 10.1025 5.96593 10.5625C5.37593 12.9525 6.55593 15.5025 8.88593 16.5325Z" fill="url(#paint13_linear_2345_32983)"/>
<g filter="url(#filter6_f_2345_32983)">
<path d="M9.07668 16.1956C11.1494 17.1119 13.5424 16.3824 14.7611 14.5588C14.9924 14.2118 14.7576 13.8968 14.3751 13.7189L7.32073 10.5964C6.92931 10.4185 6.58585 10.4756 6.4791 10.8848C5.95425 13.0109 7.00395 15.2793 9.07668 16.1956Z" fill="#CF336F"/>
<path d="M9.07668 16.1956C11.1494 17.1119 13.5424 16.3824 14.7611 14.5588C14.9924 14.2118 14.7576 13.8968 14.3751 13.7189L7.32073 10.5964C6.92931 10.4185 6.58585 10.4756 6.4791 10.8848C5.95425 13.0109 7.00395 15.2793 9.07668 16.1956Z" fill="url(#paint14_radial_2345_32983)"/>
</g>
<path d="M9.86051 14.4265C11.3012 15.0645 12.9889 14.4162 13.6269 12.9755L8.40954 10.6602C7.77152 12.1008 8.41983 13.7885 9.86051 14.4265Z" fill="url(#paint15_linear_2345_32983)"/>
<g filter="url(#filter7_f_2345_32983)">
<path d="M13.7593 11.9998C14.9553 11.9998 16.3648 10.8655 16.3648 9.66948C16.3648 8.47347 15.3952 7.50391 14.1992 7.50391C13.0032 7.50391 11.5938 8.94276 11.5938 10.1388C11.5938 11.3348 12.5633 11.9998 13.7593 11.9998Z" fill="#346433"/>
</g>
<path d="M14.6202 11.0842C15.6326 11.0842 16.4534 10.2635 16.4534 9.2511C16.4534 8.23869 15.6326 7.41797 14.6202 7.41797C13.6078 7.41797 12.7871 8.23869 12.7871 9.2511C12.7871 10.2635 13.6078 11.0842 14.6202 11.0842Z" fill="url(#paint16_radial_2345_32983)"/>
<path d="M13.5172 18.6407C14.5004 18.6407 15.2975 17.8437 15.2975 16.8604C15.2975 15.8772 14.5004 15.0801 13.5172 15.0801C12.5339 15.0801 11.7368 15.8772 11.7368 16.8604C11.7368 17.8437 12.5339 18.6407 13.5172 18.6407Z" fill="url(#paint17_radial_2345_32983)"/>
<g filter="url(#filter8_f_2345_32983)">
<path d="M23.2188 17.1248C24.2294 17.1248 25.4787 16.1576 25.4787 15.1469C25.4787 14.1362 24.6594 13.3169 23.6487 13.3169C22.638 13.3169 21.4375 14.4579 21.4375 15.4686C21.4375 16.4792 22.2081 17.1248 23.2188 17.1248Z" fill="#588D2F"/>
</g>
<path d="M24.1698 16.5818C25.1805 16.5818 25.9998 15.7625 25.9998 14.7519C25.9998 13.7412 25.1805 12.9219 24.1698 12.9219C23.1592 12.9219 22.3398 13.7412 22.3398 14.7519C22.3398 15.7625 23.1592 16.5818 24.1698 16.5818Z" fill="url(#paint18_radial_2345_32983)"/>
</g>
<defs>
<filter id="filter0_f_2345_32983" x="1.65625" y="5.6875" width="28.4688" height="15.8125" filterUnits="userSpaceOnUse" color-interpolation-filters="sRGB">
<feFlood flood-opacity="0" result="BackgroundImageFix"/>
<feBlend mode="normal" in="SourceGraphic" in2="BackgroundImageFix" result="shape"/>
<feGaussianBlur stdDeviation="0.25" result="effect1_foregroundBlur_2345_32983"/>
</filter>
<filter id="filter1_f_2345_32983" x="4" y="11.6006" width="24.1562" height="8.39893" filterUnits="userSpaceOnUse" color-interpolation-filters="sRGB">
<feFlood flood-opacity="0" result="BackgroundImageFix"/>
<feBlend mode="normal" in="SourceGraphic" in2="BackgroundImageFix" result="shape"/>
<feGaussianBlur stdDeviation="0.5" result="effect1_foregroundBlur_2345_32983"/>
</filter>
<filter id="filter2_f_2345_32983" x="18.1211" y="5.82812" width="7.94141" height="8.6875" filterUnits="userSpaceOnUse" color-interpolation-filters="sRGB">
<feFlood flood-opacity="0" result="BackgroundImageFix"/>
<feBlend mode="normal" in="SourceGraphic" in2="BackgroundImageFix" result="shape"/>
<feGaussianBlur stdDeviation="0.125" result="effect1_foregroundBlur_2345_32983"/>
</filter>
<filter id="filter3_f_2345_32983" x="15.5063" y="3" width="7.3125" height="6.53125" filterUnits="userSpaceOnUse" color-interpolation-filters="sRGB">
<feFlood flood-opacity="0" result="BackgroundImageFix"/>
<feBlend mode="normal" in="SourceGraphic" in2="BackgroundImageFix" result="shape"/>
<feGaussianBlur stdDeviation="0.25" result="effect1_foregroundBlur_2345_32983"/>
</filter>
<filter id="filter4_f_2345_32983" x="11.875" y="13.2119" width="15.75" height="3.72559" filterUnits="userSpaceOnUse" color-interpolation-filters="sRGB">
<feFlood flood-opacity="0" result="BackgroundImageFix"/>
<feBlend mode="normal" in="SourceGraphic" in2="BackgroundImageFix" result="shape"/>
<feGaussianBlur stdDeviation="0.25" result="effect1_foregroundBlur_2345_32983"/>
</filter>
<filter id="filter5_f_2345_32983" x="10.292" y="14.3447" width="5.56055" height="5.56055" filterUnits="userSpaceOnUse" color-interpolation-filters="sRGB">
<feFlood flood-opacity="0" result="BackgroundImageFix"/>
<feBlend mode="normal" in="SourceGraphic" in2="BackgroundImageFix" result="shape"/>
<feGaussianBlur stdDeviation="0.5" result="effect1_foregroundBlur_2345_32983"/>
</filter>
<filter id="filter6_f_2345_32983" x="6.09521" y="10.251" width="9.00781" height="6.58984" filterUnits="userSpaceOnUse" color-interpolation-filters="sRGB">
<feFlood flood-opacity="0" result="BackgroundImageFix"/>
<feBlend mode="normal" in="SourceGraphic" in2="BackgroundImageFix" result="shape"/>
<feGaussianBlur stdDeviation="0.125" result="effect1_foregroundBlur_2345_32983"/>
</filter>
<filter id="filter7_f_2345_32983" x="10.5938" y="6.50391" width="6.771" height="6.49609" filterUnits="userSpaceOnUse" color-interpolation-filters="sRGB">
<feFlood flood-opacity="0" result="BackgroundImageFix"/>
<feBlend mode="normal" in="SourceGraphic" in2="BackgroundImageFix" result="shape"/>
<feGaussianBlur stdDeviation="0.5" result="effect1_foregroundBlur_2345_32983"/>
</filter>
<filter id="filter8_f_2345_32983" x="20.9375" y="12.8169" width="5.04102" height="4.80811" filterUnits="userSpaceOnUse" color-interpolation-filters="sRGB">
<feFlood flood-opacity="0" result="BackgroundImageFix"/>
<feBlend mode="normal" in="SourceGraphic" in2="BackgroundImageFix" result="shape"/>
<feGaussianBlur stdDeviation="0.25" result="effect1_foregroundBlur_2345_32983"/>
</filter>
<linearGradient id="paint0_linear_2345_32983" x1="2" y1="20.125" x2="29.97" y2="20.125" gradientUnits="userSpaceOnUse">
<stop stop-color="#BBBAC0"/>
<stop offset="0.125134" stop-color="#BCB5C9"/>
<stop offset="0.263675" stop-color="#BDB2CD"/>
<stop offset="0.509474" stop-color="#BBADCD"/>
<stop offset="0.750804" stop-color="#BAADCC"/>
<stop offset="0.831248" stop-color="#BFB5CE"/>
<stop offset="1" stop-color="#D8D7DE"/>
</linearGradient>
<linearGradient id="paint1_linear_2345_32983" x1="4.21543" y1="12.9605" x2="27.7536" y2="12.9605" gradientUnits="userSpaceOnUse">
<stop stop-color="#5E669C"/>
<stop offset="1" stop-color="#513468"/>
</linearGradient>
<linearGradient id="paint2_linear_2345_32983" x1="2" y1="11.5" x2="29.4375" y2="11.5" gradientUnits="userSpaceOnUse">
<stop stop-color="#B5B5BA"/>
<stop offset="1" stop-color="#F5F6FB"/>
</linearGradient>
<linearGradient id="paint3_linear_2345_32983" x1="4.40332" y1="9.5" x2="28.6251" y2="9.5" gradientUnits="userSpaceOnUse">
<stop stop-color="#1A4A2D"/>
<stop offset="0.318794" stop-color="#437943"/>
<stop offset="0.535541" stop-color="#5C9248"/>
<stop offset="0.850341" stop-color="#5F9231"/>
<stop offset="0.953554" stop-color="#3C8511"/>
</linearGradient>
<radialGradient id="paint4_radial_2345_32983" cx="0" cy="0" r="1" gradientUnits="userSpaceOnUse" gradientTransform="translate(24.6876 3) rotate(127.789) scale(10.9139 9.59062)">
<stop stop-color="#5E9B4B"/>
<stop offset="1" stop-color="#67A257" stop-opacity="0"/>
</radialGradient>
<radialGradient id="paint5_radial_2345_32983" cx="0" cy="0" r="1" gradientUnits="userSpaceOnUse" gradientTransform="translate(16.0455 15.5625) rotate(90) scale(3.71875 14.1704)">
<stop stop-color="#306420"/>
<stop offset="1" stop-color="#396929" stop-opacity="0"/>
</radialGradient>
<linearGradient id="paint6_linear_2345_32983" x1="5.44343" y1="14.9373" x2="27.1562" y2="14.9373" gradientUnits="userSpaceOnUse">
<stop stop-color="#154428"/>
<stop offset="0.512676" stop-color="#376728"/>
<stop offset="1" stop-color="#3B830F"/>
</linearGradient>
<linearGradient id="paint7_linear_2345_32983" x1="24.625" y1="9.75012" x2="22.0028" y2="7.62512" gradientUnits="userSpaceOnUse">
<stop stop-color="#F05879"/>
<stop offset="1" stop-color="#9B2938"/>
</linearGradient>
<linearGradient id="paint8_linear_2345_32983" x1="24.9847" y1="7.05043" x2="18.6587" y2="13.6376" gradientUnits="userSpaceOnUse">
<stop stop-color="#D7355D"/>
<stop offset="0.428154" stop-color="#D13464"/>
<stop offset="0.83109" stop-color="#BB3463"/>
<stop offset="1" stop-color="#A82B5B"/>
</linearGradient>
<radialGradient id="paint9_radial_2345_32983" cx="0" cy="0" r="1" gradientUnits="userSpaceOnUse" gradientTransform="translate(19.4438 6.26562) rotate(-180) scale(3.75 4.39655)">
<stop stop-color="#86B76D"/>
<stop offset="1" stop-color="#87BB71" stop-opacity="0"/>
</radialGradient>
<linearGradient id="paint10_linear_2345_32983" x1="20.8751" y1="9.12482" x2="23.0626" y2="10.9998" gradientUnits="userSpaceOnUse">
<stop offset="0.0564706" stop-color="#962239"/>
<stop offset="0.312941" stop-color="#AE3153"/>
</linearGradient>
<linearGradient id="paint11_linear_2345_32983" x1="4.73437" y1="16.7499" x2="27.375" y2="16.7499" gradientUnits="userSpaceOnUse">
<stop stop-color="#4B7740"/>
<stop offset="0.696342" stop-color="#66933A"/>
</linearGradient>
<radialGradient id="paint12_radial_2345_32983" cx="0" cy="0" r="1" gradientUnits="userSpaceOnUse" gradientTransform="translate(24.6875 15.122) rotate(127.618) scale(6.55313 30.7624)">
<stop stop-color="#91BA60"/>
<stop offset="0.271932" stop-color="#74A048"/>
<stop offset="1" stop-color="#709D4A" stop-opacity="0"/>
</radialGradient>
<linearGradient id="paint13_linear_2345_32983" x1="8.21844" y1="16.1562" x2="10.3434" y2="11.6562" gradientUnits="userSpaceOnUse">
<stop offset="0.872798" stop-color="#AB2C59"/>
<stop offset="1" stop-color="#E0427A"/>
</linearGradient>
<radialGradient id="paint14_radial_2345_32983" cx="0" cy="0" r="1" gradientUnits="userSpaceOnUse" gradientTransform="translate(13.2501 16.7501) rotate(172.875) scale(2.01556 2.23037)">
<stop offset="0.659615" stop-color="#AD1A46"/>
<stop offset="0.884615" stop-color="#AE1A49" stop-opacity="0"/>
</radialGradient>
<linearGradient id="paint15_linear_2345_32983" x1="10.8955" y1="11.8126" x2="9.84406" y2="14.4064" gradientUnits="userSpaceOnUse">
<stop stop-color="#C34765"/>
<stop offset="0.175551" stop-color="#B03256"/>
</linearGradient>
<radialGradient id="paint16_radial_2345_32983" cx="0" cy="0" r="1" gradientUnits="userSpaceOnUse" gradientTransform="translate(15.7502 8.43732) rotate(135.764) scale(3.31486)">
<stop offset="0.141841" stop-color="#FFEC56"/>
<stop offset="0.502311" stop-color="#F5D03B"/>
<stop offset="1" stop-color="#AC831E"/>
</radialGradient>
<radialGradient id="paint17_radial_2345_32983" cx="0" cy="0" r="1" gradientUnits="userSpaceOnUse" gradientTransform="translate(14.6146 16.0701) rotate(135.764) scale(3.21939)">
<stop offset="0.141841" stop-color="#FFDB57"/>
<stop offset="0.502311" stop-color="#F3C046"/>
<stop offset="1" stop-color="#BA8544"/>
</radialGradient>
<radialGradient id="paint18_radial_2345_32983" cx="0" cy="0" r="1" gradientUnits="userSpaceOnUse" gradientTransform="translate(25.2979 13.9395) rotate(135.764) scale(3.30917)">
<stop offset="0.141841" stop-color="#FFE75C"/>
<stop offset="0.502311" stop-color="#ECBF40"/>
<stop offset="1" stop-color="#B28433"/>
</radialGradient>
<clipPath id="clip0_2345_32983">
<rect width="32" height="32" fill="white"/>
</clipPath>
</defs>
</svg>
