<svg width="32" height="32" viewBox="0 0 32 32" fill="none" xmlns="http://www.w3.org/2000/svg">
<g clip-path="url(#clip0_2345_32923)">
<path d="M15.8209 11.1058C15.6505 11.7676 15.0719 12.2613 14.3879 12.6033C12.4489 13.2742 10.9174 13.9196 9.65005 14.546C8.52813 15.1006 8.53896 16.8533 9.66451 17.4005C10.9796 18.0398 12.6308 18.653 14.4646 19.3799C14.9576 19.5754 15.6544 20.1276 15.8279 20.8064C16.3624 22.8981 17.0896 25.1124 17.8904 27.1566C18.512 28.7434 20.0488 28.7422 20.6735 27.1566C21.4843 25.0982 22.1004 22.8748 22.7957 20.7594C22.9621 20.1062 23.4547 19.5898 24.09 19.3647C25.807 18.7565 27.4622 18.07 28.8113 17.4758C30.0712 16.9209 30.0971 15.1193 28.853 14.5299C27.5245 13.9005 25.8719 13.1717 24.0818 12.5212C23.4517 12.2923 22.967 11.8091 22.7431 11.1233C21.9885 8.81237 21.5104 6.85311 20.7088 4.81844C20.0841 3.23279 18.4443 3.28159 17.8196 4.86724C17.021 6.8944 16.4634 8.91217 15.8209 11.1058Z" fill="url(#paint0_linear_2345_32923)"/>
<path d="M15.8209 11.1058C15.6505 11.7676 15.0719 12.2613 14.3879 12.6033C12.4489 13.2742 10.9174 13.9196 9.65005 14.546C8.52813 15.1006 8.53896 16.8533 9.66451 17.4005C10.9796 18.0398 12.6308 18.653 14.4646 19.3799C14.9576 19.5754 15.6544 20.1276 15.8279 20.8064C16.3624 22.8981 17.0896 25.1124 17.8904 27.1566C18.512 28.7434 20.0488 28.7422 20.6735 27.1566C21.4843 25.0982 22.1004 22.8748 22.7957 20.7594C22.9621 20.1062 23.4547 19.5898 24.09 19.3647C25.807 18.7565 27.4622 18.07 28.8113 17.4758C30.0712 16.9209 30.0971 15.1193 28.853 14.5299C27.5245 13.9005 25.8719 13.1717 24.0818 12.5212C23.4517 12.2923 22.967 11.8091 22.7431 11.1233C21.9885 8.81237 21.5104 6.85311 20.7088 4.81844C20.0841 3.23279 18.4443 3.28159 17.8196 4.86724C17.021 6.8944 16.4634 8.91217 15.8209 11.1058Z" fill="url(#paint1_linear_2345_32923)"/>
<path d="M15.8209 11.1058C15.6505 11.7676 15.0719 12.2613 14.3879 12.6033C12.4489 13.2742 10.9174 13.9196 9.65005 14.546C8.52813 15.1006 8.53896 16.8533 9.66451 17.4005C10.9796 18.0398 12.6308 18.653 14.4646 19.3799C14.9576 19.5754 15.6544 20.1276 15.8279 20.8064C16.3624 22.8981 17.0896 25.1124 17.8904 27.1566C18.512 28.7434 20.0488 28.7422 20.6735 27.1566C21.4843 25.0982 22.1004 22.8748 22.7957 20.7594C22.9621 20.1062 23.4547 19.5898 24.09 19.3647C25.807 18.7565 27.4622 18.07 28.8113 17.4758C30.0712 16.9209 30.0971 15.1193 28.853 14.5299C27.5245 13.9005 25.8719 13.1717 24.0818 12.5212C23.4517 12.2923 22.967 11.8091 22.7431 11.1233C21.9885 8.81237 21.5104 6.85311 20.7088 4.81844C20.0841 3.23279 18.4443 3.28159 17.8196 4.86724C17.021 6.8944 16.4634 8.91217 15.8209 11.1058Z" fill="url(#paint2_radial_2345_32923)"/>
<path d="M15.8209 11.1058C15.6505 11.7676 15.0719 12.2613 14.3879 12.6033C12.4489 13.2742 10.9174 13.9196 9.65005 14.546C8.52813 15.1006 8.53896 16.8533 9.66451 17.4005C10.9796 18.0398 12.6308 18.653 14.4646 19.3799C14.9576 19.5754 15.6544 20.1276 15.8279 20.8064C16.3624 22.8981 17.0896 25.1124 17.8904 27.1566C18.512 28.7434 20.0488 28.7422 20.6735 27.1566C21.4843 25.0982 22.1004 22.8748 22.7957 20.7594C22.9621 20.1062 23.4547 19.5898 24.09 19.3647C25.807 18.7565 27.4622 18.07 28.8113 17.4758C30.0712 16.9209 30.0971 15.1193 28.853 14.5299C27.5245 13.9005 25.8719 13.1717 24.0818 12.5212C23.4517 12.2923 22.967 11.8091 22.7431 11.1233C21.9885 8.81237 21.5104 6.85311 20.7088 4.81844C20.0841 3.23279 18.4443 3.28159 17.8196 4.86724C17.021 6.8944 16.4634 8.91217 15.8209 11.1058Z" fill="url(#paint3_radial_2345_32923)"/>
<path d="M15.8209 11.1058C15.6505 11.7676 15.0719 12.2613 14.3879 12.6033C12.4489 13.2742 10.9174 13.9196 9.65005 14.546C8.52813 15.1006 8.53896 16.8533 9.66451 17.4005C10.9796 18.0398 12.6308 18.653 14.4646 19.3799C14.9576 19.5754 15.6544 20.1276 15.8279 20.8064C16.3624 22.8981 17.0896 25.1124 17.8904 27.1566C18.512 28.7434 20.0488 28.7422 20.6735 27.1566C21.4843 25.0982 22.1004 22.8748 22.7957 20.7594C22.9621 20.1062 23.4547 19.5898 24.09 19.3647C25.807 18.7565 27.4622 18.07 28.8113 17.4758C30.0712 16.9209 30.0971 15.1193 28.853 14.5299C27.5245 13.9005 25.8719 13.1717 24.0818 12.5212C23.4517 12.2923 22.967 11.8091 22.7431 11.1233C21.9885 8.81237 21.5104 6.85311 20.7088 4.81844C20.0841 3.23279 18.4443 3.28159 17.8196 4.86724C17.021 6.8944 16.4634 8.91217 15.8209 11.1058Z" fill="url(#paint4_radial_2345_32923)"/>
<path d="M15.8209 11.1058C15.6505 11.7676 15.0719 12.2613 14.3879 12.6033C12.4489 13.2742 10.9174 13.9196 9.65005 14.546C8.52813 15.1006 8.53896 16.8533 9.66451 17.4005C10.9796 18.0398 12.6308 18.653 14.4646 19.3799C14.9576 19.5754 15.6544 20.1276 15.8279 20.8064C16.3624 22.8981 17.0896 25.1124 17.8904 27.1566C18.512 28.7434 20.0488 28.7422 20.6735 27.1566C21.4843 25.0982 22.1004 22.8748 22.7957 20.7594C22.9621 20.1062 23.4547 19.5898 24.09 19.3647C25.807 18.7565 27.4622 18.07 28.8113 17.4758C30.0712 16.9209 30.0971 15.1193 28.853 14.5299C27.5245 13.9005 25.8719 13.1717 24.0818 12.5212C23.4517 12.2923 22.967 11.8091 22.7431 11.1233C21.9885 8.81237 21.5104 6.85311 20.7088 4.81844C20.0841 3.23279 18.4443 3.28159 17.8196 4.86724C17.021 6.8944 16.4634 8.91217 15.8209 11.1058Z" fill="url(#paint5_radial_2345_32923)"/>
<path d="M15.8209 11.1058C15.6505 11.7676 15.0719 12.2613 14.3879 12.6033C12.4489 13.2742 10.9174 13.9196 9.65005 14.546C8.52813 15.1006 8.53896 16.8533 9.66451 17.4005C10.9796 18.0398 12.6308 18.653 14.4646 19.3799C14.9576 19.5754 15.6544 20.1276 15.8279 20.8064C16.3624 22.8981 17.0896 25.1124 17.8904 27.1566C18.512 28.7434 20.0488 28.7422 20.6735 27.1566C21.4843 25.0982 22.1004 22.8748 22.7957 20.7594C22.9621 20.1062 23.4547 19.5898 24.09 19.3647C25.807 18.7565 27.4622 18.07 28.8113 17.4758C30.0712 16.9209 30.0971 15.1193 28.853 14.5299C27.5245 13.9005 25.8719 13.1717 24.0818 12.5212C23.4517 12.2923 22.967 11.8091 22.7431 11.1233C21.9885 8.81237 21.5104 6.85311 20.7088 4.81844C20.0841 3.23279 18.4443 3.28159 17.8196 4.86724C17.021 6.8944 16.4634 8.91217 15.8209 11.1058Z" fill="url(#paint6_radial_2345_32923)"/>
<path d="M15.8209 11.1058C15.6505 11.7676 15.0719 12.2613 14.3879 12.6033C12.4489 13.2742 10.9174 13.9196 9.65005 14.546C8.52813 15.1006 8.53896 16.8533 9.66451 17.4005C10.9796 18.0398 12.6308 18.653 14.4646 19.3799C14.9576 19.5754 15.6544 20.1276 15.8279 20.8064C16.3624 22.8981 17.0896 25.1124 17.8904 27.1566C18.512 28.7434 20.0488 28.7422 20.6735 27.1566C21.4843 25.0982 22.1004 22.8748 22.7957 20.7594C22.9621 20.1062 23.4547 19.5898 24.09 19.3647C25.807 18.7565 27.4622 18.07 28.8113 17.4758C30.0712 16.9209 30.0971 15.1193 28.853 14.5299C27.5245 13.9005 25.8719 13.1717 24.0818 12.5212C23.4517 12.2923 22.967 11.8091 22.7431 11.1233C21.9885 8.81237 21.5104 6.85311 20.7088 4.81844C20.0841 3.23279 18.4443 3.28159 17.8196 4.86724C17.021 6.8944 16.4634 8.91217 15.8209 11.1058Z" fill="url(#paint7_radial_2345_32923)"/>
<path d="M15.8209 11.1058C15.6505 11.7676 15.0719 12.2613 14.3879 12.6033C12.4489 13.2742 10.9174 13.9196 9.65005 14.546C8.52813 15.1006 8.53896 16.8533 9.66451 17.4005C10.9796 18.0398 12.6308 18.653 14.4646 19.3799C14.9576 19.5754 15.6544 20.1276 15.8279 20.8064C16.3624 22.8981 17.0896 25.1124 17.8904 27.1566C18.512 28.7434 20.0488 28.7422 20.6735 27.1566C21.4843 25.0982 22.1004 22.8748 22.7957 20.7594C22.9621 20.1062 23.4547 19.5898 24.09 19.3647C25.807 18.7565 27.4622 18.07 28.8113 17.4758C30.0712 16.9209 30.0971 15.1193 28.853 14.5299C27.5245 13.9005 25.8719 13.1717 24.0818 12.5212C23.4517 12.2923 22.967 11.8091 22.7431 11.1233C21.9885 8.81237 21.5104 6.85311 20.7088 4.81844C20.0841 3.23279 18.4443 3.28159 17.8196 4.86724C17.021 6.8944 16.4634 8.91217 15.8209 11.1058Z" fill="url(#paint8_radial_2345_32923)"/>
<path d="M15.8209 11.1058C15.6505 11.7676 15.0719 12.2613 14.3879 12.6033C12.4489 13.2742 10.9174 13.9196 9.65005 14.546C8.52813 15.1006 8.53896 16.8533 9.66451 17.4005C10.9796 18.0398 12.6308 18.653 14.4646 19.3799C14.9576 19.5754 15.6544 20.1276 15.8279 20.8064C16.3624 22.8981 17.0896 25.1124 17.8904 27.1566C18.512 28.7434 20.0488 28.7422 20.6735 27.1566C21.4843 25.0982 22.1004 22.8748 22.7957 20.7594C22.9621 20.1062 23.4547 19.5898 24.09 19.3647C25.807 18.7565 27.4622 18.07 28.8113 17.4758C30.0712 16.9209 30.0971 15.1193 28.853 14.5299C27.5245 13.9005 25.8719 13.1717 24.0818 12.5212C23.4517 12.2923 22.967 11.8091 22.7431 11.1233C21.9885 8.81237 21.5104 6.85311 20.7088 4.81844C20.0841 3.23279 18.4443 3.28159 17.8196 4.86724C17.021 6.8944 16.4634 8.91217 15.8209 11.1058Z" fill="url(#paint9_radial_2345_32923)"/>
<path d="M15.8209 11.1058C15.6505 11.7676 15.0719 12.2613 14.3879 12.6033C12.4489 13.2742 10.9174 13.9196 9.65005 14.546C8.52813 15.1006 8.53896 16.8533 9.66451 17.4005C10.9796 18.0398 12.6308 18.653 14.4646 19.3799C14.9576 19.5754 15.6544 20.1276 15.8279 20.8064C16.3624 22.8981 17.0896 25.1124 17.8904 27.1566C18.512 28.7434 20.0488 28.7422 20.6735 27.1566C21.4843 25.0982 22.1004 22.8748 22.7957 20.7594C22.9621 20.1062 23.4547 19.5898 24.09 19.3647C25.807 18.7565 27.4622 18.07 28.8113 17.4758C30.0712 16.9209 30.0971 15.1193 28.853 14.5299C27.5245 13.9005 25.8719 13.1717 24.0818 12.5212C23.4517 12.2923 22.967 11.8091 22.7431 11.1233C21.9885 8.81237 21.5104 6.85311 20.7088 4.81844C20.0841 3.23279 18.4443 3.28159 17.8196 4.86724C17.021 6.8944 16.4634 8.91217 15.8209 11.1058Z" fill="url(#paint10_radial_2345_32923)"/>
<path d="M15.8209 11.1058C15.6505 11.7676 15.0719 12.2613 14.3879 12.6033C12.4489 13.2742 10.9174 13.9196 9.65005 14.546C8.52813 15.1006 8.53896 16.8533 9.66451 17.4005C10.9796 18.0398 12.6308 18.653 14.4646 19.3799C14.9576 19.5754 15.6544 20.1276 15.8279 20.8064C16.3624 22.8981 17.0896 25.1124 17.8904 27.1566C18.512 28.7434 20.0488 28.7422 20.6735 27.1566C21.4843 25.0982 22.1004 22.8748 22.7957 20.7594C22.9621 20.1062 23.4547 19.5898 24.09 19.3647C25.807 18.7565 27.4622 18.07 28.8113 17.4758C30.0712 16.9209 30.0971 15.1193 28.853 14.5299C27.5245 13.9005 25.8719 13.1717 24.0818 12.5212C23.4517 12.2923 22.967 11.8091 22.7431 11.1233C21.9885 8.81237 21.5104 6.85311 20.7088 4.81844C20.0841 3.23279 18.4443 3.28159 17.8196 4.86724C17.021 6.8944 16.4634 8.91217 15.8209 11.1058Z" fill="url(#paint11_radial_2345_32923)"/>
<path d="M15.8209 11.1058C15.6505 11.7676 15.0719 12.2613 14.3879 12.6033C12.4489 13.2742 10.9174 13.9196 9.65005 14.546C8.52813 15.1006 8.53896 16.8533 9.66451 17.4005C10.9796 18.0398 12.6308 18.653 14.4646 19.3799C14.9576 19.5754 15.6544 20.1276 15.8279 20.8064C16.3624 22.8981 17.0896 25.1124 17.8904 27.1566C18.512 28.7434 20.0488 28.7422 20.6735 27.1566C21.4843 25.0982 22.1004 22.8748 22.7957 20.7594C22.9621 20.1062 23.4547 19.5898 24.09 19.3647C25.807 18.7565 27.4622 18.07 28.8113 17.4758C30.0712 16.9209 30.0971 15.1193 28.853 14.5299C27.5245 13.9005 25.8719 13.1717 24.0818 12.5212C23.4517 12.2923 22.967 11.8091 22.7431 11.1233C21.9885 8.81237 21.5104 6.85311 20.7088 4.81844C20.0841 3.23279 18.4443 3.28159 17.8196 4.86724C17.021 6.8944 16.4634 8.91217 15.8209 11.1058Z" fill="url(#paint12_radial_2345_32923)"/>
<path d="M15.8209 11.1058C15.6505 11.7676 15.0719 12.2613 14.3879 12.6033C12.4489 13.2742 10.9174 13.9196 9.65005 14.546C8.52813 15.1006 8.53896 16.8533 9.66451 17.4005C10.9796 18.0398 12.6308 18.653 14.4646 19.3799C14.9576 19.5754 15.6544 20.1276 15.8279 20.8064C16.3624 22.8981 17.0896 25.1124 17.8904 27.1566C18.512 28.7434 20.0488 28.7422 20.6735 27.1566C21.4843 25.0982 22.1004 22.8748 22.7957 20.7594C22.9621 20.1062 23.4547 19.5898 24.09 19.3647C25.807 18.7565 27.4622 18.07 28.8113 17.4758C30.0712 16.9209 30.0971 15.1193 28.853 14.5299C27.5245 13.9005 25.8719 13.1717 24.0818 12.5212C23.4517 12.2923 22.967 11.8091 22.7431 11.1233C21.9885 8.81237 21.5104 6.85311 20.7088 4.81844C20.0841 3.23279 18.4443 3.28159 17.8196 4.86724C17.021 6.8944 16.4634 8.91217 15.8209 11.1058Z" fill="url(#paint13_radial_2345_32923)"/>
<path d="M15.8209 11.1058C15.6505 11.7676 15.0719 12.2613 14.3879 12.6033C12.4489 13.2742 10.9174 13.9196 9.65005 14.546C8.52813 15.1006 8.53896 16.8533 9.66451 17.4005C10.9796 18.0398 12.6308 18.653 14.4646 19.3799C14.9576 19.5754 15.6544 20.1276 15.8279 20.8064C16.3624 22.8981 17.0896 25.1124 17.8904 27.1566C18.512 28.7434 20.0488 28.7422 20.6735 27.1566C21.4843 25.0982 22.1004 22.8748 22.7957 20.7594C22.9621 20.1062 23.4547 19.5898 24.09 19.3647C25.807 18.7565 27.4622 18.07 28.8113 17.4758C30.0712 16.9209 30.0971 15.1193 28.853 14.5299C27.5245 13.9005 25.8719 13.1717 24.0818 12.5212C23.4517 12.2923 22.967 11.8091 22.7431 11.1233C21.9885 8.81237 21.5104 6.85311 20.7088 4.81844C20.0841 3.23279 18.4443 3.28159 17.8196 4.86724C17.021 6.8944 16.4634 8.91217 15.8209 11.1058Z" fill="url(#paint14_radial_2345_32923)"/>
<path d="M15.8209 11.1058C15.6505 11.7676 15.0719 12.2613 14.3879 12.6033C12.4489 13.2742 10.9174 13.9196 9.65005 14.546C8.52813 15.1006 8.53896 16.8533 9.66451 17.4005C10.9796 18.0398 12.6308 18.653 14.4646 19.3799C14.9576 19.5754 15.6544 20.1276 15.8279 20.8064C16.3624 22.8981 17.0896 25.1124 17.8904 27.1566C18.512 28.7434 20.0488 28.7422 20.6735 27.1566C21.4843 25.0982 22.1004 22.8748 22.7957 20.7594C22.9621 20.1062 23.4547 19.5898 24.09 19.3647C25.807 18.7565 27.4622 18.07 28.8113 17.4758C30.0712 16.9209 30.0971 15.1193 28.853 14.5299C27.5245 13.9005 25.8719 13.1717 24.0818 12.5212C23.4517 12.2923 22.967 11.8091 22.7431 11.1233C21.9885 8.81237 21.5104 6.85311 20.7088 4.81844C20.0841 3.23279 18.4443 3.28159 17.8196 4.86724C17.021 6.8944 16.4634 8.91217 15.8209 11.1058Z" fill="url(#paint15_radial_2345_32923)"/>
<path d="M15.8209 11.1058C15.6505 11.7676 15.0719 12.2613 14.3879 12.6033C12.4489 13.2742 10.9174 13.9196 9.65005 14.546C8.52813 15.1006 8.53896 16.8533 9.66451 17.4005C10.9796 18.0398 12.6308 18.653 14.4646 19.3799C14.9576 19.5754 15.6544 20.1276 15.8279 20.8064C16.3624 22.8981 17.0896 25.1124 17.8904 27.1566C18.512 28.7434 20.0488 28.7422 20.6735 27.1566C21.4843 25.0982 22.1004 22.8748 22.7957 20.7594C22.9621 20.1062 23.4547 19.5898 24.09 19.3647C25.807 18.7565 27.4622 18.07 28.8113 17.4758C30.0712 16.9209 30.0971 15.1193 28.853 14.5299C27.5245 13.9005 25.8719 13.1717 24.0818 12.5212C23.4517 12.2923 22.967 11.8091 22.7431 11.1233C21.9885 8.81237 21.5104 6.85311 20.7088 4.81844C20.0841 3.23279 18.4443 3.28159 17.8196 4.86724C17.021 6.8944 16.4634 8.91217 15.8209 11.1058Z" fill="url(#paint16_radial_2345_32923)" fill-opacity="0.8"/>
<path d="M15.8209 11.1058C15.6505 11.7676 15.0719 12.2613 14.3879 12.6033C12.4489 13.2742 10.9174 13.9196 9.65005 14.546C8.52813 15.1006 8.53896 16.8533 9.66451 17.4005C10.9796 18.0398 12.6308 18.653 14.4646 19.3799C14.9576 19.5754 15.6544 20.1276 15.8279 20.8064C16.3624 22.8981 17.0896 25.1124 17.8904 27.1566C18.512 28.7434 20.0488 28.7422 20.6735 27.1566C21.4843 25.0982 22.1004 22.8748 22.7957 20.7594C22.9621 20.1062 23.4547 19.5898 24.09 19.3647C25.807 18.7565 27.4622 18.07 28.8113 17.4758C30.0712 16.9209 30.0971 15.1193 28.853 14.5299C27.5245 13.9005 25.8719 13.1717 24.0818 12.5212C23.4517 12.2923 22.967 11.8091 22.7431 11.1233C21.9885 8.81237 21.5104 6.85311 20.7088 4.81844C20.0841 3.23279 18.4443 3.28159 17.8196 4.86724C17.021 6.8944 16.4634 8.91217 15.8209 11.1058Z" fill="url(#paint17_radial_2345_32923)" fill-opacity="0.8"/>
<path d="M15.8209 11.1058C15.6505 11.7676 15.0719 12.2613 14.3879 12.6033C12.4489 13.2742 10.9174 13.9196 9.65005 14.546C8.52813 15.1006 8.53896 16.8533 9.66451 17.4005C10.9796 18.0398 12.6308 18.653 14.4646 19.3799C14.9576 19.5754 15.6544 20.1276 15.8279 20.8064C16.3624 22.8981 17.0896 25.1124 17.8904 27.1566C18.512 28.7434 20.0488 28.7422 20.6735 27.1566C21.4843 25.0982 22.1004 22.8748 22.7957 20.7594C22.9621 20.1062 23.4547 19.5898 24.09 19.3647C25.807 18.7565 27.4622 18.07 28.8113 17.4758C30.0712 16.9209 30.0971 15.1193 28.853 14.5299C27.5245 13.9005 25.8719 13.1717 24.0818 12.5212C23.4517 12.2923 22.967 11.8091 22.7431 11.1233C21.9885 8.81237 21.5104 6.85311 20.7088 4.81844C20.0841 3.23279 18.4443 3.28159 17.8196 4.86724C17.021 6.8944 16.4634 8.91217 15.8209 11.1058Z" fill="url(#paint18_radial_2345_32923)" fill-opacity="0.8"/>
<path d="M15.8209 11.1058C15.6505 11.7676 15.0719 12.2613 14.3879 12.6033C12.4489 13.2742 10.9174 13.9196 9.65005 14.546C8.52813 15.1006 8.53896 16.8533 9.66451 17.4005C10.9796 18.0398 12.6308 18.653 14.4646 19.3799C14.9576 19.5754 15.6544 20.1276 15.8279 20.8064C16.3624 22.8981 17.0896 25.1124 17.8904 27.1566C18.512 28.7434 20.0488 28.7422 20.6735 27.1566C21.4843 25.0982 22.1004 22.8748 22.7957 20.7594C22.9621 20.1062 23.4547 19.5898 24.09 19.3647C25.807 18.7565 27.4622 18.07 28.8113 17.4758C30.0712 16.9209 30.0971 15.1193 28.853 14.5299C27.5245 13.9005 25.8719 13.1717 24.0818 12.5212C23.4517 12.2923 22.967 11.8091 22.7431 11.1233C21.9885 8.81237 21.5104 6.85311 20.7088 4.81844C20.0841 3.23279 18.4443 3.28159 17.8196 4.86724C17.021 6.8944 16.4634 8.91217 15.8209 11.1058Z" fill="url(#paint19_radial_2345_32923)" fill-opacity="0.8"/>
<path d="M15.8209 11.1058C15.6505 11.7676 15.0719 12.2613 14.3879 12.6033C12.4489 13.2742 10.9174 13.9196 9.65005 14.546C8.52813 15.1006 8.53896 16.8533 9.66451 17.4005C10.9796 18.0398 12.6308 18.653 14.4646 19.3799C14.9576 19.5754 15.6544 20.1276 15.8279 20.8064C16.3624 22.8981 17.0896 25.1124 17.8904 27.1566C18.512 28.7434 20.0488 28.7422 20.6735 27.1566C21.4843 25.0982 22.1004 22.8748 22.7957 20.7594C22.9621 20.1062 23.4547 19.5898 24.09 19.3647C25.807 18.7565 27.4622 18.07 28.8113 17.4758C30.0712 16.9209 30.0971 15.1193 28.853 14.5299C27.5245 13.9005 25.8719 13.1717 24.0818 12.5212C23.4517 12.2923 22.967 11.8091 22.7431 11.1233C21.9885 8.81237 21.5104 6.85311 20.7088 4.81844C20.0841 3.23279 18.4443 3.28159 17.8196 4.86724C17.021 6.8944 16.4634 8.91217 15.8209 11.1058Z" fill="url(#paint20_radial_2345_32923)" fill-opacity="0.8"/>
<path d="M15.8209 11.1058C15.6505 11.7676 15.0719 12.2613 14.3879 12.6033C12.4489 13.2742 10.9174 13.9196 9.65005 14.546C8.52813 15.1006 8.53896 16.8533 9.66451 17.4005C10.9796 18.0398 12.6308 18.653 14.4646 19.3799C14.9576 19.5754 15.6544 20.1276 15.8279 20.8064C16.3624 22.8981 17.0896 25.1124 17.8904 27.1566C18.512 28.7434 20.0488 28.7422 20.6735 27.1566C21.4843 25.0982 22.1004 22.8748 22.7957 20.7594C22.9621 20.1062 23.4547 19.5898 24.09 19.3647C25.807 18.7565 27.4622 18.07 28.8113 17.4758C30.0712 16.9209 30.0971 15.1193 28.853 14.5299C27.5245 13.9005 25.8719 13.1717 24.0818 12.5212C23.4517 12.2923 22.967 11.8091 22.7431 11.1233C21.9885 8.81237 21.5104 6.85311 20.7088 4.81844C20.0841 3.23279 18.4443 3.28159 17.8196 4.86724C17.021 6.8944 16.4634 8.91217 15.8209 11.1058Z" fill="url(#paint21_radial_2345_32923)" fill-opacity="0.8"/>
<path d="M15.8209 11.1058C15.6505 11.7676 15.0719 12.2613 14.3879 12.6033C12.4489 13.2742 10.9174 13.9196 9.65005 14.546C8.52813 15.1006 8.53896 16.8533 9.66451 17.4005C10.9796 18.0398 12.6308 18.653 14.4646 19.3799C14.9576 19.5754 15.6544 20.1276 15.8279 20.8064C16.3624 22.8981 17.0896 25.1124 17.8904 27.1566C18.512 28.7434 20.0488 28.7422 20.6735 27.1566C21.4843 25.0982 22.1004 22.8748 22.7957 20.7594C22.9621 20.1062 23.4547 19.5898 24.09 19.3647C25.807 18.7565 27.4622 18.07 28.8113 17.4758C30.0712 16.9209 30.0971 15.1193 28.853 14.5299C27.5245 13.9005 25.8719 13.1717 24.0818 12.5212C23.4517 12.2923 22.967 11.8091 22.7431 11.1233C21.9885 8.81237 21.5104 6.85311 20.7088 4.81844C20.0841 3.23279 18.4443 3.28159 17.8196 4.86724C17.021 6.8944 16.4634 8.91217 15.8209 11.1058Z" fill="url(#paint22_radial_2345_32923)" fill-opacity="0.8"/>
<path d="M15.8209 11.1058C15.6505 11.7676 15.0719 12.2613 14.3879 12.6033C12.4489 13.2742 10.9174 13.9196 9.65005 14.546C8.52813 15.1006 8.53896 16.8533 9.66451 17.4005C10.9796 18.0398 12.6308 18.653 14.4646 19.3799C14.9576 19.5754 15.6544 20.1276 15.8279 20.8064C16.3624 22.8981 17.0896 25.1124 17.8904 27.1566C18.512 28.7434 20.0488 28.7422 20.6735 27.1566C21.4843 25.0982 22.1004 22.8748 22.7957 20.7594C22.9621 20.1062 23.4547 19.5898 24.09 19.3647C25.807 18.7565 27.4622 18.07 28.8113 17.4758C30.0712 16.9209 30.0971 15.1193 28.853 14.5299C27.5245 13.9005 25.8719 13.1717 24.0818 12.5212C23.4517 12.2923 22.967 11.8091 22.7431 11.1233C21.9885 8.81237 21.5104 6.85311 20.7088 4.81844C20.0841 3.23279 18.4443 3.28159 17.8196 4.86724C17.021 6.8944 16.4634 8.91217 15.8209 11.1058Z" fill="url(#paint23_radial_2345_32923)" fill-opacity="0.8"/>
<path d="M15.8209 11.1058C15.6505 11.7676 15.0719 12.2613 14.3879 12.6033C12.4489 13.2742 10.9174 13.9196 9.65005 14.546C8.52813 15.1006 8.53896 16.8533 9.66451 17.4005C10.9796 18.0398 12.6308 18.653 14.4646 19.3799C14.9576 19.5754 15.6544 20.1276 15.8279 20.8064C16.3624 22.8981 17.0896 25.1124 17.8904 27.1566C18.512 28.7434 20.0488 28.7422 20.6735 27.1566C21.4843 25.0982 22.1004 22.8748 22.7957 20.7594C22.9621 20.1062 23.4547 19.5898 24.09 19.3647C25.807 18.7565 27.4622 18.07 28.8113 17.4758C30.0712 16.9209 30.0971 15.1193 28.853 14.5299C27.5245 13.9005 25.8719 13.1717 24.0818 12.5212C23.4517 12.2923 22.967 11.8091 22.7431 11.1233C21.9885 8.81237 21.5104 6.85311 20.7088 4.81844C20.0841 3.23279 18.4443 3.28159 17.8196 4.86724C17.021 6.8944 16.4634 8.91217 15.8209 11.1058Z" fill="url(#paint24_radial_2345_32923)"/>
<path d="M15.8209 11.1058C15.6505 11.7676 15.0719 12.2613 14.3879 12.6033C12.4489 13.2742 10.9174 13.9196 9.65005 14.546C8.52813 15.1006 8.53896 16.8533 9.66451 17.4005C10.9796 18.0398 12.6308 18.653 14.4646 19.3799C14.9576 19.5754 15.6544 20.1276 15.8279 20.8064C16.3624 22.8981 17.0896 25.1124 17.8904 27.1566C18.512 28.7434 20.0488 28.7422 20.6735 27.1566C21.4843 25.0982 22.1004 22.8748 22.7957 20.7594C22.9621 20.1062 23.4547 19.5898 24.09 19.3647C25.807 18.7565 27.4622 18.07 28.8113 17.4758C30.0712 16.9209 30.0971 15.1193 28.853 14.5299C27.5245 13.9005 25.8719 13.1717 24.0818 12.5212C23.4517 12.2923 22.967 11.8091 22.7431 11.1233C21.9885 8.81237 21.5104 6.85311 20.7088 4.81844C20.0841 3.23279 18.4443 3.28159 17.8196 4.86724C17.021 6.8944 16.4634 8.91217 15.8209 11.1058Z" fill="url(#paint25_radial_2345_32923)"/>
<path d="M15.8209 11.1058C15.6505 11.7676 15.0719 12.2613 14.3879 12.6033C12.4489 13.2742 10.9174 13.9196 9.65005 14.546C8.52813 15.1006 8.53896 16.8533 9.66451 17.4005C10.9796 18.0398 12.6308 18.653 14.4646 19.3799C14.9576 19.5754 15.6544 20.1276 15.8279 20.8064C16.3624 22.8981 17.0896 25.1124 17.8904 27.1566C18.512 28.7434 20.0488 28.7422 20.6735 27.1566C21.4843 25.0982 22.1004 22.8748 22.7957 20.7594C22.9621 20.1062 23.4547 19.5898 24.09 19.3647C25.807 18.7565 27.4622 18.07 28.8113 17.4758C30.0712 16.9209 30.0971 15.1193 28.853 14.5299C27.5245 13.9005 25.8719 13.1717 24.0818 12.5212C23.4517 12.2923 22.967 11.8091 22.7431 11.1233C21.9885 8.81237 21.5104 6.85311 20.7088 4.81844C20.0841 3.23279 18.4443 3.28159 17.8196 4.86724C17.021 6.8944 16.4634 8.91217 15.8209 11.1058Z" fill="url(#paint26_radial_2345_32923)"/>
<path d="M15.8209 11.1058C15.6505 11.7676 15.0719 12.2613 14.3879 12.6033C12.4489 13.2742 10.9174 13.9196 9.65005 14.546C8.52813 15.1006 8.53896 16.8533 9.66451 17.4005C10.9796 18.0398 12.6308 18.653 14.4646 19.3799C14.9576 19.5754 15.6544 20.1276 15.8279 20.8064C16.3624 22.8981 17.0896 25.1124 17.8904 27.1566C18.512 28.7434 20.0488 28.7422 20.6735 27.1566C21.4843 25.0982 22.1004 22.8748 22.7957 20.7594C22.9621 20.1062 23.4547 19.5898 24.09 19.3647C25.807 18.7565 27.4622 18.07 28.8113 17.4758C30.0712 16.9209 30.0971 15.1193 28.853 14.5299C27.5245 13.9005 25.8719 13.1717 24.0818 12.5212C23.4517 12.2923 22.967 11.8091 22.7431 11.1233C21.9885 8.81237 21.5104 6.85311 20.7088 4.81844C20.0841 3.23279 18.4443 3.28159 17.8196 4.86724C17.021 6.8944 16.4634 8.91217 15.8209 11.1058Z" fill="url(#paint27_radial_2345_32923)"/>
<path d="M15.8209 11.1058C15.6505 11.7676 15.0719 12.2613 14.3879 12.6033C12.4489 13.2742 10.9174 13.9196 9.65005 14.546C8.52813 15.1006 8.53896 16.8533 9.66451 17.4005C10.9796 18.0398 12.6308 18.653 14.4646 19.3799C14.9576 19.5754 15.6544 20.1276 15.8279 20.8064C16.3624 22.8981 17.0896 25.1124 17.8904 27.1566C18.512 28.7434 20.0488 28.7422 20.6735 27.1566C21.4843 25.0982 22.1004 22.8748 22.7957 20.7594C22.9621 20.1062 23.4547 19.5898 24.09 19.3647C25.807 18.7565 27.4622 18.07 28.8113 17.4758C30.0712 16.9209 30.0971 15.1193 28.853 14.5299C27.5245 13.9005 25.8719 13.1717 24.0818 12.5212C23.4517 12.2923 22.967 11.8091 22.7431 11.1233C21.9885 8.81237 21.5104 6.85311 20.7088 4.81844C20.0841 3.23279 18.4443 3.28159 17.8196 4.86724C17.021 6.8944 16.4634 8.91217 15.8209 11.1058Z" fill="url(#paint28_radial_2345_32923)"/>
<path d="M15.8209 11.1058C15.6505 11.7676 15.0719 12.2613 14.3879 12.6033C12.4489 13.2742 10.9174 13.9196 9.65005 14.546C8.52813 15.1006 8.53896 16.8533 9.66451 17.4005C10.9796 18.0398 12.6308 18.653 14.4646 19.3799C14.9576 19.5754 15.6544 20.1276 15.8279 20.8064C16.3624 22.8981 17.0896 25.1124 17.8904 27.1566C18.512 28.7434 20.0488 28.7422 20.6735 27.1566C21.4843 25.0982 22.1004 22.8748 22.7957 20.7594C22.9621 20.1062 23.4547 19.5898 24.09 19.3647C25.807 18.7565 27.4622 18.07 28.8113 17.4758C30.0712 16.9209 30.0971 15.1193 28.853 14.5299C27.5245 13.9005 25.8719 13.1717 24.0818 12.5212C23.4517 12.2923 22.967 11.8091 22.7431 11.1233C21.9885 8.81237 21.5104 6.85311 20.7088 4.81844C20.0841 3.23279 18.4443 3.28159 17.8196 4.86724C17.021 6.8944 16.4634 8.91217 15.8209 11.1058Z" fill="url(#paint29_radial_2345_32923)"/>
<path d="M7.76778 5.81661C7.71293 6.02962 7.52669 6.18851 7.30655 6.29859C6.68247 6.51451 6.18953 6.72223 5.78164 6.92386C5.42054 7.10237 5.42403 7.66647 5.78629 7.84259C6.20957 8.04837 6.74101 8.24573 7.33122 8.4797C7.48992 8.5426 7.71418 8.72033 7.77001 8.9388C7.94205 9.61203 8.17611 10.3247 8.43384 10.9827C8.63391 11.4934 9.12855 11.493 9.3296 10.9827C9.59058 10.3202 9.78887 9.60455 10.0127 8.92367C10.0662 8.71346 10.2248 8.54722 10.4292 8.47479C10.9819 8.27902 11.5146 8.05809 11.9488 7.86683C12.3543 7.68823 12.3627 7.10839 11.9622 6.91868C11.5347 6.7161 11.0028 6.48152 10.4266 6.27217C10.2238 6.19848 10.0678 6.04298 9.99573 5.82224C9.75287 5.07845 9.59898 4.44784 9.34099 3.79297C9.13993 3.28262 8.61213 3.29833 8.41107 3.80868C8.15402 4.46113 7.97457 5.11057 7.76778 5.81661Z" fill="url(#paint30_linear_2345_32923)"/>
<path d="M7.76778 5.81661C7.71293 6.02962 7.52669 6.18851 7.30655 6.29859C6.68247 6.51451 6.18953 6.72223 5.78164 6.92386C5.42054 7.10237 5.42403 7.66647 5.78629 7.84259C6.20957 8.04837 6.74101 8.24573 7.33122 8.4797C7.48992 8.5426 7.71418 8.72033 7.77001 8.9388C7.94205 9.61203 8.17611 10.3247 8.43384 10.9827C8.63391 11.4934 9.12855 11.493 9.3296 10.9827C9.59058 10.3202 9.78887 9.60455 10.0127 8.92367C10.0662 8.71346 10.2248 8.54722 10.4292 8.47479C10.9819 8.27902 11.5146 8.05809 11.9488 7.86683C12.3543 7.68823 12.3627 7.10839 11.9622 6.91868C11.5347 6.7161 11.0028 6.48152 10.4266 6.27217C10.2238 6.19848 10.0678 6.04298 9.99573 5.82224C9.75287 5.07845 9.59898 4.44784 9.34099 3.79297C9.13993 3.28262 8.61213 3.29833 8.41107 3.80868C8.15402 4.46113 7.97457 5.11057 7.76778 5.81661Z" fill="url(#paint31_linear_2345_32923)"/>
<path d="M7.76778 5.81661C7.71293 6.02962 7.52669 6.18851 7.30655 6.29859C6.68247 6.51451 6.18953 6.72223 5.78164 6.92386C5.42054 7.10237 5.42403 7.66647 5.78629 7.84259C6.20957 8.04837 6.74101 8.24573 7.33122 8.4797C7.48992 8.5426 7.71418 8.72033 7.77001 8.9388C7.94205 9.61203 8.17611 10.3247 8.43384 10.9827C8.63391 11.4934 9.12855 11.493 9.3296 10.9827C9.59058 10.3202 9.78887 9.60455 10.0127 8.92367C10.0662 8.71346 10.2248 8.54722 10.4292 8.47479C10.9819 8.27902 11.5146 8.05809 11.9488 7.86683C12.3543 7.68823 12.3627 7.10839 11.9622 6.91868C11.5347 6.7161 11.0028 6.48152 10.4266 6.27217C10.2238 6.19848 10.0678 6.04298 9.99573 5.82224C9.75287 5.07845 9.59898 4.44784 9.34099 3.79297C9.13993 3.28262 8.61213 3.29833 8.41107 3.80868C8.15402 4.46113 7.97457 5.11057 7.76778 5.81661Z" fill="url(#paint32_radial_2345_32923)"/>
<path d="M7.76778 5.81661C7.71293 6.02962 7.52669 6.18851 7.30655 6.29859C6.68247 6.51451 6.18953 6.72223 5.78164 6.92386C5.42054 7.10237 5.42403 7.66647 5.78629 7.84259C6.20957 8.04837 6.74101 8.24573 7.33122 8.4797C7.48992 8.5426 7.71418 8.72033 7.77001 8.9388C7.94205 9.61203 8.17611 10.3247 8.43384 10.9827C8.63391 11.4934 9.12855 11.493 9.3296 10.9827C9.59058 10.3202 9.78887 9.60455 10.0127 8.92367C10.0662 8.71346 10.2248 8.54722 10.4292 8.47479C10.9819 8.27902 11.5146 8.05809 11.9488 7.86683C12.3543 7.68823 12.3627 7.10839 11.9622 6.91868C11.5347 6.7161 11.0028 6.48152 10.4266 6.27217C10.2238 6.19848 10.0678 6.04298 9.99573 5.82224C9.75287 5.07845 9.59898 4.44784 9.34099 3.79297C9.13993 3.28262 8.61213 3.29833 8.41107 3.80868C8.15402 4.46113 7.97457 5.11057 7.76778 5.81661Z" fill="url(#paint33_radial_2345_32923)"/>
<path d="M7.76778 5.81661C7.71293 6.02962 7.52669 6.18851 7.30655 6.29859C6.68247 6.51451 6.18953 6.72223 5.78164 6.92386C5.42054 7.10237 5.42403 7.66647 5.78629 7.84259C6.20957 8.04837 6.74101 8.24573 7.33122 8.4797C7.48992 8.5426 7.71418 8.72033 7.77001 8.9388C7.94205 9.61203 8.17611 10.3247 8.43384 10.9827C8.63391 11.4934 9.12855 11.493 9.3296 10.9827C9.59058 10.3202 9.78887 9.60455 10.0127 8.92367C10.0662 8.71346 10.2248 8.54722 10.4292 8.47479C10.9819 8.27902 11.5146 8.05809 11.9488 7.86683C12.3543 7.68823 12.3627 7.10839 11.9622 6.91868C11.5347 6.7161 11.0028 6.48152 10.4266 6.27217C10.2238 6.19848 10.0678 6.04298 9.99573 5.82224C9.75287 5.07845 9.59898 4.44784 9.34099 3.79297C9.13993 3.28262 8.61213 3.29833 8.41107 3.80868C8.15402 4.46113 7.97457 5.11057 7.76778 5.81661Z" fill="url(#paint34_radial_2345_32923)"/>
<path d="M7.76778 5.81661C7.71293 6.02962 7.52669 6.18851 7.30655 6.29859C6.68247 6.51451 6.18953 6.72223 5.78164 6.92386C5.42054 7.10237 5.42403 7.66647 5.78629 7.84259C6.20957 8.04837 6.74101 8.24573 7.33122 8.4797C7.48992 8.5426 7.71418 8.72033 7.77001 8.9388C7.94205 9.61203 8.17611 10.3247 8.43384 10.9827C8.63391 11.4934 9.12855 11.493 9.3296 10.9827C9.59058 10.3202 9.78887 9.60455 10.0127 8.92367C10.0662 8.71346 10.2248 8.54722 10.4292 8.47479C10.9819 8.27902 11.5146 8.05809 11.9488 7.86683C12.3543 7.68823 12.3627 7.10839 11.9622 6.91868C11.5347 6.7161 11.0028 6.48152 10.4266 6.27217C10.2238 6.19848 10.0678 6.04298 9.99573 5.82224C9.75287 5.07845 9.59898 4.44784 9.34099 3.79297C9.13993 3.28262 8.61213 3.29833 8.41107 3.80868C8.15402 4.46113 7.97457 5.11057 7.76778 5.81661Z" fill="url(#paint35_radial_2345_32923)"/>
<path d="M7.76778 5.81661C7.71293 6.02962 7.52669 6.18851 7.30655 6.29859C6.68247 6.51451 6.18953 6.72223 5.78164 6.92386C5.42054 7.10237 5.42403 7.66647 5.78629 7.84259C6.20957 8.04837 6.74101 8.24573 7.33122 8.4797C7.48992 8.5426 7.71418 8.72033 7.77001 8.9388C7.94205 9.61203 8.17611 10.3247 8.43384 10.9827C8.63391 11.4934 9.12855 11.493 9.3296 10.9827C9.59058 10.3202 9.78887 9.60455 10.0127 8.92367C10.0662 8.71346 10.2248 8.54722 10.4292 8.47479C10.9819 8.27902 11.5146 8.05809 11.9488 7.86683C12.3543 7.68823 12.3627 7.10839 11.9622 6.91868C11.5347 6.7161 11.0028 6.48152 10.4266 6.27217C10.2238 6.19848 10.0678 6.04298 9.99573 5.82224C9.75287 5.07845 9.59898 4.44784 9.34099 3.79297C9.13993 3.28262 8.61213 3.29833 8.41107 3.80868C8.15402 4.46113 7.97457 5.11057 7.76778 5.81661Z" fill="url(#paint36_radial_2345_32923)"/>
<path d="M7.76778 5.81661C7.71293 6.02962 7.52669 6.18851 7.30655 6.29859C6.68247 6.51451 6.18953 6.72223 5.78164 6.92386C5.42054 7.10237 5.42403 7.66647 5.78629 7.84259C6.20957 8.04837 6.74101 8.24573 7.33122 8.4797C7.48992 8.5426 7.71418 8.72033 7.77001 8.9388C7.94205 9.61203 8.17611 10.3247 8.43384 10.9827C8.63391 11.4934 9.12855 11.493 9.3296 10.9827C9.59058 10.3202 9.78887 9.60455 10.0127 8.92367C10.0662 8.71346 10.2248 8.54722 10.4292 8.47479C10.9819 8.27902 11.5146 8.05809 11.9488 7.86683C12.3543 7.68823 12.3627 7.10839 11.9622 6.91868C11.5347 6.7161 11.0028 6.48152 10.4266 6.27217C10.2238 6.19848 10.0678 6.04298 9.99573 5.82224C9.75287 5.07845 9.59898 4.44784 9.34099 3.79297C9.13993 3.28262 8.61213 3.29833 8.41107 3.80868C8.15402 4.46113 7.97457 5.11057 7.76778 5.81661Z" fill="url(#paint37_radial_2345_32923)"/>
<path d="M7.76778 5.81661C7.71293 6.02962 7.52669 6.18851 7.30655 6.29859C6.68247 6.51451 6.18953 6.72223 5.78164 6.92386C5.42054 7.10237 5.42403 7.66647 5.78629 7.84259C6.20957 8.04837 6.74101 8.24573 7.33122 8.4797C7.48992 8.5426 7.71418 8.72033 7.77001 8.9388C7.94205 9.61203 8.17611 10.3247 8.43384 10.9827C8.63391 11.4934 9.12855 11.493 9.3296 10.9827C9.59058 10.3202 9.78887 9.60455 10.0127 8.92367C10.0662 8.71346 10.2248 8.54722 10.4292 8.47479C10.9819 8.27902 11.5146 8.05809 11.9488 7.86683C12.3543 7.68823 12.3627 7.10839 11.9622 6.91868C11.5347 6.7161 11.0028 6.48152 10.4266 6.27217C10.2238 6.19848 10.0678 6.04298 9.99573 5.82224C9.75287 5.07845 9.59898 4.44784 9.34099 3.79297C9.13993 3.28262 8.61213 3.29833 8.41107 3.80868C8.15402 4.46113 7.97457 5.11057 7.76778 5.81661Z" fill="url(#paint38_radial_2345_32923)"/>
<path d="M7.76778 5.81661C7.71293 6.02962 7.52669 6.18851 7.30655 6.29859C6.68247 6.51451 6.18953 6.72223 5.78164 6.92386C5.42054 7.10237 5.42403 7.66647 5.78629 7.84259C6.20957 8.04837 6.74101 8.24573 7.33122 8.4797C7.48992 8.5426 7.71418 8.72033 7.77001 8.9388C7.94205 9.61203 8.17611 10.3247 8.43384 10.9827C8.63391 11.4934 9.12855 11.493 9.3296 10.9827C9.59058 10.3202 9.78887 9.60455 10.0127 8.92367C10.0662 8.71346 10.2248 8.54722 10.4292 8.47479C10.9819 8.27902 11.5146 8.05809 11.9488 7.86683C12.3543 7.68823 12.3627 7.10839 11.9622 6.91868C11.5347 6.7161 11.0028 6.48152 10.4266 6.27217C10.2238 6.19848 10.0678 6.04298 9.99573 5.82224C9.75287 5.07845 9.59898 4.44784 9.34099 3.79297C9.13993 3.28262 8.61213 3.29833 8.41107 3.80868C8.15402 4.46113 7.97457 5.11057 7.76778 5.81661Z" fill="url(#paint39_radial_2345_32923)"/>
<path d="M7.76778 5.81661C7.71293 6.02962 7.52669 6.18851 7.30655 6.29859C6.68247 6.51451 6.18953 6.72223 5.78164 6.92386C5.42054 7.10237 5.42403 7.66647 5.78629 7.84259C6.20957 8.04837 6.74101 8.24573 7.33122 8.4797C7.48992 8.5426 7.71418 8.72033 7.77001 8.9388C7.94205 9.61203 8.17611 10.3247 8.43384 10.9827C8.63391 11.4934 9.12855 11.493 9.3296 10.9827C9.59058 10.3202 9.78887 9.60455 10.0127 8.92367C10.0662 8.71346 10.2248 8.54722 10.4292 8.47479C10.9819 8.27902 11.5146 8.05809 11.9488 7.86683C12.3543 7.68823 12.3627 7.10839 11.9622 6.91868C11.5347 6.7161 11.0028 6.48152 10.4266 6.27217C10.2238 6.19848 10.0678 6.04298 9.99573 5.82224C9.75287 5.07845 9.59898 4.44784 9.34099 3.79297C9.13993 3.28262 8.61213 3.29833 8.41107 3.80868C8.15402 4.46113 7.97457 5.11057 7.76778 5.81661Z" fill="url(#paint40_radial_2345_32923)"/>
<path d="M7.76778 5.81661C7.71293 6.02962 7.52669 6.18851 7.30655 6.29859C6.68247 6.51451 6.18953 6.72223 5.78164 6.92386C5.42054 7.10237 5.42403 7.66647 5.78629 7.84259C6.20957 8.04837 6.74101 8.24573 7.33122 8.4797C7.48992 8.5426 7.71418 8.72033 7.77001 8.9388C7.94205 9.61203 8.17611 10.3247 8.43384 10.9827C8.63391 11.4934 9.12855 11.493 9.3296 10.9827C9.59058 10.3202 9.78887 9.60455 10.0127 8.92367C10.0662 8.71346 10.2248 8.54722 10.4292 8.47479C10.9819 8.27902 11.5146 8.05809 11.9488 7.86683C12.3543 7.68823 12.3627 7.10839 11.9622 6.91868C11.5347 6.7161 11.0028 6.48152 10.4266 6.27217C10.2238 6.19848 10.0678 6.04298 9.99573 5.82224C9.75287 5.07845 9.59898 4.44784 9.34099 3.79297C9.13993 3.28262 8.61213 3.29833 8.41107 3.80868C8.15402 4.46113 7.97457 5.11057 7.76778 5.81661Z" fill="url(#paint41_radial_2345_32923)"/>
<path d="M7.76778 5.81661C7.71293 6.02962 7.52669 6.18851 7.30655 6.29859C6.68247 6.51451 6.18953 6.72223 5.78164 6.92386C5.42054 7.10237 5.42403 7.66647 5.78629 7.84259C6.20957 8.04837 6.74101 8.24573 7.33122 8.4797C7.48992 8.5426 7.71418 8.72033 7.77001 8.9388C7.94205 9.61203 8.17611 10.3247 8.43384 10.9827C8.63391 11.4934 9.12855 11.493 9.3296 10.9827C9.59058 10.3202 9.78887 9.60455 10.0127 8.92367C10.0662 8.71346 10.2248 8.54722 10.4292 8.47479C10.9819 8.27902 11.5146 8.05809 11.9488 7.86683C12.3543 7.68823 12.3627 7.10839 11.9622 6.91868C11.5347 6.7161 11.0028 6.48152 10.4266 6.27217C10.2238 6.19848 10.0678 6.04298 9.99573 5.82224C9.75287 5.07845 9.59898 4.44784 9.34099 3.79297C9.13993 3.28262 8.61213 3.29833 8.41107 3.80868C8.15402 4.46113 7.97457 5.11057 7.76778 5.81661Z" fill="url(#paint42_radial_2345_32923)"/>
<path d="M7.76778 5.81661C7.71293 6.02962 7.52669 6.18851 7.30655 6.29859C6.68247 6.51451 6.18953 6.72223 5.78164 6.92386C5.42054 7.10237 5.42403 7.66647 5.78629 7.84259C6.20957 8.04837 6.74101 8.24573 7.33122 8.4797C7.48992 8.5426 7.71418 8.72033 7.77001 8.9388C7.94205 9.61203 8.17611 10.3247 8.43384 10.9827C8.63391 11.4934 9.12855 11.493 9.3296 10.9827C9.59058 10.3202 9.78887 9.60455 10.0127 8.92367C10.0662 8.71346 10.2248 8.54722 10.4292 8.47479C10.9819 8.27902 11.5146 8.05809 11.9488 7.86683C12.3543 7.68823 12.3627 7.10839 11.9622 6.91868C11.5347 6.7161 11.0028 6.48152 10.4266 6.27217C10.2238 6.19848 10.0678 6.04298 9.99573 5.82224C9.75287 5.07845 9.59898 4.44784 9.34099 3.79297C9.13993 3.28262 8.61213 3.29833 8.41107 3.80868C8.15402 4.46113 7.97457 5.11057 7.76778 5.81661Z" fill="url(#paint43_radial_2345_32923)"/>
<path d="M5.22566 20.0655C5.14918 20.3625 4.88948 20.5841 4.5825 20.7376C3.71225 21.0387 3.02487 21.3283 2.45608 21.6095C1.95255 21.8584 1.95741 22.645 2.46257 22.8906C3.05281 23.1776 3.79388 23.4528 4.61691 23.779C4.8382 23.8668 5.15093 24.1146 5.22878 24.4192C5.46868 25.358 5.79506 26.3519 6.15445 27.2693C6.43345 27.9815 7.12319 27.981 7.40355 27.2693C7.76748 26.3455 8.04398 25.3476 8.35604 24.3982C8.43072 24.105 8.65181 23.8732 8.93695 23.7722C9.70758 23.4992 10.4504 23.1911 11.0559 22.9244C11.6214 22.6754 11.633 21.8668 11.0747 21.6023C10.4784 21.3198 9.73668 20.9927 8.93326 20.7007C8.65047 20.598 8.43294 20.3812 8.33243 20.0733C7.99378 19.0362 7.77919 18.1568 7.41943 17.2436C7.13906 16.532 6.40307 16.5539 6.1227 17.2655C5.76426 18.1753 5.51403 19.081 5.22566 20.0655Z" fill="url(#paint44_radial_2345_32923)"/>
<path d="M5.22566 20.0655C5.14918 20.3625 4.88948 20.5841 4.5825 20.7376C3.71225 21.0387 3.02487 21.3283 2.45608 21.6095C1.95255 21.8584 1.95741 22.645 2.46257 22.8906C3.05281 23.1776 3.79388 23.4528 4.61691 23.779C4.8382 23.8668 5.15093 24.1146 5.22878 24.4192C5.46868 25.358 5.79506 26.3519 6.15445 27.2693C6.43345 27.9815 7.12319 27.981 7.40355 27.2693C7.76748 26.3455 8.04398 25.3476 8.35604 24.3982C8.43072 24.105 8.65181 23.8732 8.93695 23.7722C9.70758 23.4992 10.4504 23.1911 11.0559 22.9244C11.6214 22.6754 11.633 21.8668 11.0747 21.6023C10.4784 21.3198 9.73668 20.9927 8.93326 20.7007C8.65047 20.598 8.43294 20.3812 8.33243 20.0733C7.99378 19.0362 7.77919 18.1568 7.41943 17.2436C7.13906 16.532 6.40307 16.5539 6.1227 17.2655C5.76426 18.1753 5.51403 19.081 5.22566 20.0655Z" fill="url(#paint45_radial_2345_32923)"/>
<path d="M5.22566 20.0655C5.14918 20.3625 4.88948 20.5841 4.5825 20.7376C3.71225 21.0387 3.02487 21.3283 2.45608 21.6095C1.95255 21.8584 1.95741 22.645 2.46257 22.8906C3.05281 23.1776 3.79388 23.4528 4.61691 23.779C4.8382 23.8668 5.15093 24.1146 5.22878 24.4192C5.46868 25.358 5.79506 26.3519 6.15445 27.2693C6.43345 27.9815 7.12319 27.981 7.40355 27.2693C7.76748 26.3455 8.04398 25.3476 8.35604 24.3982C8.43072 24.105 8.65181 23.8732 8.93695 23.7722C9.70758 23.4992 10.4504 23.1911 11.0559 22.9244C11.6214 22.6754 11.633 21.8668 11.0747 21.6023C10.4784 21.3198 9.73668 20.9927 8.93326 20.7007C8.65047 20.598 8.43294 20.3812 8.33243 20.0733C7.99378 19.0362 7.77919 18.1568 7.41943 17.2436C7.13906 16.532 6.40307 16.5539 6.1227 17.2655C5.76426 18.1753 5.51403 19.081 5.22566 20.0655Z" fill="url(#paint46_radial_2345_32923)"/>
<path d="M5.22566 20.0655C5.14918 20.3625 4.88948 20.5841 4.5825 20.7376C3.71225 21.0387 3.02487 21.3283 2.45608 21.6095C1.95255 21.8584 1.95741 22.645 2.46257 22.8906C3.05281 23.1776 3.79388 23.4528 4.61691 23.779C4.8382 23.8668 5.15093 24.1146 5.22878 24.4192C5.46868 25.358 5.79506 26.3519 6.15445 27.2693C6.43345 27.9815 7.12319 27.981 7.40355 27.2693C7.76748 26.3455 8.04398 25.3476 8.35604 24.3982C8.43072 24.105 8.65181 23.8732 8.93695 23.7722C9.70758 23.4992 10.4504 23.1911 11.0559 22.9244C11.6214 22.6754 11.633 21.8668 11.0747 21.6023C10.4784 21.3198 9.73668 20.9927 8.93326 20.7007C8.65047 20.598 8.43294 20.3812 8.33243 20.0733C7.99378 19.0362 7.77919 18.1568 7.41943 17.2436C7.13906 16.532 6.40307 16.5539 6.1227 17.2655C5.76426 18.1753 5.51403 19.081 5.22566 20.0655Z" fill="url(#paint47_radial_2345_32923)"/>
<path d="M5.22566 20.0655C5.14918 20.3625 4.88948 20.5841 4.5825 20.7376C3.71225 21.0387 3.02487 21.3283 2.45608 21.6095C1.95255 21.8584 1.95741 22.645 2.46257 22.8906C3.05281 23.1776 3.79388 23.4528 4.61691 23.779C4.8382 23.8668 5.15093 24.1146 5.22878 24.4192C5.46868 25.358 5.79506 26.3519 6.15445 27.2693C6.43345 27.9815 7.12319 27.981 7.40355 27.2693C7.76748 26.3455 8.04398 25.3476 8.35604 24.3982C8.43072 24.105 8.65181 23.8732 8.93695 23.7722C9.70758 23.4992 10.4504 23.1911 11.0559 22.9244C11.6214 22.6754 11.633 21.8668 11.0747 21.6023C10.4784 21.3198 9.73668 20.9927 8.93326 20.7007C8.65047 20.598 8.43294 20.3812 8.33243 20.0733C7.99378 19.0362 7.77919 18.1568 7.41943 17.2436C7.13906 16.532 6.40307 16.5539 6.1227 17.2655C5.76426 18.1753 5.51403 19.081 5.22566 20.0655Z" fill="url(#paint48_radial_2345_32923)"/>
<path d="M5.22566 20.0655C5.14918 20.3625 4.88948 20.5841 4.5825 20.7376C3.71225 21.0387 3.02487 21.3283 2.45608 21.6095C1.95255 21.8584 1.95741 22.645 2.46257 22.8906C3.05281 23.1776 3.79388 23.4528 4.61691 23.779C4.8382 23.8668 5.15093 24.1146 5.22878 24.4192C5.46868 25.358 5.79506 26.3519 6.15445 27.2693C6.43345 27.9815 7.12319 27.981 7.40355 27.2693C7.76748 26.3455 8.04398 25.3476 8.35604 24.3982C8.43072 24.105 8.65181 23.8732 8.93695 23.7722C9.70758 23.4992 10.4504 23.1911 11.0559 22.9244C11.6214 22.6754 11.633 21.8668 11.0747 21.6023C10.4784 21.3198 9.73668 20.9927 8.93326 20.7007C8.65047 20.598 8.43294 20.3812 8.33243 20.0733C7.99378 19.0362 7.77919 18.1568 7.41943 17.2436C7.13906 16.532 6.40307 16.5539 6.1227 17.2655C5.76426 18.1753 5.51403 19.081 5.22566 20.0655Z" fill="url(#paint49_radial_2345_32923)"/>
<path d="M5.22566 20.0655C5.14918 20.3625 4.88948 20.5841 4.5825 20.7376C3.71225 21.0387 3.02487 21.3283 2.45608 21.6095C1.95255 21.8584 1.95741 22.645 2.46257 22.8906C3.05281 23.1776 3.79388 23.4528 4.61691 23.779C4.8382 23.8668 5.15093 24.1146 5.22878 24.4192C5.46868 25.358 5.79506 26.3519 6.15445 27.2693C6.43345 27.9815 7.12319 27.981 7.40355 27.2693C7.76748 26.3455 8.04398 25.3476 8.35604 24.3982C8.43072 24.105 8.65181 23.8732 8.93695 23.7722C9.70758 23.4992 10.4504 23.1911 11.0559 22.9244C11.6214 22.6754 11.633 21.8668 11.0747 21.6023C10.4784 21.3198 9.73668 20.9927 8.93326 20.7007C8.65047 20.598 8.43294 20.3812 8.33243 20.0733C7.99378 19.0362 7.77919 18.1568 7.41943 17.2436C7.13906 16.532 6.40307 16.5539 6.1227 17.2655C5.76426 18.1753 5.51403 19.081 5.22566 20.0655Z" fill="url(#paint50_radial_2345_32923)"/>
<path d="M5.22566 20.0655C5.14918 20.3625 4.88948 20.5841 4.5825 20.7376C3.71225 21.0387 3.02487 21.3283 2.45608 21.6095C1.95255 21.8584 1.95741 22.645 2.46257 22.8906C3.05281 23.1776 3.79388 23.4528 4.61691 23.779C4.8382 23.8668 5.15093 24.1146 5.22878 24.4192C5.46868 25.358 5.79506 26.3519 6.15445 27.2693C6.43345 27.9815 7.12319 27.981 7.40355 27.2693C7.76748 26.3455 8.04398 25.3476 8.35604 24.3982C8.43072 24.105 8.65181 23.8732 8.93695 23.7722C9.70758 23.4992 10.4504 23.1911 11.0559 22.9244C11.6214 22.6754 11.633 21.8668 11.0747 21.6023C10.4784 21.3198 9.73668 20.9927 8.93326 20.7007C8.65047 20.598 8.43294 20.3812 8.33243 20.0733C7.99378 19.0362 7.77919 18.1568 7.41943 17.2436C7.13906 16.532 6.40307 16.5539 6.1227 17.2655C5.76426 18.1753 5.51403 19.081 5.22566 20.0655Z" fill="url(#paint51_radial_2345_32923)"/>
<path d="M5.22566 20.0655C5.14918 20.3625 4.88948 20.5841 4.5825 20.7376C3.71225 21.0387 3.02487 21.3283 2.45608 21.6095C1.95255 21.8584 1.95741 22.645 2.46257 22.8906C3.05281 23.1776 3.79388 23.4528 4.61691 23.779C4.8382 23.8668 5.15093 24.1146 5.22878 24.4192C5.46868 25.358 5.79506 26.3519 6.15445 27.2693C6.43345 27.9815 7.12319 27.981 7.40355 27.2693C7.76748 26.3455 8.04398 25.3476 8.35604 24.3982C8.43072 24.105 8.65181 23.8732 8.93695 23.7722C9.70758 23.4992 10.4504 23.1911 11.0559 22.9244C11.6214 22.6754 11.633 21.8668 11.0747 21.6023C10.4784 21.3198 9.73668 20.9927 8.93326 20.7007C8.65047 20.598 8.43294 20.3812 8.33243 20.0733C7.99378 19.0362 7.77919 18.1568 7.41943 17.2436C7.13906 16.532 6.40307 16.5539 6.1227 17.2655C5.76426 18.1753 5.51403 19.081 5.22566 20.0655Z" fill="url(#paint52_radial_2345_32923)"/>
<path d="M5.22566 20.0655C5.14918 20.3625 4.88948 20.5841 4.5825 20.7376C3.71225 21.0387 3.02487 21.3283 2.45608 21.6095C1.95255 21.8584 1.95741 22.645 2.46257 22.8906C3.05281 23.1776 3.79388 23.4528 4.61691 23.779C4.8382 23.8668 5.15093 24.1146 5.22878 24.4192C5.46868 25.358 5.79506 26.3519 6.15445 27.2693C6.43345 27.9815 7.12319 27.981 7.40355 27.2693C7.76748 26.3455 8.04398 25.3476 8.35604 24.3982C8.43072 24.105 8.65181 23.8732 8.93695 23.7722C9.70758 23.4992 10.4504 23.1911 11.0559 22.9244C11.6214 22.6754 11.633 21.8668 11.0747 21.6023C10.4784 21.3198 9.73668 20.9927 8.93326 20.7007C8.65047 20.598 8.43294 20.3812 8.33243 20.0733C7.99378 19.0362 7.77919 18.1568 7.41943 17.2436C7.13906 16.532 6.40307 16.5539 6.1227 17.2655C5.76426 18.1753 5.51403 19.081 5.22566 20.0655Z" fill="url(#paint53_radial_2345_32923)"/>
<path d="M5.22566 20.0655C5.14918 20.3625 4.88948 20.5841 4.5825 20.7376C3.71225 21.0387 3.02487 21.3283 2.45608 21.6095C1.95255 21.8584 1.95741 22.645 2.46257 22.8906C3.05281 23.1776 3.79388 23.4528 4.61691 23.779C4.8382 23.8668 5.15093 24.1146 5.22878 24.4192C5.46868 25.358 5.79506 26.3519 6.15445 27.2693C6.43345 27.9815 7.12319 27.981 7.40355 27.2693C7.76748 26.3455 8.04398 25.3476 8.35604 24.3982C8.43072 24.105 8.65181 23.8732 8.93695 23.7722C9.70758 23.4992 10.4504 23.1911 11.0559 22.9244C11.6214 22.6754 11.633 21.8668 11.0747 21.6023C10.4784 21.3198 9.73668 20.9927 8.93326 20.7007C8.65047 20.598 8.43294 20.3812 8.33243 20.0733C7.99378 19.0362 7.77919 18.1568 7.41943 17.2436C7.13906 16.532 6.40307 16.5539 6.1227 17.2655C5.76426 18.1753 5.51403 19.081 5.22566 20.0655Z" fill="url(#paint54_radial_2345_32923)"/>
<path d="M5.22566 20.0655C5.14918 20.3625 4.88948 20.5841 4.5825 20.7376C3.71225 21.0387 3.02487 21.3283 2.45608 21.6095C1.95255 21.8584 1.95741 22.645 2.46257 22.8906C3.05281 23.1776 3.79388 23.4528 4.61691 23.779C4.8382 23.8668 5.15093 24.1146 5.22878 24.4192C5.46868 25.358 5.79506 26.3519 6.15445 27.2693C6.43345 27.9815 7.12319 27.981 7.40355 27.2693C7.76748 26.3455 8.04398 25.3476 8.35604 24.3982C8.43072 24.105 8.65181 23.8732 8.93695 23.7722C9.70758 23.4992 10.4504 23.1911 11.0559 22.9244C11.6214 22.6754 11.633 21.8668 11.0747 21.6023C10.4784 21.3198 9.73668 20.9927 8.93326 20.7007C8.65047 20.598 8.43294 20.3812 8.33243 20.0733C7.99378 19.0362 7.77919 18.1568 7.41943 17.2436C7.13906 16.532 6.40307 16.5539 6.1227 17.2655C5.76426 18.1753 5.51403 19.081 5.22566 20.0655Z" fill="url(#paint55_radial_2345_32923)"/>
<path d="M5.22566 20.0655C5.14918 20.3625 4.88948 20.5841 4.5825 20.7376C3.71225 21.0387 3.02487 21.3283 2.45608 21.6095C1.95255 21.8584 1.95741 22.645 2.46257 22.8906C3.05281 23.1776 3.79388 23.4528 4.61691 23.779C4.8382 23.8668 5.15093 24.1146 5.22878 24.4192C5.46868 25.358 5.79506 26.3519 6.15445 27.2693C6.43345 27.9815 7.12319 27.981 7.40355 27.2693C7.76748 26.3455 8.04398 25.3476 8.35604 24.3982C8.43072 24.105 8.65181 23.8732 8.93695 23.7722C9.70758 23.4992 10.4504 23.1911 11.0559 22.9244C11.6214 22.6754 11.633 21.8668 11.0747 21.6023C10.4784 21.3198 9.73668 20.9927 8.93326 20.7007C8.65047 20.598 8.43294 20.3812 8.33243 20.0733C7.99378 19.0362 7.77919 18.1568 7.41943 17.2436C7.13906 16.532 6.40307 16.5539 6.1227 17.2655C5.76426 18.1753 5.51403 19.081 5.22566 20.0655Z" fill="url(#paint56_radial_2345_32923)"/>
<path d="M5.22566 20.0655C5.14918 20.3625 4.88948 20.5841 4.5825 20.7376C3.71225 21.0387 3.02487 21.3283 2.45608 21.6095C1.95255 21.8584 1.95741 22.645 2.46257 22.8906C3.05281 23.1776 3.79388 23.4528 4.61691 23.779C4.8382 23.8668 5.15093 24.1146 5.22878 24.4192C5.46868 25.358 5.79506 26.3519 6.15445 27.2693C6.43345 27.9815 7.12319 27.981 7.40355 27.2693C7.76748 26.3455 8.04398 25.3476 8.35604 24.3982C8.43072 24.105 8.65181 23.8732 8.93695 23.7722C9.70758 23.4992 10.4504 23.1911 11.0559 22.9244C11.6214 22.6754 11.633 21.8668 11.0747 21.6023C10.4784 21.3198 9.73668 20.9927 8.93326 20.7007C8.65047 20.598 8.43294 20.3812 8.33243 20.0733C7.99378 19.0362 7.77919 18.1568 7.41943 17.2436C7.13906 16.532 6.40307 16.5539 6.1227 17.2655C5.76426 18.1753 5.51403 19.081 5.22566 20.0655Z" fill="url(#paint57_radial_2345_32923)"/>
<path d="M5.22566 20.0655C5.14918 20.3625 4.88948 20.5841 4.5825 20.7376C3.71225 21.0387 3.02487 21.3283 2.45608 21.6095C1.95255 21.8584 1.95741 22.645 2.46257 22.8906C3.05281 23.1776 3.79388 23.4528 4.61691 23.779C4.8382 23.8668 5.15093 24.1146 5.22878 24.4192C5.46868 25.358 5.79506 26.3519 6.15445 27.2693C6.43345 27.9815 7.12319 27.981 7.40355 27.2693C7.76748 26.3455 8.04398 25.3476 8.35604 24.3982C8.43072 24.105 8.65181 23.8732 8.93695 23.7722C9.70758 23.4992 10.4504 23.1911 11.0559 22.9244C11.6214 22.6754 11.633 21.8668 11.0747 21.6023C10.4784 21.3198 9.73668 20.9927 8.93326 20.7007C8.65047 20.598 8.43294 20.3812 8.33243 20.0733C7.99378 19.0362 7.77919 18.1568 7.41943 17.2436C7.13906 16.532 6.40307 16.5539 6.1227 17.2655C5.76426 18.1753 5.51403 19.081 5.22566 20.0655Z" fill="url(#paint58_radial_2345_32923)"/>
<path d="M5.22566 20.0655C5.14918 20.3625 4.88948 20.5841 4.5825 20.7376C3.71225 21.0387 3.02487 21.3283 2.45608 21.6095C1.95255 21.8584 1.95741 22.645 2.46257 22.8906C3.05281 23.1776 3.79388 23.4528 4.61691 23.779C4.8382 23.8668 5.15093 24.1146 5.22878 24.4192C5.46868 25.358 5.79506 26.3519 6.15445 27.2693C6.43345 27.9815 7.12319 27.981 7.40355 27.2693C7.76748 26.3455 8.04398 25.3476 8.35604 24.3982C8.43072 24.105 8.65181 23.8732 8.93695 23.7722C9.70758 23.4992 10.4504 23.1911 11.0559 22.9244C11.6214 22.6754 11.633 21.8668 11.0747 21.6023C10.4784 21.3198 9.73668 20.9927 8.93326 20.7007C8.65047 20.598 8.43294 20.3812 8.33243 20.0733C7.99378 19.0362 7.77919 18.1568 7.41943 17.2436C7.13906 16.532 6.40307 16.5539 6.1227 17.2655C5.76426 18.1753 5.51403 19.081 5.22566 20.0655Z" fill="url(#paint59_radial_2345_32923)"/>
<path d="M5.22566 20.0655C5.14918 20.3625 4.88948 20.5841 4.5825 20.7376C3.71225 21.0387 3.02487 21.3283 2.45608 21.6095C1.95255 21.8584 1.95741 22.645 2.46257 22.8906C3.05281 23.1776 3.79388 23.4528 4.61691 23.779C4.8382 23.8668 5.15093 24.1146 5.22878 24.4192C5.46868 25.358 5.79506 26.3519 6.15445 27.2693C6.43345 27.9815 7.12319 27.981 7.40355 27.2693C7.76748 26.3455 8.04398 25.3476 8.35604 24.3982C8.43072 24.105 8.65181 23.8732 8.93695 23.7722C9.70758 23.4992 10.4504 23.1911 11.0559 22.9244C11.6214 22.6754 11.633 21.8668 11.0747 21.6023C10.4784 21.3198 9.73668 20.9927 8.93326 20.7007C8.65047 20.598 8.43294 20.3812 8.33243 20.0733C7.99378 19.0362 7.77919 18.1568 7.41943 17.2436C7.13906 16.532 6.40307 16.5539 6.1227 17.2655C5.76426 18.1753 5.51403 19.081 5.22566 20.0655Z" fill="url(#paint60_radial_2345_32923)"/>
<path d="M5.22566 20.0655C5.14918 20.3625 4.88948 20.5841 4.5825 20.7376C3.71225 21.0387 3.02487 21.3283 2.45608 21.6095C1.95255 21.8584 1.95741 22.645 2.46257 22.8906C3.05281 23.1776 3.79388 23.4528 4.61691 23.779C4.8382 23.8668 5.15093 24.1146 5.22878 24.4192C5.46868 25.358 5.79506 26.3519 6.15445 27.2693C6.43345 27.9815 7.12319 27.981 7.40355 27.2693C7.76748 26.3455 8.04398 25.3476 8.35604 24.3982C8.43072 24.105 8.65181 23.8732 8.93695 23.7722C9.70758 23.4992 10.4504 23.1911 11.0559 22.9244C11.6214 22.6754 11.633 21.8668 11.0747 21.6023C10.4784 21.3198 9.73668 20.9927 8.93326 20.7007C8.65047 20.598 8.43294 20.3812 8.33243 20.0733C7.99378 19.0362 7.77919 18.1568 7.41943 17.2436C7.13906 16.532 6.40307 16.5539 6.1227 17.2655C5.76426 18.1753 5.51403 19.081 5.22566 20.0655Z" fill="url(#paint61_radial_2345_32923)"/>
<path d="M5.22566 20.0655C5.14918 20.3625 4.88948 20.5841 4.5825 20.7376C3.71225 21.0387 3.02487 21.3283 2.45608 21.6095C1.95255 21.8584 1.95741 22.645 2.46257 22.8906C3.05281 23.1776 3.79388 23.4528 4.61691 23.779C4.8382 23.8668 5.15093 24.1146 5.22878 24.4192C5.46868 25.358 5.79506 26.3519 6.15445 27.2693C6.43345 27.9815 7.12319 27.981 7.40355 27.2693C7.76748 26.3455 8.04398 25.3476 8.35604 24.3982C8.43072 24.105 8.65181 23.8732 8.93695 23.7722C9.70758 23.4992 10.4504 23.1911 11.0559 22.9244C11.6214 22.6754 11.633 21.8668 11.0747 21.6023C10.4784 21.3198 9.73668 20.9927 8.93326 20.7007C8.65047 20.598 8.43294 20.3812 8.33243 20.0733C7.99378 19.0362 7.77919 18.1568 7.41943 17.2436C7.13906 16.532 6.40307 16.5539 6.1227 17.2655C5.76426 18.1753 5.51403 19.081 5.22566 20.0655Z" fill="url(#paint62_radial_2345_32923)"/>
<path d="M5.22566 20.0655C5.14918 20.3625 4.88948 20.5841 4.5825 20.7376C3.71225 21.0387 3.02487 21.3283 2.45608 21.6095C1.95255 21.8584 1.95741 22.645 2.46257 22.8906C3.05281 23.1776 3.79388 23.4528 4.61691 23.779C4.8382 23.8668 5.15093 24.1146 5.22878 24.4192C5.46868 25.358 5.79506 26.3519 6.15445 27.2693C6.43345 27.9815 7.12319 27.981 7.40355 27.2693C7.76748 26.3455 8.04398 25.3476 8.35604 24.3982C8.43072 24.105 8.65181 23.8732 8.93695 23.7722C9.70758 23.4992 10.4504 23.1911 11.0559 22.9244C11.6214 22.6754 11.633 21.8668 11.0747 21.6023C10.4784 21.3198 9.73668 20.9927 8.93326 20.7007C8.65047 20.598 8.43294 20.3812 8.33243 20.0733C7.99378 19.0362 7.77919 18.1568 7.41943 17.2436C7.13906 16.532 6.40307 16.5539 6.1227 17.2655C5.76426 18.1753 5.51403 19.081 5.22566 20.0655Z" fill="url(#paint63_radial_2345_32923)"/>
<path d="M5.22566 20.0655C5.14918 20.3625 4.88948 20.5841 4.5825 20.7376C3.71225 21.0387 3.02487 21.3283 2.45608 21.6095C1.95255 21.8584 1.95741 22.645 2.46257 22.8906C3.05281 23.1776 3.79388 23.4528 4.61691 23.779C4.8382 23.8668 5.15093 24.1146 5.22878 24.4192C5.46868 25.358 5.79506 26.3519 6.15445 27.2693C6.43345 27.9815 7.12319 27.981 7.40355 27.2693C7.76748 26.3455 8.04398 25.3476 8.35604 24.3982C8.43072 24.105 8.65181 23.8732 8.93695 23.7722C9.70758 23.4992 10.4504 23.1911 11.0559 22.9244C11.6214 22.6754 11.633 21.8668 11.0747 21.6023C10.4784 21.3198 9.73668 20.9927 8.93326 20.7007C8.65047 20.598 8.43294 20.3812 8.33243 20.0733C7.99378 19.0362 7.77919 18.1568 7.41943 17.2436C7.13906 16.532 6.40307 16.5539 6.1227 17.2655C5.76426 18.1753 5.51403 19.081 5.22566 20.0655Z" fill="url(#paint64_radial_2345_32923)"/>
<path d="M5.22566 20.0655C5.14918 20.3625 4.88948 20.5841 4.5825 20.7376C3.71225 21.0387 3.02487 21.3283 2.45608 21.6095C1.95255 21.8584 1.95741 22.645 2.46257 22.8906C3.05281 23.1776 3.79388 23.4528 4.61691 23.779C4.8382 23.8668 5.15093 24.1146 5.22878 24.4192C5.46868 25.358 5.79506 26.3519 6.15445 27.2693C6.43345 27.9815 7.12319 27.981 7.40355 27.2693C7.76748 26.3455 8.04398 25.3476 8.35604 24.3982C8.43072 24.105 8.65181 23.8732 8.93695 23.7722C9.70758 23.4992 10.4504 23.1911 11.0559 22.9244C11.6214 22.6754 11.633 21.8668 11.0747 21.6023C10.4784 21.3198 9.73668 20.9927 8.93326 20.7007C8.65047 20.598 8.43294 20.3812 8.33243 20.0733C7.99378 19.0362 7.77919 18.1568 7.41943 17.2436C7.13906 16.532 6.40307 16.5539 6.1227 17.2655C5.76426 18.1753 5.51403 19.081 5.22566 20.0655Z" fill="url(#paint65_radial_2345_32923)"/>
<path d="M5.22566 20.0655C5.14918 20.3625 4.88948 20.5841 4.5825 20.7376C3.71225 21.0387 3.02487 21.3283 2.45608 21.6095C1.95255 21.8584 1.95741 22.645 2.46257 22.8906C3.05281 23.1776 3.79388 23.4528 4.61691 23.779C4.8382 23.8668 5.15093 24.1146 5.22878 24.4192C5.46868 25.358 5.79506 26.3519 6.15445 27.2693C6.43345 27.9815 7.12319 27.981 7.40355 27.2693C7.76748 26.3455 8.04398 25.3476 8.35604 24.3982C8.43072 24.105 8.65181 23.8732 8.93695 23.7722C9.70758 23.4992 10.4504 23.1911 11.0559 22.9244C11.6214 22.6754 11.633 21.8668 11.0747 21.6023C10.4784 21.3198 9.73668 20.9927 8.93326 20.7007C8.65047 20.598 8.43294 20.3812 8.33243 20.0733C7.99378 19.0362 7.77919 18.1568 7.41943 17.2436C7.13906 16.532 6.40307 16.5539 6.1227 17.2655C5.76426 18.1753 5.51403 19.081 5.22566 20.0655Z" fill="url(#paint66_radial_2345_32923)"/>
<path d="M5.22566 20.0655C5.14918 20.3625 4.88948 20.5841 4.5825 20.7376C3.71225 21.0387 3.02487 21.3283 2.45608 21.6095C1.95255 21.8584 1.95741 22.645 2.46257 22.8906C3.05281 23.1776 3.79388 23.4528 4.61691 23.779C4.8382 23.8668 5.15093 24.1146 5.22878 24.4192C5.46868 25.358 5.79506 26.3519 6.15445 27.2693C6.43345 27.9815 7.12319 27.981 7.40355 27.2693C7.76748 26.3455 8.04398 25.3476 8.35604 24.3982C8.43072 24.105 8.65181 23.8732 8.93695 23.7722C9.70758 23.4992 10.4504 23.1911 11.0559 22.9244C11.6214 22.6754 11.633 21.8668 11.0747 21.6023C10.4784 21.3198 9.73668 20.9927 8.93326 20.7007C8.65047 20.598 8.43294 20.3812 8.33243 20.0733C7.99378 19.0362 7.77919 18.1568 7.41943 17.2436C7.13906 16.532 6.40307 16.5539 6.1227 17.2655C5.76426 18.1753 5.51403 19.081 5.22566 20.0655Z" fill="url(#paint67_radial_2345_32923)" fill-opacity="0.5"/>
<path d="M5.22566 20.0655C5.14918 20.3625 4.88948 20.5841 4.5825 20.7376C3.71225 21.0387 3.02487 21.3283 2.45608 21.6095C1.95255 21.8584 1.95741 22.645 2.46257 22.8906C3.05281 23.1776 3.79388 23.4528 4.61691 23.779C4.8382 23.8668 5.15093 24.1146 5.22878 24.4192C5.46868 25.358 5.79506 26.3519 6.15445 27.2693C6.43345 27.9815 7.12319 27.981 7.40355 27.2693C7.76748 26.3455 8.04398 25.3476 8.35604 24.3982C8.43072 24.105 8.65181 23.8732 8.93695 23.7722C9.70758 23.4992 10.4504 23.1911 11.0559 22.9244C11.6214 22.6754 11.633 21.8668 11.0747 21.6023C10.4784 21.3198 9.73668 20.9927 8.93326 20.7007C8.65047 20.598 8.43294 20.3812 8.33243 20.0733C7.99378 19.0362 7.77919 18.1568 7.41943 17.2436C7.13906 16.532 6.40307 16.5539 6.1227 17.2655C5.76426 18.1753 5.51403 19.081 5.22566 20.0655Z" fill="url(#paint68_radial_2345_32923)" fill-opacity="0.5"/>
<path d="M5.22566 20.0655C5.14918 20.3625 4.88948 20.5841 4.5825 20.7376C3.71225 21.0387 3.02487 21.3283 2.45608 21.6095C1.95255 21.8584 1.95741 22.645 2.46257 22.8906C3.05281 23.1776 3.79388 23.4528 4.61691 23.779C4.8382 23.8668 5.15093 24.1146 5.22878 24.4192C5.46868 25.358 5.79506 26.3519 6.15445 27.2693C6.43345 27.9815 7.12319 27.981 7.40355 27.2693C7.76748 26.3455 8.04398 25.3476 8.35604 24.3982C8.43072 24.105 8.65181 23.8732 8.93695 23.7722C9.70758 23.4992 10.4504 23.1911 11.0559 22.9244C11.6214 22.6754 11.633 21.8668 11.0747 21.6023C10.4784 21.3198 9.73668 20.9927 8.93326 20.7007C8.65047 20.598 8.43294 20.3812 8.33243 20.0733C7.99378 19.0362 7.77919 18.1568 7.41943 17.2436C7.13906 16.532 6.40307 16.5539 6.1227 17.2655C5.76426 18.1753 5.51403 19.081 5.22566 20.0655Z" fill="url(#paint69_radial_2345_32923)" fill-opacity="0.5"/>
<path d="M5.22566 20.0655C5.14918 20.3625 4.88948 20.5841 4.5825 20.7376C3.71225 21.0387 3.02487 21.3283 2.45608 21.6095C1.95255 21.8584 1.95741 22.645 2.46257 22.8906C3.05281 23.1776 3.79388 23.4528 4.61691 23.779C4.8382 23.8668 5.15093 24.1146 5.22878 24.4192C5.46868 25.358 5.79506 26.3519 6.15445 27.2693C6.43345 27.9815 7.12319 27.981 7.40355 27.2693C7.76748 26.3455 8.04398 25.3476 8.35604 24.3982C8.43072 24.105 8.65181 23.8732 8.93695 23.7722C9.70758 23.4992 10.4504 23.1911 11.0559 22.9244C11.6214 22.6754 11.633 21.8668 11.0747 21.6023C10.4784 21.3198 9.73668 20.9927 8.93326 20.7007C8.65047 20.598 8.43294 20.3812 8.33243 20.0733C7.99378 19.0362 7.77919 18.1568 7.41943 17.2436C7.13906 16.532 6.40307 16.5539 6.1227 17.2655C5.76426 18.1753 5.51403 19.081 5.22566 20.0655Z" fill="url(#paint70_radial_2345_32923)" fill-opacity="0.5"/>
<path d="M5.22566 20.0655C5.14918 20.3625 4.88948 20.5841 4.5825 20.7376C3.71225 21.0387 3.02487 21.3283 2.45608 21.6095C1.95255 21.8584 1.95741 22.645 2.46257 22.8906C3.05281 23.1776 3.79388 23.4528 4.61691 23.779C4.8382 23.8668 5.15093 24.1146 5.22878 24.4192C5.46868 25.358 5.79506 26.3519 6.15445 27.2693C6.43345 27.9815 7.12319 27.981 7.40355 27.2693C7.76748 26.3455 8.04398 25.3476 8.35604 24.3982C8.43072 24.105 8.65181 23.8732 8.93695 23.7722C9.70758 23.4992 10.4504 23.1911 11.0559 22.9244C11.6214 22.6754 11.633 21.8668 11.0747 21.6023C10.4784 21.3198 9.73668 20.9927 8.93326 20.7007C8.65047 20.598 8.43294 20.3812 8.33243 20.0733C7.99378 19.0362 7.77919 18.1568 7.41943 17.2436C7.13906 16.532 6.40307 16.5539 6.1227 17.2655C5.76426 18.1753 5.51403 19.081 5.22566 20.0655Z" fill="url(#paint71_radial_2345_32923)" fill-opacity="0.5"/>
<path d="M5.22566 20.0655C5.14918 20.3625 4.88948 20.5841 4.5825 20.7376C3.71225 21.0387 3.02487 21.3283 2.45608 21.6095C1.95255 21.8584 1.95741 22.645 2.46257 22.8906C3.05281 23.1776 3.79388 23.4528 4.61691 23.779C4.8382 23.8668 5.15093 24.1146 5.22878 24.4192C5.46868 25.358 5.79506 26.3519 6.15445 27.2693C6.43345 27.9815 7.12319 27.981 7.40355 27.2693C7.76748 26.3455 8.04398 25.3476 8.35604 24.3982C8.43072 24.105 8.65181 23.8732 8.93695 23.7722C9.70758 23.4992 10.4504 23.1911 11.0559 22.9244C11.6214 22.6754 11.633 21.8668 11.0747 21.6023C10.4784 21.3198 9.73668 20.9927 8.93326 20.7007C8.65047 20.598 8.43294 20.3812 8.33243 20.0733C7.99378 19.0362 7.77919 18.1568 7.41943 17.2436C7.13906 16.532 6.40307 16.5539 6.1227 17.2655C5.76426 18.1753 5.51403 19.081 5.22566 20.0655Z" fill="url(#paint72_radial_2345_32923)" fill-opacity="0.5"/>
</g>
<defs>
<linearGradient id="paint0_linear_2345_32923" x1="26.1284" y1="11.2711" x2="15.0522" y2="22.9312" gradientUnits="userSpaceOnUse">
<stop stop-color="#FFCF5A"/>
<stop offset="1" stop-color="#FEA254"/>
</linearGradient>
<linearGradient id="paint1_linear_2345_32923" x1="14.7535" y1="29.2901" x2="20.7914" y2="16.5539" gradientUnits="userSpaceOnUse">
<stop stop-color="#FF886D"/>
<stop offset="1" stop-color="#FF886D" stop-opacity="0"/>
</linearGradient>
<radialGradient id="paint2_radial_2345_32923" cx="0" cy="0" r="1" gradientUnits="userSpaceOnUse" gradientTransform="translate(26.5489 19.3222) rotate(-110.523) scale(2.49706 7.02805)">
<stop stop-color="#EF7B54"/>
<stop offset="0.746285" stop-color="#EF7B54" stop-opacity="0.131386"/>
<stop offset="1" stop-color="#EF7B54" stop-opacity="0"/>
</radialGradient>
<radialGradient id="paint3_radial_2345_32923" cx="0" cy="0" r="1" gradientUnits="userSpaceOnUse" gradientTransform="translate(17.1761 25.6659) rotate(-19.6611) scale(1.66876 8.64514)">
<stop stop-color="#EF7B54"/>
<stop offset="0.501931" stop-color="#EF7B54" stop-opacity="0.462921"/>
<stop offset="0.802968" stop-color="#EF7B54" stop-opacity="0.131386"/>
<stop offset="1" stop-color="#EF7B54" stop-opacity="0"/>
</radialGradient>
<radialGradient id="paint4_radial_2345_32923" cx="0" cy="0" r="1" gradientUnits="userSpaceOnUse" gradientTransform="translate(15.2148 20.4667) rotate(-41.9334) scale(1.15302 2.14921)">
<stop stop-color="#EF7B54"/>
<stop offset="0.501931" stop-color="#EF7B54" stop-opacity="0.462921"/>
<stop offset="0.802968" stop-color="#EF7B54" stop-opacity="0.131386"/>
<stop offset="1" stop-color="#EF7B54" stop-opacity="0"/>
</radialGradient>
<radialGradient id="paint5_radial_2345_32923" cx="0" cy="0" r="1" gradientUnits="userSpaceOnUse" gradientTransform="translate(12.9437 18.8302) rotate(-68.9625) scale(0.563903 2.82183)">
<stop stop-color="#EF7B54"/>
<stop offset="0.501931" stop-color="#EF7B54" stop-opacity="0.462921"/>
<stop offset="1" stop-color="#EF7B54" stop-opacity="0"/>
</radialGradient>
<radialGradient id="paint6_radial_2345_32923" cx="0" cy="0" r="1" gradientUnits="userSpaceOnUse" gradientTransform="translate(17.1645 24.7062) rotate(-15.0685) scale(0.567359 4.13976)">
<stop stop-color="#EF7B54"/>
<stop offset="0.501931" stop-color="#EF7B54" stop-opacity="0.462921"/>
<stop offset="1" stop-color="#EF7B54" stop-opacity="0"/>
</radialGradient>
<radialGradient id="paint7_radial_2345_32923" cx="0" cy="0" r="1" gradientUnits="userSpaceOnUse" gradientTransform="translate(11.8834 18.8175) rotate(-61.9908) scale(1.77057 6.32284)">
<stop stop-color="#EF7B54"/>
<stop offset="0.501931" stop-color="#EF7B54" stop-opacity="0.462921"/>
<stop offset="0.802968" stop-color="#EF7B54" stop-opacity="0.131386"/>
<stop offset="1" stop-color="#EF7B54" stop-opacity="0"/>
</radialGradient>
<radialGradient id="paint8_radial_2345_32923" cx="0" cy="0" r="1" gradientUnits="userSpaceOnUse" gradientTransform="translate(18.847 28.4019) rotate(-75.1414) scale(1.42889 9.7946)">
<stop stop-color="#EF7B54"/>
<stop offset="0.501931" stop-color="#EF7B54" stop-opacity="0.462921"/>
<stop offset="0.802968" stop-color="#EF7B54" stop-opacity="0.131386"/>
<stop offset="1" stop-color="#EF7B54" stop-opacity="0"/>
</radialGradient>
<radialGradient id="paint9_radial_2345_32923" cx="0" cy="0" r="1" gradientUnits="userSpaceOnUse" gradientTransform="translate(11.7518 13.4272) rotate(68.4265) scale(0.865238 4.10798)">
<stop stop-color="#EF7B54"/>
<stop offset="0.501931" stop-color="#EF7B54" stop-opacity="0.462921"/>
<stop offset="0.802968" stop-color="#EF7B54" stop-opacity="0.131386"/>
<stop offset="1" stop-color="#EF7B54" stop-opacity="0"/>
</radialGradient>
<radialGradient id="paint10_radial_2345_32923" cx="0" cy="0" r="1" gradientUnits="userSpaceOnUse" gradientTransform="translate(14.9022 11.6228) rotate(45.4815) scale(1.19868 1.59564)">
<stop stop-color="#EF7B54"/>
<stop offset="0.501931" stop-color="#EF7B54" stop-opacity="0.462921"/>
<stop offset="0.802968" stop-color="#EF7B54" stop-opacity="0.131386"/>
<stop offset="1" stop-color="#EF7B54" stop-opacity="0"/>
</radialGradient>
<radialGradient id="paint11_radial_2345_32923" cx="0" cy="0" r="1" gradientUnits="userSpaceOnUse" gradientTransform="translate(16.1358 8.82764) rotate(15.5241) scale(0.895235 4.02167)">
<stop stop-color="#EF7B54"/>
<stop offset="0.501931" stop-color="#EF7B54" stop-opacity="0.462921"/>
<stop offset="0.802968" stop-color="#EF7B54" stop-opacity="0.131386"/>
<stop offset="1" stop-color="#EF7B54" stop-opacity="0"/>
</radialGradient>
<radialGradient id="paint12_radial_2345_32923" cx="0" cy="0" r="1" gradientUnits="userSpaceOnUse" gradientTransform="translate(17.1757 5.54075) rotate(11.3099) scale(0.87218 3.9181)">
<stop stop-color="#EF7B54"/>
<stop offset="0.501931" stop-color="#EF7B54" stop-opacity="0.462921"/>
<stop offset="0.802968" stop-color="#EF7B54" stop-opacity="0.131386"/>
<stop offset="1" stop-color="#EF7B54" stop-opacity="0"/>
</radialGradient>
<radialGradient id="paint13_radial_2345_32923" cx="0" cy="0" r="1" gradientUnits="userSpaceOnUse" gradientTransform="translate(18.0733 3.83248) rotate(28.8649) scale(0.81033 3.64025)">
<stop stop-color="#EF7B54"/>
<stop offset="0.451537" stop-color="#EF7B54" stop-opacity="0.462921"/>
<stop offset="0.716342" stop-color="#EF7B54" stop-opacity="0.131386"/>
<stop offset="1" stop-color="#EF7B54" stop-opacity="0"/>
</radialGradient>
<radialGradient id="paint14_radial_2345_32923" cx="0" cy="0" r="1" gradientUnits="userSpaceOnUse" gradientTransform="translate(9.15601 14.824) rotate(36.0736) scale(1.06807 4.79811)">
<stop stop-color="#EF7B54"/>
<stop offset="0.451537" stop-color="#EF7B54" stop-opacity="0.462921"/>
<stop offset="0.716342" stop-color="#EF7B54" stop-opacity="0.131386"/>
<stop offset="1" stop-color="#EF7B54" stop-opacity="0"/>
</radialGradient>
<radialGradient id="paint15_radial_2345_32923" cx="0" cy="0" r="1" gradientUnits="userSpaceOnUse" gradientTransform="translate(8.79344 15.5273) scale(1.05033 4.7184)">
<stop stop-color="#EF7B54"/>
<stop offset="0.451537" stop-color="#EF7B54" stop-opacity="0.462921"/>
<stop offset="0.716342" stop-color="#EF7B54" stop-opacity="0.131386"/>
<stop offset="1" stop-color="#EF7B54" stop-opacity="0"/>
</radialGradient>
<radialGradient id="paint16_radial_2345_32923" cx="0" cy="0" r="1" gradientUnits="userSpaceOnUse" gradientTransform="translate(11.5834 13.0946) rotate(68.9625) scale(2.12684 6.08327)">
<stop stop-color="#BC9D6A"/>
<stop offset="0.767589" stop-color="#BC9D6A" stop-opacity="0.127511"/>
<stop offset="1" stop-color="#BC9D6A" stop-opacity="0"/>
</radialGradient>
<radialGradient id="paint17_radial_2345_32923" cx="0" cy="0" r="1" gradientUnits="userSpaceOnUse" gradientTransform="translate(16.3989 7.9809) rotate(20.4687) scale(1.80604 5.26315)">
<stop stop-color="#BC9D6A"/>
<stop offset="0.767589" stop-color="#BC9D6A" stop-opacity="0.127511"/>
<stop offset="1" stop-color="#BC9D6A" stop-opacity="0"/>
</radialGradient>
<radialGradient id="paint18_radial_2345_32923" cx="0" cy="0" r="1" gradientUnits="userSpaceOnUse" gradientTransform="translate(15.0733 10.3097) rotate(17.1619) scale(2.54976 3.96173)">
<stop stop-color="#BC9D6A"/>
<stop offset="0.767589" stop-color="#BC9D6A" stop-opacity="0.127511"/>
<stop offset="1" stop-color="#BC9D6A" stop-opacity="0"/>
</radialGradient>
<radialGradient id="paint19_radial_2345_32923" cx="0" cy="0" r="1" gradientUnits="userSpaceOnUse" gradientTransform="translate(18.1962 3.47973) rotate(28.7896) scale(1.39909 6.2345)">
<stop stop-color="#BC9D6A" stop-opacity="0.85"/>
<stop offset="0.760417" stop-color="#BC9D6A" stop-opacity="0.127511"/>
<stop offset="1" stop-color="#BC9D6A" stop-opacity="0"/>
</radialGradient>
<radialGradient id="paint20_radial_2345_32923" cx="0" cy="0" r="1" gradientUnits="userSpaceOnUse" gradientTransform="translate(19.6018 2.9922) rotate(85.1355) scale(1.37588 6.13108)">
<stop stop-color="#BC9D6A" stop-opacity="0.85"/>
<stop offset="0.810204" stop-color="#BC9D6A" stop-opacity="0.127511"/>
<stop offset="1" stop-color="#BC9D6A" stop-opacity="0"/>
</radialGradient>
<radialGradient id="paint21_radial_2345_32923" cx="0" cy="0" r="1" gradientUnits="userSpaceOnUse" gradientTransform="translate(9.0372 14.7868) rotate(36.9715) scale(1.2641 3.61564)">
<stop stop-color="#BC9D6A"/>
<stop offset="0.188174" stop-color="#BC9D6A" stop-opacity="0.508864"/>
<stop offset="0.703125" stop-color="#BC9D6A" stop-opacity="0.127511"/>
<stop offset="1" stop-color="#BC9D6A" stop-opacity="0"/>
</radialGradient>
<radialGradient id="paint22_radial_2345_32923" cx="0" cy="0" r="1" gradientUnits="userSpaceOnUse" gradientTransform="translate(8.41541 15.9544) rotate(-1.75033) scale(1.31473 3.76043)">
<stop stop-color="#BC9D6A"/>
<stop offset="0.244792" stop-color="#BC9D6A" stop-opacity="0.508864"/>
<stop offset="0.727949" stop-color="#BC9D6A" stop-opacity="0.127511"/>
<stop offset="1" stop-color="#BC9D6A" stop-opacity="0"/>
</radialGradient>
<radialGradient id="paint23_radial_2345_32923" cx="0" cy="0" r="1" gradientUnits="userSpaceOnUse" gradientTransform="translate(8.99837 17.4123) rotate(-45.971) scale(1.12902 7.57501)">
<stop stop-color="#BC9D6A"/>
<stop offset="0.244792" stop-color="#BC9D6A" stop-opacity="0.508864"/>
<stop offset="0.727949" stop-color="#BC9D6A" stop-opacity="0.127511"/>
<stop offset="1" stop-color="#BC9D6A" stop-opacity="0"/>
</radialGradient>
<radialGradient id="paint24_radial_2345_32923" cx="0" cy="0" r="1" gradientUnits="userSpaceOnUse" gradientTransform="translate(22.878 10.7339) rotate(155.008) scale(1.93085 4.02613)">
<stop stop-color="#FFE675"/>
<stop offset="0.65382" stop-color="#FFE675" stop-opacity="0.185004"/>
<stop offset="0.813038" stop-color="#FFE675" stop-opacity="0.107811"/>
<stop offset="1" stop-color="#FFE675" stop-opacity="0"/>
</radialGradient>
<radialGradient id="paint25_radial_2345_32923" cx="0" cy="0" r="1" gradientUnits="userSpaceOnUse" gradientTransform="translate(24.5227 12.4416) rotate(117.168) scale(1.5951 3.45911)">
<stop stop-color="#FFE675"/>
<stop offset="0.6685" stop-color="#FFE675" stop-opacity="0.185004"/>
<stop offset="0.831795" stop-color="#FFE675" stop-opacity="0.0637278"/>
<stop offset="1" stop-color="#FFE675" stop-opacity="0"/>
</radialGradient>
<radialGradient id="paint26_radial_2345_32923" cx="0" cy="0" r="1" gradientUnits="userSpaceOnUse" gradientTransform="translate(28.1774 14.0659) rotate(113.405) scale(1.74388 4.45609)">
<stop stop-color="#FFE675"/>
<stop offset="0.721175" stop-color="#FFE675" stop-opacity="0.185004"/>
<stop offset="1" stop-color="#FFE675" stop-opacity="0"/>
</radialGradient>
<radialGradient id="paint27_radial_2345_32923" cx="0" cy="0" r="1" gradientUnits="userSpaceOnUse" gradientTransform="translate(29.7867 15.0817) rotate(154.938) scale(1.643 4.19831)">
<stop stop-color="#FFE675"/>
<stop offset="0.721175" stop-color="#FFE675" stop-opacity="0.185004"/>
<stop offset="1" stop-color="#FFE675" stop-opacity="0"/>
</radialGradient>
<radialGradient id="paint28_radial_2345_32923" cx="0" cy="0" r="1" gradientUnits="userSpaceOnUse" gradientTransform="translate(21.5961 7.14473) rotate(165.272) scale(1.41611 6.10797)">
<stop offset="0.131615" stop-color="#FFE675"/>
<stop offset="0.665228" stop-color="#FFE675" stop-opacity="0.185004"/>
<stop offset="0.813948" stop-color="#FFE675" stop-opacity="0.0520478"/>
<stop offset="1" stop-color="#FFE675" stop-opacity="0"/>
</radialGradient>
<radialGradient id="paint29_radial_2345_32923" cx="0" cy="0" r="1" gradientUnits="userSpaceOnUse" gradientTransform="translate(20.6321 4.48615) rotate(147.095) scale(1.38946 5.993)">
<stop offset="0.164689" stop-color="#FFE675"/>
<stop offset="0.719375" stop-color="#FFE675" stop-opacity="0.185004"/>
<stop offset="1" stop-color="#FFE675" stop-opacity="0"/>
</radialGradient>
<linearGradient id="paint30_linear_2345_32923" x1="11.0853" y1="5.8698" x2="7.52035" y2="9.62269" gradientUnits="userSpaceOnUse">
<stop stop-color="#FFDA72"/>
<stop offset="1" stop-color="#F7A967"/>
</linearGradient>
<linearGradient id="paint31_linear_2345_32923" x1="8.88525" y1="11.9806" x2="8.88525" y2="7.85563" gradientUnits="userSpaceOnUse">
<stop stop-color="#FDA071"/>
<stop offset="1" stop-color="#FDA071" stop-opacity="0"/>
</linearGradient>
<radialGradient id="paint32_radial_2345_32923" cx="0" cy="0" r="1" gradientUnits="userSpaceOnUse" gradientTransform="translate(11.3976 8.75309) rotate(-113.707) scale(1.14096 2.60985)">
<stop stop-color="#EF7B54"/>
<stop offset="0.746285" stop-color="#EF7B54" stop-opacity="0.131386"/>
<stop offset="1" stop-color="#EF7B54" stop-opacity="0"/>
</radialGradient>
<radialGradient id="paint33_radial_2345_32923" cx="0" cy="0" r="1" gradientUnits="userSpaceOnUse" gradientTransform="translate(7.8822 10.7972) rotate(-24.6417) scale(1.42073 4.06592)">
<stop stop-color="#EF7B54"/>
<stop offset="0.501931" stop-color="#EF7B54" stop-opacity="0.462921"/>
<stop offset="0.802968" stop-color="#EF7B54" stop-opacity="0.131386"/>
<stop offset="1" stop-color="#EF7B54" stop-opacity="0"/>
</radialGradient>
<radialGradient id="paint34_radial_2345_32923" cx="0" cy="0" r="1" gradientUnits="userSpaceOnUse" gradientTransform="translate(5.7854 6.55559) rotate(21.5226) scale(3.51898 5.29705)">
<stop stop-color="#CD9943" stop-opacity="0.71"/>
<stop offset="0.801992" stop-color="#CD9943" stop-opacity="0.127511"/>
<stop offset="1" stop-color="#CD9943" stop-opacity="0"/>
</radialGradient>
<radialGradient id="paint35_radial_2345_32923" cx="0" cy="0" r="1" gradientUnits="userSpaceOnUse" gradientTransform="translate(6.2952 8.53596) rotate(-50.3009) scale(2.27173 4.86439)">
<stop stop-color="#CD9943" stop-opacity="0.79"/>
<stop offset="0.767589" stop-color="#CD9943" stop-opacity="0.127511"/>
<stop offset="1" stop-color="#CD9943" stop-opacity="0"/>
</radialGradient>
<radialGradient id="paint36_radial_2345_32923" cx="0" cy="0" r="1" gradientUnits="userSpaceOnUse" gradientTransform="translate(7.30161 4.76441) rotate(13.4957) scale(1.79638 3.31519)">
<stop stop-color="#CD9943"/>
<stop offset="0.767589" stop-color="#CD9943" stop-opacity="0.127511"/>
<stop offset="1" stop-color="#CD9943" stop-opacity="0"/>
</radialGradient>
<radialGradient id="paint37_radial_2345_32923" cx="0" cy="0" r="1" gradientUnits="userSpaceOnUse" gradientTransform="translate(8.4663 3.11004) rotate(41.9335) scale(0.987703 4.40133)">
<stop stop-color="#CD9943" stop-opacity="0.85"/>
<stop offset="0.760417" stop-color="#CD9943" stop-opacity="0.127511"/>
<stop offset="1" stop-color="#CD9943" stop-opacity="0"/>
</radialGradient>
<radialGradient id="paint38_radial_2345_32923" cx="0" cy="0" r="1" gradientUnits="userSpaceOnUse" gradientTransform="translate(10.0391 5.69689) rotate(155.008) scale(0.621458 1.29584)">
<stop stop-color="#FFE675"/>
<stop offset="0.65382" stop-color="#FFE675" stop-opacity="0.185004"/>
<stop offset="0.813038" stop-color="#FFE675" stop-opacity="0.107811"/>
<stop offset="1" stop-color="#FFE675" stop-opacity="0"/>
</radialGradient>
<radialGradient id="paint39_radial_2345_32923" cx="0" cy="0" r="1" gradientUnits="userSpaceOnUse" gradientTransform="translate(10.5685 6.24655) rotate(117.168) scale(0.513395 1.11334)">
<stop stop-color="#FFE675"/>
<stop offset="0.6685" stop-color="#FFE675" stop-opacity="0.185004"/>
<stop offset="0.831795" stop-color="#FFE675" stop-opacity="0.0637278"/>
<stop offset="1" stop-color="#FFE675" stop-opacity="0"/>
</radialGradient>
<radialGradient id="paint40_radial_2345_32923" cx="0" cy="0" r="1" gradientUnits="userSpaceOnUse" gradientTransform="translate(11.7448 6.76933) rotate(113.405) scale(0.561281 1.43422)">
<stop stop-color="#FFE675"/>
<stop offset="0.721175" stop-color="#FFE675" stop-opacity="0.185004"/>
<stop offset="1" stop-color="#FFE675" stop-opacity="0"/>
</radialGradient>
<radialGradient id="paint41_radial_2345_32923" cx="0" cy="0" r="1" gradientUnits="userSpaceOnUse" gradientTransform="translate(12.2628 7.09627) rotate(154.938) scale(0.528811 1.35125)">
<stop stop-color="#FFE675"/>
<stop offset="0.721175" stop-color="#FFE675" stop-opacity="0.185004"/>
<stop offset="1" stop-color="#FFE675" stop-opacity="0"/>
</radialGradient>
<radialGradient id="paint42_radial_2345_32923" cx="0" cy="0" r="1" gradientUnits="userSpaceOnUse" gradientTransform="translate(9.62657 4.5417) rotate(165.272) scale(0.455786 1.96589)">
<stop offset="0.131615" stop-color="#FFE675"/>
<stop offset="0.665228" stop-color="#FFE675" stop-opacity="0.185004"/>
<stop offset="0.813948" stop-color="#FFE675" stop-opacity="0.0520478"/>
<stop offset="1" stop-color="#FFE675" stop-opacity="0"/>
</radialGradient>
<radialGradient id="paint43_radial_2345_32923" cx="0" cy="0" r="1" gradientUnits="userSpaceOnUse" gradientTransform="translate(9.31628 3.68602) rotate(147.095) scale(0.447206 1.92889)">
<stop offset="0.164689" stop-color="#FFE675"/>
<stop offset="0.719375" stop-color="#FFE675" stop-opacity="0.185004"/>
<stop offset="1" stop-color="#FFE675" stop-opacity="0"/>
</radialGradient>
<radialGradient id="paint44_radial_2345_32923" cx="0" cy="0" r="1" gradientUnits="userSpaceOnUse" gradientTransform="translate(10.0132 18.5669) rotate(127.221) scale(7.07598 6.89067)">
<stop offset="0.364601" stop-color="#FFBC64"/>
<stop offset="1" stop-color="#FF8F6B"/>
</radialGradient>
<radialGradient id="paint45_radial_2345_32923" cx="0" cy="0" r="1" gradientUnits="userSpaceOnUse" gradientTransform="translate(10.0405 23.7531) rotate(-110.523) scale(1.12072 3.14982)">
<stop stop-color="#FF7576"/>
<stop offset="0.746285" stop-color="#FF7576" stop-opacity="0.131386"/>
<stop offset="1" stop-color="#FF7576" stop-opacity="0"/>
</radialGradient>
<radialGradient id="paint46_radial_2345_32923" cx="0" cy="0" r="1" gradientUnits="userSpaceOnUse" gradientTransform="translate(5.8339 26.6003) rotate(-16.7267) scale(0.870907 4.51179)">
<stop stop-color="#FF7576"/>
<stop offset="0.501931" stop-color="#FF7576" stop-opacity="0.462921"/>
<stop offset="0.802968" stop-color="#FF7576" stop-opacity="0.131386"/>
<stop offset="1" stop-color="#FF7576" stop-opacity="0"/>
</radialGradient>
<radialGradient id="paint47_radial_2345_32923" cx="0" cy="0" r="1" gradientUnits="userSpaceOnUse" gradientTransform="translate(4.95363 24.2668) rotate(-39.7418) scale(0.624386 1.16384)">
<stop stop-color="#FF7576"/>
<stop offset="0.501931" stop-color="#FF7576" stop-opacity="0.462921"/>
<stop offset="0.802968" stop-color="#FF7576" stop-opacity="0.131386"/>
<stop offset="1" stop-color="#FF7576" stop-opacity="0"/>
</radialGradient>
<radialGradient id="paint48_radial_2345_32923" cx="0" cy="0" r="1" gradientUnits="userSpaceOnUse" gradientTransform="translate(3.87402 23.5964) rotate(-64.6261) scale(0.684134 2.28869)">
<stop stop-color="#FF7576"/>
<stop offset="0.501931" stop-color="#FF7576" stop-opacity="0.462921"/>
<stop offset="1" stop-color="#FF7576" stop-opacity="0"/>
</radialGradient>
<radialGradient id="paint49_radial_2345_32923" cx="0" cy="0" r="1" gradientUnits="userSpaceOnUse" gradientTransform="translate(5.82869 26.1695) rotate(-15.0685) scale(0.254639 1.85798)">
<stop stop-color="#FF7576"/>
<stop offset="0.501931" stop-color="#FF7576" stop-opacity="0.462921"/>
<stop offset="1" stop-color="#FF7576" stop-opacity="0"/>
</radialGradient>
<radialGradient id="paint50_radial_2345_32923" cx="0" cy="0" r="1" gradientUnits="userSpaceOnUse" gradientTransform="translate(3.45845 23.5266) rotate(-61.9908) scale(0.794659 2.83778)">
<stop stop-color="#FF7576"/>
<stop offset="0.501931" stop-color="#EF7B54" stop-opacity="0.462921"/>
<stop offset="0.802968" stop-color="#FF7576" stop-opacity="0.131386"/>
<stop offset="1" stop-color="#FF7576" stop-opacity="0"/>
</radialGradient>
<radialGradient id="paint51_radial_2345_32923" cx="0" cy="0" r="1" gradientUnits="userSpaceOnUse" gradientTransform="translate(6.5838 27.8282) rotate(-75.1414) scale(0.641308 4.39596)">
<stop stop-color="#FF7576"/>
<stop offset="0.501931" stop-color="#FF7576" stop-opacity="0.462921"/>
<stop offset="0.802968" stop-color="#FF7576" stop-opacity="0.131386"/>
<stop offset="1" stop-color="#FF7576" stop-opacity="0"/>
</radialGradient>
<radialGradient id="paint52_radial_2345_32923" cx="0" cy="0" r="1" gradientUnits="userSpaceOnUse" gradientTransform="translate(3.39938 21.1074) rotate(68.4265) scale(0.388332 1.84372)">
<stop stop-color="#FF7576"/>
<stop offset="0.501931" stop-color="#FF7576" stop-opacity="0.462921"/>
<stop offset="0.802968" stop-color="#FF7576" stop-opacity="0.131386"/>
<stop offset="1" stop-color="#FF7576" stop-opacity="0"/>
</radialGradient>
<radialGradient id="paint53_radial_2345_32923" cx="0" cy="0" r="1" gradientUnits="userSpaceOnUse" gradientTransform="translate(4.81334 20.2975) rotate(45.4815) scale(0.537986 0.716147)">
<stop stop-color="#FF7576"/>
<stop offset="0.501931" stop-color="#FF7576" stop-opacity="0.462921"/>
<stop offset="0.802968" stop-color="#FF7576" stop-opacity="0.131386"/>
<stop offset="1" stop-color="#FF7576" stop-opacity="0"/>
</radialGradient>
<radialGradient id="paint54_radial_2345_32923" cx="0" cy="0" r="1" gradientUnits="userSpaceOnUse" gradientTransform="translate(5.36698 19.043) rotate(15.5241) scale(0.401794 1.80498)">
<stop stop-color="#FF7576"/>
<stop offset="0.501931" stop-color="#FF7576" stop-opacity="0.462921"/>
<stop offset="0.802968" stop-color="#FF7576" stop-opacity="0.131386"/>
<stop offset="1" stop-color="#FF7576" stop-opacity="0"/>
</radialGradient>
<radialGradient id="paint55_radial_2345_32923" cx="0" cy="0" r="1" gradientUnits="userSpaceOnUse" gradientTransform="translate(5.83369 17.5678) rotate(11.3099) scale(0.391447 1.7585)">
<stop stop-color="#FF7576"/>
<stop offset="0.501931" stop-color="#FF7576" stop-opacity="0.462921"/>
<stop offset="0.802968" stop-color="#FF7576" stop-opacity="0.131386"/>
<stop offset="1" stop-color="#FF7576" stop-opacity="0"/>
</radialGradient>
<radialGradient id="paint56_radial_2345_32923" cx="0" cy="0" r="1" gradientUnits="userSpaceOnUse" gradientTransform="translate(6.23654 16.8011) rotate(28.8649) scale(0.363688 1.6338)">
<stop stop-color="#FF7576"/>
<stop offset="0.451537" stop-color="#FF7576" stop-opacity="0.462921"/>
<stop offset="0.716342" stop-color="#FF7576" stop-opacity="0.131386"/>
<stop offset="1" stop-color="#FF7576" stop-opacity="0"/>
</radialGradient>
<radialGradient id="paint57_radial_2345_32923" cx="0" cy="0" r="1" gradientUnits="userSpaceOnUse" gradientTransform="translate(2.23435 21.7343) rotate(36.0736) scale(0.479366 2.15346)">
<stop stop-color="#FF7576"/>
<stop offset="0.451537" stop-color="#FF7576" stop-opacity="0.462921"/>
<stop offset="0.716342" stop-color="#FF7576" stop-opacity="0.131386"/>
<stop offset="1" stop-color="#FF7576" stop-opacity="0"/>
</radialGradient>
<radialGradient id="paint58_radial_2345_32923" cx="0" cy="0" r="1" gradientUnits="userSpaceOnUse" gradientTransform="translate(2.07162 22.0499) scale(0.471403 2.11769)">
<stop stop-color="#FF7576"/>
<stop offset="0.451537" stop-color="#FF7576" stop-opacity="0.462921"/>
<stop offset="0.716342" stop-color="#FF7576" stop-opacity="0.131386"/>
<stop offset="1" stop-color="#FF7576" stop-opacity="0"/>
</radialGradient>
<radialGradient id="paint59_radial_2345_32923" cx="0" cy="0" r="1" gradientUnits="userSpaceOnUse" gradientTransform="translate(3.32382 20.9581) rotate(68.9625) scale(0.954558 2.73026)">
<stop stop-color="#CD9943"/>
<stop offset="0.767589" stop-color="#CD9943" stop-opacity="0.127511"/>
<stop offset="1" stop-color="#CD9943" stop-opacity="0"/>
</radialGradient>
<radialGradient id="paint60_radial_2345_32923" cx="0" cy="0" r="1" gradientUnits="userSpaceOnUse" gradientTransform="translate(5.48506 18.663) rotate(20.4687) scale(0.810576 2.36218)">
<stop stop-color="#CD9943"/>
<stop offset="0.767589" stop-color="#CD9943" stop-opacity="0.127511"/>
<stop offset="1" stop-color="#CD9943" stop-opacity="0"/>
</radialGradient>
<radialGradient id="paint61_radial_2345_32923" cx="0" cy="0" r="1" gradientUnits="userSpaceOnUse" gradientTransform="translate(4.89011 19.7082) rotate(17.1619) scale(1.14437 1.77808)">
<stop stop-color="#CD9943"/>
<stop offset="0.767589" stop-color="#CD9943" stop-opacity="0.127511"/>
<stop offset="1" stop-color="#CD9943" stop-opacity="0"/>
</radialGradient>
<radialGradient id="paint62_radial_2345_32923" cx="0" cy="0" r="1" gradientUnits="userSpaceOnUse" gradientTransform="translate(6.2917 16.6428) rotate(28.7896) scale(0.62793 2.79813)">
<stop stop-color="#CD9943" stop-opacity="0.85"/>
<stop offset="0.760417" stop-color="#CD9943" stop-opacity="0.127511"/>
<stop offset="1" stop-color="#CD9943" stop-opacity="0"/>
</radialGradient>
<radialGradient id="paint63_radial_2345_32923" cx="0" cy="0" r="1" gradientUnits="userSpaceOnUse" gradientTransform="translate(6.92259 16.424) rotate(85.1355) scale(0.617513 2.75172)">
<stop stop-color="#CD9943" stop-opacity="0.85"/>
<stop offset="0.810204" stop-color="#CD9943" stop-opacity="0.127511"/>
<stop offset="1" stop-color="#CD9943" stop-opacity="0"/>
</radialGradient>
<radialGradient id="paint64_radial_2345_32923" cx="0" cy="0" r="1" gradientUnits="userSpaceOnUse" gradientTransform="translate(2.18103 21.7176) rotate(36.9715) scale(0.567348 1.62275)">
<stop stop-color="#CD9943"/>
<stop offset="0.188174" stop-color="#CD9943" stop-opacity="0.508864"/>
<stop offset="0.703125" stop-color="#CD9943" stop-opacity="0.127511"/>
<stop offset="1" stop-color="#CD9943" stop-opacity="0"/>
</radialGradient>
<radialGradient id="paint65_radial_2345_32923" cx="0" cy="0" r="1" gradientUnits="userSpaceOnUse" gradientTransform="translate(1.90196 22.2416) rotate(-1.75033) scale(0.590069 1.68774)">
<stop stop-color="#CD9943"/>
<stop offset="0.244792" stop-color="#CD9943" stop-opacity="0.508864"/>
<stop offset="0.727949" stop-color="#CD9943" stop-opacity="0.127511"/>
<stop offset="1" stop-color="#CD9943" stop-opacity="0"/>
</radialGradient>
<radialGradient id="paint66_radial_2345_32923" cx="0" cy="0" r="1" gradientUnits="userSpaceOnUse" gradientTransform="translate(2.1636 22.8959) rotate(-45.971) scale(0.506721 3.39978)">
<stop stop-color="#CD9943"/>
<stop offset="0.244792" stop-color="#CD9943" stop-opacity="0.508864"/>
<stop offset="0.727949" stop-color="#CD9943" stop-opacity="0.127511"/>
<stop offset="1" stop-color="#CD9943" stop-opacity="0"/>
</radialGradient>
<radialGradient id="paint67_radial_2345_32923" cx="0" cy="0" r="1" gradientUnits="userSpaceOnUse" gradientTransform="translate(8.39296 19.8986) rotate(155.008) scale(0.866594 1.80698)">
<stop stop-color="#FFE675"/>
<stop offset="0.65382" stop-color="#FFE675" stop-opacity="0.185004"/>
<stop offset="0.813038" stop-color="#FFE675" stop-opacity="0.107811"/>
<stop offset="1" stop-color="#FFE675" stop-opacity="0"/>
</radialGradient>
<radialGradient id="paint68_radial_2345_32923" cx="0" cy="0" r="1" gradientUnits="userSpaceOnUse" gradientTransform="translate(9.13115 20.665) rotate(117.168) scale(0.715905 1.5525)">
<stop stop-color="#FFE675"/>
<stop offset="0.6685" stop-color="#FFE675" stop-opacity="0.185004"/>
<stop offset="0.831795" stop-color="#FFE675" stop-opacity="0.0637278"/>
<stop offset="1" stop-color="#FFE675" stop-opacity="0"/>
</radialGradient>
<radialGradient id="paint69_radial_2345_32923" cx="0" cy="0" r="1" gradientUnits="userSpaceOnUse" gradientTransform="translate(10.7714 21.394) rotate(113.405) scale(0.78268 1.99996)">
<stop stop-color="#FFE675"/>
<stop offset="0.721175" stop-color="#FFE675" stop-opacity="0.185004"/>
<stop offset="1" stop-color="#FFE675" stop-opacity="0"/>
</radialGradient>
<radialGradient id="paint70_radial_2345_32923" cx="0" cy="0" r="1" gradientUnits="userSpaceOnUse" gradientTransform="translate(11.4937 21.8499) rotate(154.938) scale(0.737402 1.88426)">
<stop stop-color="#FFE675"/>
<stop offset="0.721175" stop-color="#FFE675" stop-opacity="0.185004"/>
<stop offset="1" stop-color="#FFE675" stop-opacity="0"/>
</radialGradient>
<radialGradient id="paint71_radial_2345_32923" cx="0" cy="0" r="1" gradientUnits="userSpaceOnUse" gradientTransform="translate(7.81765 18.2877) rotate(165.272) scale(0.635572 2.74135)">
<stop offset="0.131615" stop-color="#FFE675"/>
<stop offset="0.665228" stop-color="#FFE675" stop-opacity="0.185004"/>
<stop offset="0.813948" stop-color="#FFE675" stop-opacity="0.0520478"/>
<stop offset="1" stop-color="#FFE675" stop-opacity="0"/>
</radialGradient>
<radialGradient id="paint72_radial_2345_32923" cx="0" cy="0" r="1" gradientUnits="userSpaceOnUse" gradientTransform="translate(7.38498 17.0945) rotate(147.095) scale(0.623608 2.68975)">
<stop offset="0.164689" stop-color="#FFE675"/>
<stop offset="0.719375" stop-color="#FFE675" stop-opacity="0.185004"/>
<stop offset="1" stop-color="#FFE675" stop-opacity="0"/>
</radialGradient>
<clipPath id="clip0_2345_32923">
<rect width="32" height="32" fill="white"/>
</clipPath>
</defs>
</svg>
