<svg width="20" height="20" viewBox="0 0 20 20" fill="none" xmlns="http://www.w3.org/2000/svg">
<path d="M10 14.5557C9.71777 14.5557 9.46875 14.4478 9.25293 14.2236L2.92773 7.75732C2.74512 7.57471 2.64551 7.34229 2.64551 7.07666C2.64551 6.53711 3.06885 6.11377 3.6084 6.11377C3.87402 6.11377 4.11475 6.22168 4.30566 6.4043L10 12.2397L15.6943 6.4043C15.877 6.22168 16.126 6.11377 16.3916 6.11377C16.9229 6.11377 17.3462 6.53711 17.3462 7.07666C17.3462 7.35059 17.2549 7.57471 17.0723 7.75732L10.7471 14.2236C10.5396 14.4478 10.2822 14.5557 10 14.5557Z" fill="#222222"/>
</svg>
