<svg width="32" height="32" viewBox="0 0 32 32" fill="none" xmlns="http://www.w3.org/2000/svg">
<g clip-path="url(#clip0_2345_32837)">
<path d="M19.8801 29.3533L16.2422 19.3892L22.1641 15.936L26.2032 27.0299C26.4268 27.6442 25.8122 28.2307 25.2091 27.9784L23.3702 27.2095C22.8784 27.0038 22.3118 27.22 22.082 27.7011L21.2614 29.4193C20.975 30.0189 20.108 29.9775 19.8801 29.3533Z" fill="url(#paint0_linear_2345_32837)"/>
<path d="M19.8801 29.3533L16.2422 19.3892L22.1641 15.936L26.2032 27.0299C26.4268 27.6442 25.8122 28.2307 25.2091 27.9784L23.3702 27.2095C22.8784 27.0038 22.3118 27.22 22.082 27.7011L21.2614 29.4193C20.975 30.0189 20.108 29.9775 19.8801 29.3533Z" fill="url(#paint1_linear_2345_32837)"/>
<path d="M19.8801 29.3533L16.2422 19.3892L22.1641 15.936L26.2032 27.0299C26.4268 27.6442 25.8122 28.2307 25.2091 27.9784L23.3702 27.2095C22.8784 27.0038 22.3118 27.22 22.082 27.7011L21.2614 29.4193C20.975 30.0189 20.108 29.9775 19.8801 29.3533Z" fill="url(#paint2_linear_2345_32837)"/>
<path d="M19.8801 29.3533L16.2422 19.3892L22.1641 15.936L26.2032 27.0299C26.4268 27.6442 25.8122 28.2307 25.2091 27.9784L23.3702 27.2095C22.8784 27.0038 22.3118 27.22 22.082 27.7011L21.2614 29.4193C20.975 30.0189 20.108 29.9775 19.8801 29.3533Z" fill="url(#paint3_linear_2345_32837)"/>
<path d="M12.2137 29.3533L15.8516 19.3892L9.92969 15.936L5.89059 27.0299C5.66693 27.6442 6.28154 28.2307 6.88469 27.9784L8.72355 27.2095C9.21534 27.0038 9.78199 27.22 10.0117 27.7011L10.8324 29.4193C11.1187 30.0189 11.9858 29.9775 12.2137 29.3533Z" fill="url(#paint4_linear_2345_32837)"/>
<path d="M12.2137 29.3533L15.8516 19.3892L9.92969 15.936L5.89059 27.0299C5.66693 27.6442 6.28154 28.2307 6.88469 27.9784L8.72355 27.2095C9.21534 27.0038 9.78199 27.22 10.0117 27.7011L10.8324 29.4193C11.1187 30.0189 11.9858 29.9775 12.2137 29.3533Z" fill="url(#paint5_radial_2345_32837)"/>
<path d="M12.2137 29.3533L15.8516 19.3892L9.92969 15.936L5.89059 27.0299C5.66693 27.6442 6.28154 28.2307 6.88469 27.9784L8.72355 27.2095C9.21534 27.0038 9.78199 27.22 10.0117 27.7011L10.8324 29.4193C11.1187 30.0189 11.9858 29.9775 12.2137 29.3533Z" fill="url(#paint6_linear_2345_32837)"/>
<path d="M12.2137 29.3533L15.8516 19.3892L9.92969 15.936L5.89059 27.0299C5.66693 27.6442 6.28154 28.2307 6.88469 27.9784L8.72355 27.2095C9.21534 27.0038 9.78199 27.22 10.0117 27.7011L10.8324 29.4193C11.1187 30.0189 11.9858 29.9775 12.2137 29.3533Z" fill="url(#paint7_linear_2345_32837)"/>
<path d="M13.4225 9.7235L14.2522 9.32907L8.93186 6.71655C7.74787 6.10315 5.89806 5.53953 4.12769 6.42474C3.7712 6.60299 3.47052 6.81593 3.22137 7.05318C2.69428 7.51625 2.00479 8.42492 2.00479 10.0205V16.7849C1.96316 17.3262 2.18387 18.7166 3.02299 19.4939C4.13651 20.7048 6.2073 21.2241 8.49328 20.2211C9.69818 19.6924 11.2328 18.9166 12.235 18.4099C12.6387 18.2058 12.9562 18.0453 13.1307 17.9623L14.2522 17.4292L13.4225 17.0218V9.7235Z" fill="url(#paint8_linear_2345_32837)"/>
<path d="M13.4225 9.7235L14.2522 9.32907L8.93186 6.71655C7.74787 6.10315 5.89806 5.53953 4.12769 6.42474C3.7712 6.60299 3.47052 6.81593 3.22137 7.05318C2.69428 7.51625 2.00479 8.42492 2.00479 10.0205V16.7849C1.96316 17.3262 2.18387 18.7166 3.02299 19.4939C4.13651 20.7048 6.2073 21.2241 8.49328 20.2211C9.69818 19.6924 11.2328 18.9166 12.235 18.4099C12.6387 18.2058 12.9562 18.0453 13.1307 17.9623L14.2522 17.4292L13.4225 17.0218V9.7235Z" fill="url(#paint9_radial_2345_32837)"/>
<path d="M18.517 9.7235L17.6873 9.32907L23.0076 6.71655C24.1916 6.10315 26.0414 5.53953 27.8118 6.42474C28.1683 6.60299 28.4689 6.81593 28.7181 7.05318C29.2452 7.51625 29.9347 8.42492 29.9347 10.0205V16.7849C29.9763 17.3262 29.7556 18.7166 28.9165 19.4939C27.8029 20.7048 25.7322 21.2241 23.4462 20.2211C22.2413 19.6924 20.7066 18.9166 19.7044 18.4099C19.3008 18.2058 18.9832 18.0453 18.8087 17.9623L17.6873 17.4292L18.517 17.0218V9.7235Z" fill="url(#paint10_linear_2345_32837)"/>
<path d="M18.517 9.7235L17.6873 9.32907L23.0076 6.71655C24.1916 6.10315 26.0414 5.53953 27.8118 6.42474C28.1683 6.60299 28.4689 6.81593 28.7181 7.05318C29.2452 7.51625 29.9347 8.42492 29.9347 10.0205V16.7849C29.9763 17.3262 29.7556 18.7166 28.9165 19.4939C27.8029 20.7048 25.7322 21.2241 23.4462 20.2211C22.2413 19.6924 20.7066 18.9166 19.7044 18.4099C19.3008 18.2058 18.9832 18.0453 18.8087 17.9623L17.6873 17.4292L18.517 17.0218V9.7235Z" fill="url(#paint11_radial_2345_32837)"/>
<path d="M23.2781 15.3524L19.0665 17.4205C19.7236 17.7329 21.9985 18.9307 23.6874 19.6718C25.7986 20.5981 27.5975 20.0703 28.5023 19.0578C29.4071 18.0453 29.4135 15.9966 27.5436 15.0616C26.027 14.3033 24.3984 14.7708 23.2781 15.3524Z" fill="#C40E49"/>
<path d="M23.2781 15.3524L19.0665 17.4205C19.7236 17.7329 21.9985 18.9307 23.6874 19.6718C25.7986 20.5981 27.5975 20.0703 28.5023 19.0578C29.4071 18.0453 29.4135 15.9966 27.5436 15.0616C26.027 14.3033 24.3984 14.7708 23.2781 15.3524Z" fill="url(#paint12_radial_2345_32837)"/>
<path d="M23.2781 15.3524L19.0665 17.4205C19.7236 17.7329 21.9985 18.9307 23.6874 19.6718C25.7986 20.5981 27.5975 20.0703 28.5023 19.0578C29.4071 18.0453 29.4135 15.9966 27.5436 15.0616C26.027 14.3033 24.3984 14.7708 23.2781 15.3524Z" fill="url(#paint13_radial_2345_32837)" fill-opacity="0.8"/>
<path d="M8.66132 15.3524L12.8729 17.4205C12.2159 17.7329 9.94099 18.9307 8.25203 19.6718C6.14084 20.5981 4.34199 20.0703 3.43719 19.0578C2.53239 18.0453 2.52596 15.9966 4.39586 15.0616C5.91247 14.3033 7.5411 14.7708 8.66132 15.3524Z" fill="#CC0B30"/>
<path d="M8.66132 15.3524L12.8729 17.4205C12.2159 17.7329 9.94099 18.9307 8.25203 19.6718C6.14084 20.5981 4.34199 20.0703 3.43719 19.0578C2.53239 18.0453 2.52596 15.9966 4.39586 15.0616C5.91247 14.3033 7.5411 14.7708 8.66132 15.3524Z" fill="url(#paint14_radial_2345_32837)"/>
<path fill-rule="evenodd" clip-rule="evenodd" d="M17.6873 17.4292L18.8088 17.9623C18.9833 18.0453 19.3006 18.2057 19.7044 18.4098C20.7066 18.9165 22.2413 19.6924 23.4462 20.2211C25.755 21.2341 27.8443 20.6943 28.9495 19.4575C30.0888 18.1826 30.0735 15.6557 27.8118 14.5248C26.0414 13.6396 24.1916 14.2032 23.0076 14.8166L17.6873 17.4292ZM23.278 15.3523C24.3982 14.7707 26.0269 14.3032 27.5435 15.0615C29.4134 15.9965 29.4069 18.0452 28.5021 19.0577C27.5973 20.0702 25.7985 20.598 23.6873 19.6716C22.4975 19.1496 21.0169 18.4009 20.016 17.8948C19.9204 17.8464 19.8291 17.8002 19.7428 17.7567C19.4506 17.6091 19.2163 17.4917 19.0664 17.4204L23.278 15.3523Z" fill="url(#paint15_linear_2345_32837)"/>
<path fill-rule="evenodd" clip-rule="evenodd" d="M17.6873 17.4292L18.8088 17.9623C18.9833 18.0453 19.3006 18.2057 19.7044 18.4098C20.7066 18.9165 22.2413 19.6924 23.4462 20.2211C25.755 21.2341 27.8443 20.6943 28.9495 19.4575C30.0888 18.1826 30.0735 15.6557 27.8118 14.5248C26.0414 13.6396 24.1916 14.2032 23.0076 14.8166L17.6873 17.4292ZM23.278 15.3523C24.3982 14.7707 26.0269 14.3032 27.5435 15.0615C29.4134 15.9965 29.4069 18.0452 28.5021 19.0577C27.5973 20.0702 25.7985 20.598 23.6873 19.6716C22.4975 19.1496 21.0169 18.4009 20.016 17.8948C19.9204 17.8464 19.8291 17.8002 19.7428 17.7567C19.4506 17.6091 19.2163 17.4917 19.0664 17.4204L23.278 15.3523Z" fill="url(#paint16_radial_2345_32837)"/>
<path fill-rule="evenodd" clip-rule="evenodd" d="M17.6873 17.4292L18.8088 17.9623C18.9833 18.0453 19.3006 18.2057 19.7044 18.4098C20.7066 18.9165 22.2413 19.6924 23.4462 20.2211C25.755 21.2341 27.8443 20.6943 28.9495 19.4575C30.0888 18.1826 30.0735 15.6557 27.8118 14.5248C26.0414 13.6396 24.1916 14.2032 23.0076 14.8166L17.6873 17.4292ZM23.278 15.3523C24.3982 14.7707 26.0269 14.3032 27.5435 15.0615C29.4134 15.9965 29.4069 18.0452 28.5021 19.0577C27.5973 20.0702 25.7985 20.598 23.6873 19.6716C22.4975 19.1496 21.0169 18.4009 20.016 17.8948C19.9204 17.8464 19.8291 17.8002 19.7428 17.7567C19.4506 17.6091 19.2163 17.4917 19.0664 17.4204L23.278 15.3523Z" fill="url(#paint17_radial_2345_32837)"/>
<path fill-rule="evenodd" clip-rule="evenodd" d="M17.6873 17.4292L18.8088 17.9623C18.9833 18.0453 19.3006 18.2057 19.7044 18.4098C20.7066 18.9165 22.2413 19.6924 23.4462 20.2211C25.755 21.2341 27.8443 20.6943 28.9495 19.4575C30.0888 18.1826 30.0735 15.6557 27.8118 14.5248C26.0414 13.6396 24.1916 14.2032 23.0076 14.8166L17.6873 17.4292ZM23.278 15.3523C24.3982 14.7707 26.0269 14.3032 27.5435 15.0615C29.4134 15.9965 29.4069 18.0452 28.5021 19.0577C27.5973 20.0702 25.7985 20.598 23.6873 19.6716C22.4975 19.1496 21.0169 18.4009 20.016 17.8948C19.9204 17.8464 19.8291 17.8002 19.7428 17.7567C19.4506 17.6091 19.2163 17.4917 19.0664 17.4204L23.278 15.3523Z" fill="url(#paint18_radial_2345_32837)"/>
<path fill-rule="evenodd" clip-rule="evenodd" d="M17.6873 17.4292L18.8088 17.9623C18.9833 18.0453 19.3006 18.2057 19.7044 18.4098C20.7066 18.9165 22.2413 19.6924 23.4462 20.2211C25.755 21.2341 27.8443 20.6943 28.9495 19.4575C30.0888 18.1826 30.0735 15.6557 27.8118 14.5248C26.0414 13.6396 24.1916 14.2032 23.0076 14.8166L17.6873 17.4292ZM23.278 15.3523C24.3982 14.7707 26.0269 14.3032 27.5435 15.0615C29.4134 15.9965 29.4069 18.0452 28.5021 19.0577C27.5973 20.0702 25.7985 20.598 23.6873 19.6716C22.4975 19.1496 21.0169 18.4009 20.016 17.8948C19.9204 17.8464 19.8291 17.8002 19.7428 17.7567C19.4506 17.6091 19.2163 17.4917 19.0664 17.4204L23.278 15.3523Z" fill="url(#paint19_radial_2345_32837)"/>
<path fill-rule="evenodd" clip-rule="evenodd" d="M17.6873 17.4292L18.8088 17.9623C18.9833 18.0453 19.3006 18.2057 19.7044 18.4098C20.7066 18.9165 22.2413 19.6924 23.4462 20.2211C25.755 21.2341 27.8443 20.6943 28.9495 19.4575C30.0888 18.1826 30.0735 15.6557 27.8118 14.5248C26.0414 13.6396 24.1916 14.2032 23.0076 14.8166L17.6873 17.4292ZM23.278 15.3523C24.3982 14.7707 26.0269 14.3032 27.5435 15.0615C29.4134 15.9965 29.4069 18.0452 28.5021 19.0577C27.5973 20.0702 25.7985 20.598 23.6873 19.6716C22.4975 19.1496 21.0169 18.4009 20.016 17.8948C19.9204 17.8464 19.8291 17.8002 19.7428 17.7567C19.4506 17.6091 19.2163 17.4917 19.0664 17.4204L23.278 15.3523Z" fill="url(#paint20_radial_2345_32837)"/>
<path fill-rule="evenodd" clip-rule="evenodd" d="M17.6873 17.4292L18.8088 17.9623C18.9833 18.0453 19.3006 18.2057 19.7044 18.4098C20.7066 18.9165 22.2413 19.6924 23.4462 20.2211C25.755 21.2341 27.8443 20.6943 28.9495 19.4575C30.0888 18.1826 30.0735 15.6557 27.8118 14.5248C26.0414 13.6396 24.1916 14.2032 23.0076 14.8166L17.6873 17.4292ZM23.278 15.3523C24.3982 14.7707 26.0269 14.3032 27.5435 15.0615C29.4134 15.9965 29.4069 18.0452 28.5021 19.0577C27.5973 20.0702 25.7985 20.598 23.6873 19.6716C22.4975 19.1496 21.0169 18.4009 20.016 17.8948C19.9204 17.8464 19.8291 17.8002 19.7428 17.7567C19.4506 17.6091 19.2163 17.4917 19.0664 17.4204L23.278 15.3523Z" fill="url(#paint21_radial_2345_32837)"/>
<path fill-rule="evenodd" clip-rule="evenodd" d="M14.2521 17.4292L13.1307 17.9623C12.9562 18.0453 12.6388 18.2057 12.2351 18.4098C11.2329 18.9165 9.69818 19.6924 8.49323 20.2211C6.18446 21.2341 4.09518 20.6943 2.98991 19.4575C1.85065 18.1826 1.866 15.6557 4.12765 14.5248C5.89802 13.6396 7.74782 14.2032 8.93182 14.8166L14.2521 17.4292ZM8.66144 15.3523C7.54122 14.7707 5.91259 14.3032 4.39598 15.0615C2.52608 15.9965 2.53251 18.0452 3.43731 19.0577C4.34211 20.0702 6.14096 20.598 8.25215 19.6716C9.44194 19.1496 10.9225 18.4009 11.9234 17.8948C12.0191 17.8464 12.1104 17.8002 12.1966 17.7567C12.4889 17.6091 12.7231 17.4917 12.8731 17.4204L8.66144 15.3523Z" fill="url(#paint22_linear_2345_32837)"/>
<path fill-rule="evenodd" clip-rule="evenodd" d="M14.2521 17.4292L13.1307 17.9623C12.9562 18.0453 12.6388 18.2057 12.2351 18.4098C11.2329 18.9165 9.69818 19.6924 8.49323 20.2211C6.18446 21.2341 4.09518 20.6943 2.98991 19.4575C1.85065 18.1826 1.866 15.6557 4.12765 14.5248C5.89802 13.6396 7.74782 14.2032 8.93182 14.8166L14.2521 17.4292ZM8.66144 15.3523C7.54122 14.7707 5.91259 14.3032 4.39598 15.0615C2.52608 15.9965 2.53251 18.0452 3.43731 19.0577C4.34211 20.0702 6.14096 20.598 8.25215 19.6716C9.44194 19.1496 10.9225 18.4009 11.9234 17.8948C12.0191 17.8464 12.1104 17.8002 12.1966 17.7567C12.4889 17.6091 12.7231 17.4917 12.8731 17.4204L8.66144 15.3523Z" fill="url(#paint23_radial_2345_32837)"/>
<path fill-rule="evenodd" clip-rule="evenodd" d="M14.2521 17.4292L13.1307 17.9623C12.9562 18.0453 12.6388 18.2057 12.2351 18.4098C11.2329 18.9165 9.69818 19.6924 8.49323 20.2211C6.18446 21.2341 4.09518 20.6943 2.98991 19.4575C1.85065 18.1826 1.866 15.6557 4.12765 14.5248C5.89802 13.6396 7.74782 14.2032 8.93182 14.8166L14.2521 17.4292ZM8.66144 15.3523C7.54122 14.7707 5.91259 14.3032 4.39598 15.0615C2.52608 15.9965 2.53251 18.0452 3.43731 19.0577C4.34211 20.0702 6.14096 20.598 8.25215 19.6716C9.44194 19.1496 10.9225 18.4009 11.9234 17.8948C12.0191 17.8464 12.1104 17.8002 12.1966 17.7567C12.4889 17.6091 12.7231 17.4917 12.8731 17.4204L8.66144 15.3523Z" fill="url(#paint24_radial_2345_32837)"/>
<path fill-rule="evenodd" clip-rule="evenodd" d="M14.2521 17.4292L13.1307 17.9623C12.9562 18.0453 12.6388 18.2057 12.2351 18.4098C11.2329 18.9165 9.69818 19.6924 8.49323 20.2211C6.18446 21.2341 4.09518 20.6943 2.98991 19.4575C1.85065 18.1826 1.866 15.6557 4.12765 14.5248C5.89802 13.6396 7.74782 14.2032 8.93182 14.8166L14.2521 17.4292ZM8.66144 15.3523C7.54122 14.7707 5.91259 14.3032 4.39598 15.0615C2.52608 15.9965 2.53251 18.0452 3.43731 19.0577C4.34211 20.0702 6.14096 20.598 8.25215 19.6716C9.44194 19.1496 10.9225 18.4009 11.9234 17.8948C12.0191 17.8464 12.1104 17.8002 12.1966 17.7567C12.4889 17.6091 12.7231 17.4917 12.8731 17.4204L8.66144 15.3523Z" fill="url(#paint25_radial_2345_32837)"/>
<path fill-rule="evenodd" clip-rule="evenodd" d="M14.2521 17.4292L13.1307 17.9623C12.9562 18.0453 12.6388 18.2057 12.2351 18.4098C11.2329 18.9165 9.69818 19.6924 8.49323 20.2211C6.18446 21.2341 4.09518 20.6943 2.98991 19.4575C1.85065 18.1826 1.866 15.6557 4.12765 14.5248C5.89802 13.6396 7.74782 14.2032 8.93182 14.8166L14.2521 17.4292ZM8.66144 15.3523C7.54122 14.7707 5.91259 14.3032 4.39598 15.0615C2.52608 15.9965 2.53251 18.0452 3.43731 19.0577C4.34211 20.0702 6.14096 20.598 8.25215 19.6716C9.44194 19.1496 10.9225 18.4009 11.9234 17.8948C12.0191 17.8464 12.1104 17.8002 12.1966 17.7567C12.4889 17.6091 12.7231 17.4917 12.8731 17.4204L8.66144 15.3523Z" fill="url(#paint26_radial_2345_32837)"/>
<path fill-rule="evenodd" clip-rule="evenodd" d="M14.2521 17.4292L13.1307 17.9623C12.9562 18.0453 12.6388 18.2057 12.2351 18.4098C11.2329 18.9165 9.69818 19.6924 8.49323 20.2211C6.18446 21.2341 4.09518 20.6943 2.98991 19.4575C1.85065 18.1826 1.866 15.6557 4.12765 14.5248C5.89802 13.6396 7.74782 14.2032 8.93182 14.8166L14.2521 17.4292ZM8.66144 15.3523C7.54122 14.7707 5.91259 14.3032 4.39598 15.0615C2.52608 15.9965 2.53251 18.0452 3.43731 19.0577C4.34211 20.0702 6.14096 20.598 8.25215 19.6716C9.44194 19.1496 10.9225 18.4009 11.9234 17.8948C12.0191 17.8464 12.1104 17.8002 12.1966 17.7567C12.4889 17.6091 12.7231 17.4917 12.8731 17.4204L8.66144 15.3523Z" fill="url(#paint27_radial_2345_32837)"/>
<path fill-rule="evenodd" clip-rule="evenodd" d="M14.2521 17.4292L13.1307 17.9623C12.9562 18.0453 12.6388 18.2057 12.2351 18.4098C11.2329 18.9165 9.69818 19.6924 8.49323 20.2211C6.18446 21.2341 4.09518 20.6943 2.98991 19.4575C1.85065 18.1826 1.866 15.6557 4.12765 14.5248C5.89802 13.6396 7.74782 14.2032 8.93182 14.8166L14.2521 17.4292ZM8.66144 15.3523C7.54122 14.7707 5.91259 14.3032 4.39598 15.0615C2.52608 15.9965 2.53251 18.0452 3.43731 19.0577C4.34211 20.0702 6.14096 20.598 8.25215 19.6716C9.44194 19.1496 10.9225 18.4009 11.9234 17.8948C12.0191 17.8464 12.1104 17.8002 12.1966 17.7567C12.4889 17.6091 12.7231 17.4917 12.8731 17.4204L8.66144 15.3523Z" fill="url(#paint28_radial_2345_32837)"/>
<path fill-rule="evenodd" clip-rule="evenodd" d="M14.2521 17.4292L13.1307 17.9623C12.9562 18.0453 12.6388 18.2057 12.2351 18.4098C11.2329 18.9165 9.69818 19.6924 8.49323 20.2211C6.18446 21.2341 4.09518 20.6943 2.98991 19.4575C1.85065 18.1826 1.866 15.6557 4.12765 14.5248C5.89802 13.6396 7.74782 14.2032 8.93182 14.8166L14.2521 17.4292ZM8.66144 15.3523C7.54122 14.7707 5.91259 14.3032 4.39598 15.0615C2.52608 15.9965 2.53251 18.0452 3.43731 19.0577C4.34211 20.0702 6.14096 20.598 8.25215 19.6716C9.44194 19.1496 10.9225 18.4009 11.9234 17.8948C12.0191 17.8464 12.1104 17.8002 12.1966 17.7567C12.4889 17.6091 12.7231 17.4917 12.8731 17.4204L8.66144 15.3523Z" fill="url(#paint29_radial_2345_32837)"/>
<path fill-rule="evenodd" clip-rule="evenodd" d="M14.2521 17.4292L13.1307 17.9623C12.9562 18.0453 12.6388 18.2057 12.2351 18.4098C11.2329 18.9165 9.69818 19.6924 8.49323 20.2211C6.18446 21.2341 4.09518 20.6943 2.98991 19.4575C1.85065 18.1826 1.866 15.6557 4.12765 14.5248C5.89802 13.6396 7.74782 14.2032 8.93182 14.8166L14.2521 17.4292ZM8.66144 15.3523C7.54122 14.7707 5.91259 14.3032 4.39598 15.0615C2.52608 15.9965 2.53251 18.0452 3.43731 19.0577C4.34211 20.0702 6.14096 20.598 8.25215 19.6716C9.44194 19.1496 10.9225 18.4009 11.9234 17.8948C12.0191 17.8464 12.1104 17.8002 12.1966 17.7567C12.4889 17.6091 12.7231 17.4917 12.8731 17.4204L8.66144 15.3523Z" fill="url(#paint30_radial_2345_32837)"/>
<path fill-rule="evenodd" clip-rule="evenodd" d="M14.2521 17.4292L13.1307 17.9623C12.9562 18.0453 12.6388 18.2057 12.2351 18.4098C11.2329 18.9165 9.69818 19.6924 8.49323 20.2211C6.18446 21.2341 4.09518 20.6943 2.98991 19.4575C1.85065 18.1826 1.866 15.6557 4.12765 14.5248C5.89802 13.6396 7.74782 14.2032 8.93182 14.8166L14.2521 17.4292ZM8.66144 15.3523C7.54122 14.7707 5.91259 14.3032 4.39598 15.0615C2.52608 15.9965 2.53251 18.0452 3.43731 19.0577C4.34211 20.0702 6.14096 20.598 8.25215 19.6716C9.44194 19.1496 10.9225 18.4009 11.9234 17.8948C12.0191 17.8464 12.1104 17.8002 12.1966 17.7567C12.4889 17.6091 12.7231 17.4917 12.8731 17.4204L8.66144 15.3523Z" fill="url(#paint31_radial_2345_32837)"/>
<rect x="12.604" y="7.1123" width="6.91525" height="12.9903" rx="1.85" fill="url(#paint32_linear_2345_32837)"/>
<rect x="12.604" y="7.1123" width="6.91525" height="12.9903" rx="1.85" fill="url(#paint33_linear_2345_32837)"/>
<rect x="12.604" y="7.1123" width="6.91525" height="12.9903" rx="1.85" fill="url(#paint34_radial_2345_32837)" fill-opacity="0.8"/>
<rect x="12.604" y="7.1123" width="6.91525" height="12.9903" rx="1.85" fill="url(#paint35_radial_2345_32837)"/>
<rect x="12.604" y="7.1123" width="6.91525" height="12.9903" rx="1.85" fill="url(#paint36_radial_2345_32837)"/>
<rect x="12.604" y="7.1123" width="6.91525" height="12.9903" rx="1.85" fill="url(#paint37_radial_2345_32837)" fill-opacity="0.4"/>
<rect x="12.604" y="7.1123" width="6.91525" height="12.9903" rx="1.85" fill="url(#paint38_radial_2345_32837)" fill-opacity="0.4"/>
<rect x="12.604" y="7.1123" width="6.91525" height="12.9903" rx="1.85" fill="url(#paint39_linear_2345_32837)"/>
<rect x="12.604" y="7.1123" width="6.91525" height="12.9903" rx="1.85" fill="url(#paint40_linear_2345_32837)"/>
<rect x="12.604" y="7.1123" width="6.91525" height="12.9903" rx="1.85" fill="url(#paint41_radial_2345_32837)"/>
<rect x="12.604" y="7.1123" width="6.91525" height="12.9903" rx="1.85" fill="url(#paint42_radial_2345_32837)"/>
<rect x="12.604" y="7.1123" width="6.91525" height="12.9903" rx="1.85" fill="url(#paint43_linear_2345_32837)"/>
<rect x="12.604" y="7.1123" width="6.91525" height="12.9903" rx="1.85" fill="url(#paint44_linear_2345_32837)"/>
</g>
<defs>
<linearGradient id="paint0_linear_2345_32837" x1="18.3047" y1="19.7017" x2="21.6797" y2="28.0142" gradientUnits="userSpaceOnUse">
<stop stop-color="#BA2950"/>
<stop offset="1" stop-color="#DB1532"/>
</linearGradient>
<linearGradient id="paint1_linear_2345_32837" x1="22.2891" y1="18.2642" x2="20.8165" y2="23.0042" gradientUnits="userSpaceOnUse">
<stop offset="0.283466" stop-color="#980129"/>
<stop offset="0.844478" stop-color="#980129" stop-opacity="0.148482"/>
<stop offset="1" stop-color="#980129" stop-opacity="0"/>
</linearGradient>
<linearGradient id="paint2_linear_2345_32837" x1="17.3782" y1="22.6231" x2="17.8518" y2="22.4608" gradientUnits="userSpaceOnUse">
<stop offset="0.14415" stop-color="#A80435"/>
<stop offset="0.749655" stop-color="#A80435" stop-opacity="0.23757"/>
<stop offset="1" stop-color="#A80435" stop-opacity="0"/>
</linearGradient>
<linearGradient id="paint3_linear_2345_32837" x1="24.9255" y1="23.4905" x2="24.468" y2="23.6532" gradientUnits="userSpaceOnUse">
<stop stop-color="#E04E6F"/>
<stop offset="0.756437" stop-color="#E04E6F" stop-opacity="0.169951"/>
<stop offset="1" stop-color="#E04E6F" stop-opacity="0"/>
</linearGradient>
<linearGradient id="paint4_linear_2345_32837" x1="13.7891" y1="19.7017" x2="10.4141" y2="28.0142" gradientUnits="userSpaceOnUse">
<stop stop-color="#BA2950"/>
<stop offset="1" stop-color="#DB1532"/>
</linearGradient>
<radialGradient id="paint5_radial_2345_32837" cx="0" cy="0" r="1" gradientUnits="userSpaceOnUse" gradientTransform="translate(14.6641 17.5142) rotate(129.364) scale(6.46829 7.39966)">
<stop offset="0.391476" stop-color="#980129"/>
<stop offset="0.860161" stop-color="#980129" stop-opacity="0.160334"/>
<stop offset="1" stop-color="#980129" stop-opacity="0"/>
</radialGradient>
<linearGradient id="paint6_linear_2345_32837" x1="7.63678" y1="21.9697" x2="8.16619" y2="22.1647" gradientUnits="userSpaceOnUse">
<stop offset="0.191727" stop-color="#AA3244"/>
<stop offset="0.773064" stop-color="#AA3244" stop-opacity="0.212268"/>
<stop offset="1" stop-color="#AA3244" stop-opacity="0"/>
</linearGradient>
<linearGradient id="paint7_linear_2345_32837" x1="14.2443" y1="24.1834" x2="13.7966" y2="24.0104" gradientUnits="userSpaceOnUse">
<stop offset="0.303991" stop-color="#D24162"/>
<stop offset="0.76339" stop-color="#D24162" stop-opacity="0.227425"/>
<stop offset="1" stop-color="#D24162" stop-opacity="0"/>
</linearGradient>
<linearGradient id="paint8_linear_2345_32837" x1="12.9138" y1="13.8893" x2="2" y2="13.8893" gradientUnits="userSpaceOnUse">
<stop stop-color="#C92D60"/>
<stop offset="0.496726" stop-color="#CD2E4E"/>
<stop offset="1" stop-color="#A1383E"/>
</linearGradient>
<radialGradient id="paint9_radial_2345_32837" cx="0" cy="0" r="1" gradientUnits="userSpaceOnUse" gradientTransform="translate(10.4763 17.5143) rotate(-90) scale(9.9375 3.23171)">
<stop stop-color="#DB3665"/>
<stop offset="1" stop-color="#DB3665" stop-opacity="0"/>
</radialGradient>
<linearGradient id="paint10_linear_2345_32837" x1="20.4761" y1="14.0143" x2="29.9394" y2="14.0143" gradientUnits="userSpaceOnUse">
<stop offset="0.0924616" stop-color="#A52548"/>
<stop offset="0.26426" stop-color="#AF2A4A"/>
<stop offset="0.411842" stop-color="#BD2742"/>
<stop offset="0.588542" stop-color="#CF2239"/>
<stop offset="0.703125" stop-color="#DF1E30"/>
<stop offset="0.807292" stop-color="#E53240"/>
<stop offset="1" stop-color="#EC4953"/>
</linearGradient>
<radialGradient id="paint11_radial_2345_32837" cx="0" cy="0" r="1" gradientUnits="userSpaceOnUse" gradientTransform="translate(29.1307 15.3609) rotate(-62.8189) scale(0.911967 3.01957)">
<stop stop-color="#EC4953"/>
<stop offset="1" stop-color="#EC4953" stop-opacity="0"/>
</radialGradient>
<radialGradient id="paint12_radial_2345_32837" cx="0" cy="0" r="1" gradientUnits="userSpaceOnUse" gradientTransform="translate(27.625 12.077) rotate(79.0889) scale(8.66897 11.8263)">
<stop offset="0.615676" stop-color="#932128"/>
<stop offset="0.725744" stop-color="#932128" stop-opacity="0.711415"/>
<stop offset="1" stop-color="#932128" stop-opacity="0"/>
</radialGradient>
<radialGradient id="paint13_radial_2345_32837" cx="0" cy="0" r="1" gradientUnits="userSpaceOnUse" gradientTransform="translate(22.157 18.9512) rotate(-67.6447) scale(1.94397 6.76948)">
<stop stop-color="#DB3665" stop-opacity="0.68"/>
<stop offset="0.603794" stop-color="#DB3665" stop-opacity="0.25061"/>
<stop offset="1" stop-color="#DB3665" stop-opacity="0"/>
</radialGradient>
<radialGradient id="paint14_radial_2345_32837" cx="0" cy="0" r="1" gradientUnits="userSpaceOnUse" gradientTransform="translate(4.31444 12.077) rotate(100.911) scale(8.66897 11.8263)">
<stop offset="0.604246" stop-color="#97242A"/>
<stop offset="0.718758" stop-color="#96232A" stop-opacity="0.795969"/>
<stop offset="1" stop-color="#932128" stop-opacity="0"/>
</radialGradient>
<linearGradient id="paint15_linear_2345_32837" x1="19.0664" y1="17.7517" x2="29.8128" y2="17.7517" gradientUnits="userSpaceOnUse">
<stop stop-color="#BB1865"/>
<stop offset="1" stop-color="#DD1836"/>
</linearGradient>
<radialGradient id="paint16_radial_2345_32837" cx="0" cy="0" r="1" gradientUnits="userSpaceOnUse" gradientTransform="translate(21.0443 18.3831) rotate(115.821) scale(0.307129 4.50741)">
<stop stop-color="#CF4163"/>
<stop offset="1" stop-color="#CF4163" stop-opacity="0"/>
</radialGradient>
<radialGradient id="paint17_radial_2345_32837" cx="0" cy="0" r="1" gradientUnits="userSpaceOnUse" gradientTransform="translate(23.1222 19.4265) rotate(113.199) scale(0.203758 2.33033)">
<stop stop-color="#CF4163"/>
<stop offset="1" stop-color="#CF4163" stop-opacity="0"/>
</radialGradient>
<radialGradient id="paint18_radial_2345_32837" cx="0" cy="0" r="1" gradientUnits="userSpaceOnUse" gradientTransform="translate(25.0129 20.0864) rotate(101.768) scale(0.218634 0.966163)">
<stop stop-color="#CF4163"/>
<stop offset="1" stop-color="#CF4163" stop-opacity="0"/>
</radialGradient>
<radialGradient id="paint19_radial_2345_32837" cx="0" cy="0" r="1" gradientUnits="userSpaceOnUse" gradientTransform="translate(26.0206 20.1489) rotate(85.0302) scale(0.205894 0.909864)">
<stop stop-color="#CF4163"/>
<stop offset="1" stop-color="#CF4163" stop-opacity="0"/>
</radialGradient>
<radialGradient id="paint20_radial_2345_32837" cx="0" cy="0" r="1" gradientUnits="userSpaceOnUse" gradientTransform="translate(24.0039 19.3806) rotate(-39.1329) scale(6.39824 4.74801)">
<stop stop-color="#EC4953" stop-opacity="0"/>
<stop offset="0.937583" stop-color="#EC4953" stop-opacity="0"/>
<stop offset="0.960312" stop-color="#EC4953" stop-opacity="0.521299"/>
<stop offset="0.995152" stop-color="#EC4953"/>
</radialGradient>
<radialGradient id="paint21_radial_2345_32837" cx="0" cy="0" r="1" gradientUnits="userSpaceOnUse" gradientTransform="translate(20.1316 16.4139) rotate(57.3195) scale(0.963949 2.76664)">
<stop stop-color="#BB1865"/>
<stop offset="0.735846" stop-color="#BB1865" stop-opacity="0.710713"/>
<stop offset="1" stop-color="#BB1865" stop-opacity="0"/>
</radialGradient>
<linearGradient id="paint22_linear_2345_32837" x1="12.8731" y1="17.7517" x2="2.12667" y2="17.7517" gradientUnits="userSpaceOnUse">
<stop stop-color="#BB1865"/>
<stop offset="1" stop-color="#DD1836"/>
</linearGradient>
<radialGradient id="paint23_radial_2345_32837" cx="0" cy="0" r="1" gradientUnits="userSpaceOnUse" gradientTransform="translate(10.8952 18.3831) rotate(64.1788) scale(0.307129 4.50741)">
<stop stop-color="#CF4163"/>
<stop offset="1" stop-color="#CF4163" stop-opacity="0"/>
</radialGradient>
<radialGradient id="paint24_radial_2345_32837" cx="0" cy="0" r="1" gradientUnits="userSpaceOnUse" gradientTransform="translate(8.81724 19.4265) rotate(66.8015) scale(0.203758 2.33033)">
<stop stop-color="#CF4163"/>
<stop offset="1" stop-color="#CF4163" stop-opacity="0"/>
</radialGradient>
<radialGradient id="paint25_radial_2345_32837" cx="0" cy="0" r="1" gradientUnits="userSpaceOnUse" gradientTransform="translate(6.92657 20.0864) rotate(78.2319) scale(0.218634 0.966163)">
<stop stop-color="#CF4163"/>
<stop offset="1" stop-color="#CF4163" stop-opacity="0"/>
</radialGradient>
<radialGradient id="paint26_radial_2345_32837" cx="0" cy="0" r="1" gradientUnits="userSpaceOnUse" gradientTransform="translate(5.91881 20.1489) rotate(94.9698) scale(0.205894 0.909864)">
<stop stop-color="#CF4163"/>
<stop offset="1" stop-color="#CF4163" stop-opacity="0"/>
</radialGradient>
<radialGradient id="paint27_radial_2345_32837" cx="0" cy="0" r="1" gradientUnits="userSpaceOnUse" gradientTransform="translate(2.42312 16.0602) rotate(3.6717) scale(3.05865 14.6036)">
<stop stop-color="#A1383E"/>
<stop offset="1" stop-color="#A1383E" stop-opacity="0"/>
</radialGradient>
<radialGradient id="paint28_radial_2345_32837" cx="0" cy="0" r="1" gradientUnits="userSpaceOnUse" gradientTransform="translate(3.87848 12.9162) rotate(56.5671) scale(2.76699 13.2111)">
<stop stop-color="#A1383E"/>
<stop offset="1" stop-color="#A1383E" stop-opacity="0"/>
</radialGradient>
<radialGradient id="paint29_radial_2345_32837" cx="0" cy="0" r="1" gradientUnits="userSpaceOnUse" gradientTransform="translate(5.01017 16.5694) rotate(55.2836) scale(1.82304 2.68563)">
<stop offset="0.87267" stop-color="#CF4163"/>
<stop offset="0.930601" stop-color="#CF4163" stop-opacity="0.430456"/>
<stop offset="1" stop-color="#CF4163" stop-opacity="0"/>
</radialGradient>
<radialGradient id="paint30_radial_2345_32837" cx="0" cy="0" r="1" gradientUnits="userSpaceOnUse" gradientTransform="translate(11.7274 16.2145) rotate(114.545) scale(0.279148 6.28084)">
<stop stop-color="#CF4163"/>
<stop offset="0.507269" stop-color="#CF4163" stop-opacity="0.24"/>
<stop offset="1" stop-color="#CF4163" stop-opacity="0"/>
</radialGradient>
<radialGradient id="paint31_radial_2345_32837" cx="0" cy="0" r="1" gradientUnits="userSpaceOnUse" gradientTransform="translate(11.7274 16.2145) rotate(116.403) scale(0.305768 10.2244)">
<stop stop-color="#CF4163"/>
<stop offset="0.440196" stop-color="#CF4163" stop-opacity="0.482837"/>
<stop offset="0.747665" stop-color="#CF4163" stop-opacity="0"/>
</radialGradient>
<linearGradient id="paint32_linear_2345_32837" x1="16.0616" y1="7.1123" x2="16.0616" y2="20.1026" gradientUnits="userSpaceOnUse">
<stop stop-color="#C83065"/>
<stop offset="0.604167" stop-color="#D42648"/>
<stop offset="0.72244" stop-color="#DF1E30"/>
<stop offset="1" stop-color="#DF1E30"/>
</linearGradient>
<linearGradient id="paint33_linear_2345_32837" x1="11.7327" y1="12.703" x2="14.3885" y2="12.8894" gradientUnits="userSpaceOnUse">
<stop stop-color="#A2304B"/>
<stop offset="0.755154" stop-color="#A2304B" stop-opacity="0.158205"/>
<stop offset="1" stop-color="#A2304B" stop-opacity="0"/>
</linearGradient>
<radialGradient id="paint34_radial_2345_32837" cx="0" cy="0" r="1" gradientUnits="userSpaceOnUse" gradientTransform="translate(20.1193 17.5487) rotate(-180) scale(6.55618 0.735607)">
<stop stop-color="#F75053"/>
<stop offset="0.408689" stop-color="#F75053" stop-opacity="0.495851"/>
<stop offset="0.705088" stop-color="#F75053" stop-opacity="0.275699"/>
<stop offset="0.867157" stop-color="#F75053" stop-opacity="0.0918997"/>
<stop offset="1" stop-color="#F75053" stop-opacity="0"/>
</radialGradient>
<radialGradient id="paint35_radial_2345_32837" cx="0" cy="0" r="1" gradientUnits="userSpaceOnUse" gradientTransform="translate(18.6538 17.4337) rotate(176.197) scale(1.73257 1.33155)">
<stop stop-color="#F75053"/>
<stop offset="0.665274" stop-color="#F75053" stop-opacity="0.275699"/>
<stop offset="1" stop-color="#F75053" stop-opacity="0"/>
</radialGradient>
<radialGradient id="paint36_radial_2345_32837" cx="0" cy="0" r="1" gradientUnits="userSpaceOnUse" gradientTransform="translate(16.1582 20.4466) rotate(-90) scale(1.74007 5.27656)">
<stop stop-color="#F75053"/>
<stop offset="0.657293" stop-color="#F75053" stop-opacity="0.275699"/>
<stop offset="0.833823" stop-color="#F75053" stop-opacity="0.089939"/>
<stop offset="1" stop-color="#F75053" stop-opacity="0"/>
</radialGradient>
<radialGradient id="paint37_radial_2345_32837" cx="0" cy="0" r="1" gradientUnits="userSpaceOnUse" gradientTransform="translate(13.4832 18.4313) rotate(-100.333) scale(1.47656 0.486827)">
<stop stop-color="#F75053" stop-opacity="0.67"/>
<stop offset="0.296738" stop-color="#F75053" stop-opacity="0.551402"/>
<stop offset="0.62711" stop-color="#F75053" stop-opacity="0.275699"/>
<stop offset="1" stop-color="#F75053" stop-opacity="0"/>
</radialGradient>
<radialGradient id="paint38_radial_2345_32837" cx="0" cy="0" r="1" gradientUnits="userSpaceOnUse" gradientTransform="translate(13.9927 19.1393) rotate(-117.935) scale(0.953026 0.61878)">
<stop stop-color="#F75053" stop-opacity="0.67"/>
<stop offset="0.296738" stop-color="#F75053" stop-opacity="0.551402"/>
<stop offset="0.650946" stop-color="#F75053" stop-opacity="0.275699"/>
<stop offset="1" stop-color="#F75053" stop-opacity="0"/>
</radialGradient>
<linearGradient id="paint39_linear_2345_32837" x1="19.6767" y1="12.7496" x2="18.9322" y2="12.7496" gradientUnits="userSpaceOnUse">
<stop offset="0.185017" stop-color="#C11451"/>
<stop offset="0.750409" stop-color="#C11451" stop-opacity="0.149098"/>
<stop offset="1" stop-color="#C11451" stop-opacity="0"/>
</linearGradient>
<linearGradient id="paint40_linear_2345_32837" x1="12.5631" y1="12.7496" x2="13.4373" y2="12.784" gradientUnits="userSpaceOnUse">
<stop stop-color="#C11451"/>
<stop offset="0.750409" stop-color="#C11451" stop-opacity="0.149098"/>
<stop offset="1" stop-color="#C11451" stop-opacity="0"/>
</linearGradient>
<radialGradient id="paint41_radial_2345_32837" cx="0" cy="0" r="1" gradientUnits="userSpaceOnUse" gradientTransform="translate(16.075 20.179) rotate(-90) scale(1.40034 2.46651)">
<stop stop-color="#D12951"/>
<stop offset="1" stop-color="#D12951" stop-opacity="0"/>
</radialGradient>
<radialGradient id="paint42_radial_2345_32837" cx="0" cy="0" r="1" gradientUnits="userSpaceOnUse" gradientTransform="translate(18.8299 8.48094) rotate(101.086) scale(4.42602 0.924627)">
<stop stop-color="#DB3665"/>
<stop offset="0.385417" stop-color="#DB3665" stop-opacity="0.706791"/>
<stop offset="0.666667" stop-color="#DB3665" stop-opacity="0.262609"/>
<stop offset="1" stop-color="#DB3665" stop-opacity="0"/>
</radialGradient>
<linearGradient id="paint43_linear_2345_32837" x1="12.5211" y1="13.161" x2="13.0945" y2="13.161" gradientUnits="userSpaceOnUse">
<stop stop-color="#CC0B30"/>
<stop offset="0.616014" stop-color="#CC0B30" stop-opacity="0.260694"/>
<stop offset="1" stop-color="#CC0B30" stop-opacity="0"/>
</linearGradient>
<linearGradient id="paint44_linear_2345_32837" x1="19.584" y1="13.161" x2="19.0068" y2="13.161" gradientUnits="userSpaceOnUse">
<stop stop-color="#CC0B30"/>
<stop offset="0.616014" stop-color="#CC0B30" stop-opacity="0.260694"/>
<stop offset="1" stop-color="#CC0B30" stop-opacity="0"/>
</linearGradient>
<clipPath id="clip0_2345_32837">
<rect width="32" height="32" fill="white"/>
</clipPath>
</defs>
</svg>
