<svg width="20" height="20" viewBox="0 0 20 20" fill="none" xmlns="http://www.w3.org/2000/svg">
<path d="M2.6123 6.08057C1.96484 6.08057 1.44189 5.55762 1.44189 4.91846C1.44189 4.271 1.96484 3.74805 2.6123 3.74805C3.25146 3.74805 3.77441 4.271 3.77441 4.91846C3.77441 5.55762 3.25146 6.08057 2.6123 6.08057ZM6.48047 5.70703C6.04883 5.70703 5.7002 5.3501 5.7002 4.91846C5.7002 4.47852 6.04053 4.12988 6.48047 4.12988H17.7695C18.2095 4.12988 18.5581 4.47852 18.5581 4.91846C18.5581 5.3501 18.2095 5.70703 17.7695 5.70703H6.48047ZM2.6123 11.1772C1.96484 11.1772 1.44189 10.6543 1.44189 10.0151C1.44189 9.36768 1.96484 8.84473 2.6123 8.84473C3.25146 8.84473 3.77441 9.36768 3.77441 10.0151C3.77441 10.6543 3.25146 11.1772 2.6123 11.1772ZM6.48047 10.8037C6.04883 10.8037 5.7002 10.4468 5.7002 10.0151C5.7002 9.5752 6.04053 9.22656 6.48047 9.22656H17.7695C18.2095 9.22656 18.5581 9.5752 18.5581 10.0151C18.5581 10.4468 18.2095 10.8037 17.7695 10.8037H6.48047ZM2.6123 16.2739C1.96484 16.2739 1.44189 15.751 1.44189 15.1118C1.44189 14.4644 1.96484 13.9414 2.6123 13.9414C3.25146 13.9414 3.77441 14.4644 3.77441 15.1118C3.77441 15.751 3.25146 16.2739 2.6123 16.2739ZM6.48047 15.9004C6.04883 15.9004 5.7002 15.5435 5.7002 15.1118C5.7002 14.6719 6.04053 14.3232 6.48047 14.3232H17.7695C18.2095 14.3232 18.5581 14.6719 18.5581 15.1118C18.5581 15.5435 18.2095 15.9004 17.7695 15.9004H6.48047Z" fill="#737373"/>
</svg>
