<svg width="13" height="7" viewBox="0 0 13 7" fill="none" xmlns="http://www.w3.org/2000/svg">
<path d="M0.232422 5.60547L5.44141 0.273438C5.61914 0.0888672 5.82422 0 6.05664 0C6.28906 0 6.50098 0.0957031 6.67188 0.273438L11.8809 5.60547C12.0312 5.74902 12.1064 5.94043 12.1064 6.15918C12.1064 6.60352 11.7578 6.95215 11.3203 6.95215C11.1016 6.95215 10.8965 6.87012 10.7461 6.71289L6.05664 1.90723L1.36719 6.71289C1.2168 6.87012 1.01172 6.95215 0.792969 6.95215C0.348633 6.95215 0 6.60352 0 6.15918C0 5.94043 0.0820312 5.74902 0.232422 5.60547Z" fill="#6A6A6A" fill-opacity="0.6"/>
</svg>
