<svg width="20" height="20" viewBox="0 0 20 20" fill="none" xmlns="http://www.w3.org/2000/svg">
<path d="M15.3125 10.0068C15.3125 10.2891 15.2129 10.5298 14.9888 10.7456L8.51416 17.0791C8.33154 17.2617 8.10742 17.353 7.8418 17.353C7.30225 17.353 6.87061 16.938 6.87061 16.3901C6.87061 16.1245 6.98682 15.8838 7.16113 15.7012L13.0049 10.0068L7.16113 4.3125C6.97852 4.12158 6.87061 3.88086 6.87061 3.61523C6.87061 3.07568 7.30225 2.66064 7.8418 2.66064C8.10742 2.66064 8.33154 2.75195 8.51416 2.93457L14.9888 9.26807C15.2046 9.48389 15.3125 9.72461 15.3125 10.0068Z" fill="white"/>
</svg>
