<svg width="32" height="32" viewBox="0 0 32 32" fill="none" xmlns="http://www.w3.org/2000/svg">
<g clip-path="url(#clip0_2345_49498)">
<path d="M14.7539 30.1033C15.3799 30.4605 16.1398 30.4401 16.7634 30.0787C20.4182 27.9606 26.6085 23.2205 29.0582 17.0862C32.6994 8.99808 24.1499 2.54163 18.241 7.18533C17.6539 7.64671 16.9229 8.17158 16.3939 8.67421C16.1094 8.94455 15.6125 8.97214 15.3196 8.71091C14.6173 8.08451 13.5765 7.30906 12.899 6.85072C7.86159 3.44256 -1.30417 7.93509 2.60562 17.5232C4.02182 21.7787 10.7107 27.7962 14.7539 30.1033Z" fill="url(#paint0_radial_2345_49498)"/>
<path d="M14.7539 30.1033C15.3799 30.4605 16.1398 30.4401 16.7634 30.0787C20.4182 27.9606 26.6085 23.2205 29.0582 17.0862C32.6994 8.99808 24.1499 2.54163 18.241 7.18533C17.6539 7.64671 16.9229 8.17158 16.3939 8.67421C16.1094 8.94455 15.6125 8.97214 15.3196 8.71091C14.6173 8.08451 13.5765 7.30906 12.899 6.85072C7.86159 3.44256 -1.30417 7.93509 2.60562 17.5232C4.02182 21.7787 10.7107 27.7962 14.7539 30.1033Z" fill="url(#paint1_radial_2345_49498)"/>
<path d="M14.7539 30.1033C15.3799 30.4605 16.1398 30.4401 16.7634 30.0787C20.4182 27.9606 26.6085 23.2205 29.0582 17.0862C32.6994 8.99808 24.1499 2.54163 18.241 7.18533C17.6539 7.64671 16.9229 8.17158 16.3939 8.67421C16.1094 8.94455 15.6125 8.97214 15.3196 8.71091C14.6173 8.08451 13.5765 7.30906 12.899 6.85072C7.86159 3.44256 -1.30417 7.93509 2.60562 17.5232C4.02182 21.7787 10.7107 27.7962 14.7539 30.1033Z" fill="url(#paint2_radial_2345_49498)"/>
<path d="M14.7539 30.1033C15.3799 30.4605 16.1398 30.4401 16.7634 30.0787C20.4182 27.9606 26.6085 23.2205 29.0582 17.0862C32.6994 8.99808 24.1499 2.54163 18.241 7.18533C17.6539 7.64671 16.9229 8.17158 16.3939 8.67421C16.1094 8.94455 15.6125 8.97214 15.3196 8.71091C14.6173 8.08451 13.5765 7.30906 12.899 6.85072C7.86159 3.44256 -1.30417 7.93509 2.60562 17.5232C4.02182 21.7787 10.7107 27.7962 14.7539 30.1033Z" fill="url(#paint3_linear_2345_49498)"/>
<path d="M14.7539 30.1033C15.3799 30.4605 16.1398 30.4401 16.7634 30.0787C20.4182 27.9606 26.6085 23.2205 29.0582 17.0862C32.6994 8.99808 24.1499 2.54163 18.241 7.18533C17.6539 7.64671 16.9229 8.17158 16.3939 8.67421C16.1094 8.94455 15.6125 8.97214 15.3196 8.71091C14.6173 8.08451 13.5765 7.30906 12.899 6.85072C7.86159 3.44256 -1.30417 7.93509 2.60562 17.5232C4.02182 21.7787 10.7107 27.7962 14.7539 30.1033Z" fill="url(#paint4_linear_2345_49498)"/>
<path d="M14.7539 30.1033C15.3799 30.4605 16.1398 30.4401 16.7634 30.0787C20.4182 27.9606 26.6085 23.2205 29.0582 17.0862C32.6994 8.99808 24.1499 2.54163 18.241 7.18533C17.6539 7.64671 16.9229 8.17158 16.3939 8.67421C16.1094 8.94455 15.6125 8.97214 15.3196 8.71091C14.6173 8.08451 13.5765 7.30906 12.899 6.85072C7.86159 3.44256 -1.30417 7.93509 2.60562 17.5232C4.02182 21.7787 10.7107 27.7962 14.7539 30.1033Z" fill="url(#paint5_radial_2345_49498)"/>
<path d="M14.7539 30.1033C15.3799 30.4605 16.1398 30.4401 16.7634 30.0787C20.4182 27.9606 26.6085 23.2205 29.0582 17.0862C32.6994 8.99808 24.1499 2.54163 18.241 7.18533C17.6539 7.64671 16.9229 8.17158 16.3939 8.67421C16.1094 8.94455 15.6125 8.97214 15.3196 8.71091C14.6173 8.08451 13.5765 7.30906 12.899 6.85072C7.86159 3.44256 -1.30417 7.93509 2.60562 17.5232C4.02182 21.7787 10.7107 27.7962 14.7539 30.1033Z" fill="url(#paint6_radial_2345_49498)"/>
<path d="M14.7539 30.1033C15.3799 30.4605 16.1398 30.4401 16.7634 30.0787C20.4182 27.9606 26.6085 23.2205 29.0582 17.0862C32.6994 8.99808 24.1499 2.54163 18.241 7.18533C17.6539 7.64671 16.9229 8.17158 16.3939 8.67421C16.1094 8.94455 15.6125 8.97214 15.3196 8.71091C14.6173 8.08451 13.5765 7.30906 12.899 6.85072C7.86159 3.44256 -1.30417 7.93509 2.60562 17.5232C4.02182 21.7787 10.7107 27.7962 14.7539 30.1033Z" fill="url(#paint7_radial_2345_49498)"/>
<path d="M14.7539 30.1033C15.3799 30.4605 16.1398 30.4401 16.7634 30.0787C20.4182 27.9606 26.6085 23.2205 29.0582 17.0862C32.6994 8.99808 24.1499 2.54163 18.241 7.18533C17.6539 7.64671 16.9229 8.17158 16.3939 8.67421C16.1094 8.94455 15.6125 8.97214 15.3196 8.71091C14.6173 8.08451 13.5765 7.30906 12.899 6.85072C7.86159 3.44256 -1.30417 7.93509 2.60562 17.5232C4.02182 21.7787 10.7107 27.7962 14.7539 30.1033Z" fill="url(#paint8_radial_2345_49498)"/>
<path d="M14.7539 30.1033C15.3799 30.4605 16.1398 30.4401 16.7634 30.0787C20.4182 27.9606 26.6085 23.2205 29.0582 17.0862C32.6994 8.99808 24.1499 2.54163 18.241 7.18533C17.6539 7.64671 16.9229 8.17158 16.3939 8.67421C16.1094 8.94455 15.6125 8.97214 15.3196 8.71091C14.6173 8.08451 13.5765 7.30906 12.899 6.85072C7.86159 3.44256 -1.30417 7.93509 2.60562 17.5232C4.02182 21.7787 10.7107 27.7962 14.7539 30.1033Z" fill="url(#paint9_radial_2345_49498)"/>
<path d="M14.7539 30.1033C15.3799 30.4605 16.1398 30.4401 16.7634 30.0787C20.4182 27.9606 26.6085 23.2205 29.0582 17.0862C32.6994 8.99808 24.1499 2.54163 18.241 7.18533C17.6539 7.64671 16.9229 8.17158 16.3939 8.67421C16.1094 8.94455 15.6125 8.97214 15.3196 8.71091C14.6173 8.08451 13.5765 7.30906 12.899 6.85072C7.86159 3.44256 -1.30417 7.93509 2.60562 17.5232C4.02182 21.7787 10.7107 27.7962 14.7539 30.1033Z" fill="url(#paint10_radial_2345_49498)"/>
<path d="M14.7539 30.1033C15.3799 30.4605 16.1398 30.4401 16.7634 30.0787C20.4182 27.9606 26.6085 23.2205 29.0582 17.0862C32.6994 8.99808 24.1499 2.54163 18.241 7.18533C17.6539 7.64671 16.9229 8.17158 16.3939 8.67421C16.1094 8.94455 15.6125 8.97214 15.3196 8.71091C14.6173 8.08451 13.5765 7.30906 12.899 6.85072C7.86159 3.44256 -1.30417 7.93509 2.60562 17.5232C4.02182 21.7787 10.7107 27.7962 14.7539 30.1033Z" fill="url(#paint11_radial_2345_49498)"/>
<path d="M14.7539 30.1033C15.3799 30.4605 16.1398 30.4401 16.7634 30.0787C20.4182 27.9606 26.6085 23.2205 29.0582 17.0862C32.6994 8.99808 24.1499 2.54163 18.241 7.18533C17.6539 7.64671 16.9229 8.17158 16.3939 8.67421C16.1094 8.94455 15.6125 8.97214 15.3196 8.71091C14.6173 8.08451 13.5765 7.30906 12.899 6.85072C7.86159 3.44256 -1.30417 7.93509 2.60562 17.5232C4.02182 21.7787 10.7107 27.7962 14.7539 30.1033Z" fill="url(#paint12_radial_2345_49498)"/>
<path d="M14.9741 27.734C15.4677 28.0156 16.0668 27.9995 16.5584 27.7146C19.4399 26.0447 24.3204 22.3076 26.2517 17.4713C29.1224 11.0946 22.3819 6.00427 17.7234 9.66538C17.2605 10.0291 16.6842 10.4429 16.2671 10.8392C16.0428 11.0523 15.651 11.0741 15.4201 10.8681C14.8664 10.3743 14.0459 9.76293 13.5118 9.40157C9.54022 6.71457 2.3139 10.2565 5.39639 17.8158C6.51293 21.1709 11.7865 25.9151 14.9741 27.734Z" fill="url(#paint13_radial_2345_49498)"/>
<path d="M14.9741 27.734C15.4677 28.0156 16.0668 27.9995 16.5584 27.7146C19.4399 26.0447 24.3204 22.3076 26.2517 17.4713C29.1224 11.0946 22.3819 6.00427 17.7234 9.66538C17.2605 10.0291 16.6842 10.4429 16.2671 10.8392C16.0428 11.0523 15.651 11.0741 15.4201 10.8681C14.8664 10.3743 14.0459 9.76293 13.5118 9.40157C9.54022 6.71457 2.3139 10.2565 5.39639 17.8158C6.51293 21.1709 11.7865 25.9151 14.9741 27.734Z" fill="url(#paint14_radial_2345_49498)"/>
<path d="M14.9741 27.734C15.4677 28.0156 16.0668 27.9995 16.5584 27.7146C19.4399 26.0447 24.3204 22.3076 26.2517 17.4713C29.1224 11.0946 22.3819 6.00427 17.7234 9.66538C17.2605 10.0291 16.6842 10.4429 16.2671 10.8392C16.0428 11.0523 15.651 11.0741 15.4201 10.8681C14.8664 10.3743 14.0459 9.76293 13.5118 9.40157C9.54022 6.71457 2.3139 10.2565 5.39639 17.8158C6.51293 21.1709 11.7865 25.9151 14.9741 27.734Z" fill="url(#paint15_radial_2345_49498)"/>
<path d="M14.9741 27.734C15.4677 28.0156 16.0668 27.9995 16.5584 27.7146C19.4399 26.0447 24.3204 22.3076 26.2517 17.4713C29.1224 11.0946 22.3819 6.00427 17.7234 9.66538C17.2605 10.0291 16.6842 10.4429 16.2671 10.8392C16.0428 11.0523 15.651 11.0741 15.4201 10.8681C14.8664 10.3743 14.0459 9.76293 13.5118 9.40157C9.54022 6.71457 2.3139 10.2565 5.39639 17.8158C6.51293 21.1709 11.7865 25.9151 14.9741 27.734Z" fill="url(#paint16_linear_2345_49498)"/>
<path d="M14.9741 27.734C15.4677 28.0156 16.0668 27.9995 16.5584 27.7146C19.4399 26.0447 24.3204 22.3076 26.2517 17.4713C29.1224 11.0946 22.3819 6.00427 17.7234 9.66538C17.2605 10.0291 16.6842 10.4429 16.2671 10.8392C16.0428 11.0523 15.651 11.0741 15.4201 10.8681C14.8664 10.3743 14.0459 9.76293 13.5118 9.40157C9.54022 6.71457 2.3139 10.2565 5.39639 17.8158C6.51293 21.1709 11.7865 25.9151 14.9741 27.734Z" fill="url(#paint17_linear_2345_49498)"/>
<path d="M14.9741 27.734C15.4677 28.0156 16.0668 27.9995 16.5584 27.7146C19.4399 26.0447 24.3204 22.3076 26.2517 17.4713C29.1224 11.0946 22.3819 6.00427 17.7234 9.66538C17.2605 10.0291 16.6842 10.4429 16.2671 10.8392C16.0428 11.0523 15.651 11.0741 15.4201 10.8681C14.8664 10.3743 14.0459 9.76293 13.5118 9.40157C9.54022 6.71457 2.3139 10.2565 5.39639 17.8158C6.51293 21.1709 11.7865 25.9151 14.9741 27.734Z" fill="url(#paint18_radial_2345_49498)"/>
<path d="M14.9741 27.734C15.4677 28.0156 16.0668 27.9995 16.5584 27.7146C19.4399 26.0447 24.3204 22.3076 26.2517 17.4713C29.1224 11.0946 22.3819 6.00427 17.7234 9.66538C17.2605 10.0291 16.6842 10.4429 16.2671 10.8392C16.0428 11.0523 15.651 11.0741 15.4201 10.8681C14.8664 10.3743 14.0459 9.76293 13.5118 9.40157C9.54022 6.71457 2.3139 10.2565 5.39639 17.8158C6.51293 21.1709 11.7865 25.9151 14.9741 27.734Z" fill="url(#paint19_radial_2345_49498)"/>
<path d="M14.9741 27.734C15.4677 28.0156 16.0668 27.9995 16.5584 27.7146C19.4399 26.0447 24.3204 22.3076 26.2517 17.4713C29.1224 11.0946 22.3819 6.00427 17.7234 9.66538C17.2605 10.0291 16.6842 10.4429 16.2671 10.8392C16.0428 11.0523 15.651 11.0741 15.4201 10.8681C14.8664 10.3743 14.0459 9.76293 13.5118 9.40157C9.54022 6.71457 2.3139 10.2565 5.39639 17.8158C6.51293 21.1709 11.7865 25.9151 14.9741 27.734Z" fill="url(#paint20_radial_2345_49498)"/>
<path d="M14.9741 27.734C15.4677 28.0156 16.0668 27.9995 16.5584 27.7146C19.4399 26.0447 24.3204 22.3076 26.2517 17.4713C29.1224 11.0946 22.3819 6.00427 17.7234 9.66538C17.2605 10.0291 16.6842 10.4429 16.2671 10.8392C16.0428 11.0523 15.651 11.0741 15.4201 10.8681C14.8664 10.3743 14.0459 9.76293 13.5118 9.40157C9.54022 6.71457 2.3139 10.2565 5.39639 17.8158C6.51293 21.1709 11.7865 25.9151 14.9741 27.734Z" fill="url(#paint21_radial_2345_49498)"/>
<path d="M14.9741 27.734C15.4677 28.0156 16.0668 27.9995 16.5584 27.7146C19.4399 26.0447 24.3204 22.3076 26.2517 17.4713C29.1224 11.0946 22.3819 6.00427 17.7234 9.66538C17.2605 10.0291 16.6842 10.4429 16.2671 10.8392C16.0428 11.0523 15.651 11.0741 15.4201 10.8681C14.8664 10.3743 14.0459 9.76293 13.5118 9.40157C9.54022 6.71457 2.3139 10.2565 5.39639 17.8158C6.51293 21.1709 11.7865 25.9151 14.9741 27.734Z" fill="url(#paint22_radial_2345_49498)"/>
<path d="M14.9741 27.734C15.4677 28.0156 16.0668 27.9995 16.5584 27.7146C19.4399 26.0447 24.3204 22.3076 26.2517 17.4713C29.1224 11.0946 22.3819 6.00427 17.7234 9.66538C17.2605 10.0291 16.6842 10.4429 16.2671 10.8392C16.0428 11.0523 15.651 11.0741 15.4201 10.8681C14.8664 10.3743 14.0459 9.76293 13.5118 9.40157C9.54022 6.71457 2.3139 10.2565 5.39639 17.8158C6.51293 21.1709 11.7865 25.9151 14.9741 27.734Z" fill="url(#paint23_radial_2345_49498)"/>
<path d="M14.9741 27.734C15.4677 28.0156 16.0668 27.9995 16.5584 27.7146C19.4399 26.0447 24.3204 22.3076 26.2517 17.4713C29.1224 11.0946 22.3819 6.00427 17.7234 9.66538C17.2605 10.0291 16.6842 10.4429 16.2671 10.8392C16.0428 11.0523 15.651 11.0741 15.4201 10.8681C14.8664 10.3743 14.0459 9.76293 13.5118 9.40157C9.54022 6.71457 2.3139 10.2565 5.39639 17.8158C6.51293 21.1709 11.7865 25.9151 14.9741 27.734Z" fill="url(#paint24_radial_2345_49498)"/>
<path d="M14.9741 27.734C15.4677 28.0156 16.0668 27.9995 16.5584 27.7146C19.4399 26.0447 24.3204 22.3076 26.2517 17.4713C29.1224 11.0946 22.3819 6.00427 17.7234 9.66538C17.2605 10.0291 16.6842 10.4429 16.2671 10.8392C16.0428 11.0523 15.651 11.0741 15.4201 10.8681C14.8664 10.3743 14.0459 9.76293 13.5118 9.40157C9.54022 6.71457 2.3139 10.2565 5.39639 17.8158C6.51293 21.1709 11.7865 25.9151 14.9741 27.734Z" fill="url(#paint25_radial_2345_49498)"/>
<path d="M14.9741 27.734C15.4677 28.0156 16.0668 27.9995 16.5584 27.7146C19.4399 26.0447 24.3204 22.3076 26.2517 17.4713C29.1224 11.0946 22.3819 6.00427 17.7234 9.66538C17.2605 10.0291 16.6842 10.4429 16.2671 10.8392C16.0428 11.0523 15.651 11.0741 15.4201 10.8681C14.8664 10.3743 14.0459 9.76293 13.5118 9.40157C9.54022 6.71457 2.3139 10.2565 5.39639 17.8158C6.51293 21.1709 11.7865 25.9151 14.9741 27.734Z" fill="url(#paint26_radial_2345_49498)"/>
<path d="M15.1845 24.7639C15.4997 24.9438 15.8824 24.9335 16.1963 24.7516C18.0366 23.685 21.1536 21.2983 22.3871 18.2095C24.2205 14.137 19.9156 10.886 16.9404 13.2243C16.6448 13.4566 16.2767 13.7208 16.0103 13.9739C15.8671 14.1101 15.6168 14.1239 15.4694 13.9924C15.1157 13.677 14.5917 13.2866 14.2506 13.0558C11.7141 11.3397 7.09895 13.6018 9.06761 18.4296C9.7807 20.5723 13.1487 23.6023 15.1845 24.7639Z" fill="url(#paint27_radial_2345_49498)"/>
<path d="M15.1845 24.7639C15.4997 24.9438 15.8824 24.9335 16.1963 24.7516C18.0366 23.685 21.1536 21.2983 22.3871 18.2095C24.2205 14.137 19.9156 10.886 16.9404 13.2243C16.6448 13.4566 16.2767 13.7208 16.0103 13.9739C15.8671 14.1101 15.6168 14.1239 15.4694 13.9924C15.1157 13.677 14.5917 13.2866 14.2506 13.0558C11.7141 11.3397 7.09895 13.6018 9.06761 18.4296C9.7807 20.5723 13.1487 23.6023 15.1845 24.7639Z" fill="url(#paint28_radial_2345_49498)"/>
<path d="M15.1845 24.7639C15.4997 24.9438 15.8824 24.9335 16.1963 24.7516C18.0366 23.685 21.1536 21.2983 22.3871 18.2095C24.2205 14.137 19.9156 10.886 16.9404 13.2243C16.6448 13.4566 16.2767 13.7208 16.0103 13.9739C15.8671 14.1101 15.6168 14.1239 15.4694 13.9924C15.1157 13.677 14.5917 13.2866 14.2506 13.0558C11.7141 11.3397 7.09895 13.6018 9.06761 18.4296C9.7807 20.5723 13.1487 23.6023 15.1845 24.7639Z" fill="url(#paint29_radial_2345_49498)"/>
<path d="M15.1845 24.7639C15.4997 24.9438 15.8824 24.9335 16.1963 24.7516C18.0366 23.685 21.1536 21.2983 22.3871 18.2095C24.2205 14.137 19.9156 10.886 16.9404 13.2243C16.6448 13.4566 16.2767 13.7208 16.0103 13.9739C15.8671 14.1101 15.6168 14.1239 15.4694 13.9924C15.1157 13.677 14.5917 13.2866 14.2506 13.0558C11.7141 11.3397 7.09895 13.6018 9.06761 18.4296C9.7807 20.5723 13.1487 23.6023 15.1845 24.7639Z" fill="url(#paint30_radial_2345_49498)"/>
<path d="M15.1845 24.7639C15.4997 24.9438 15.8824 24.9335 16.1963 24.7516C18.0366 23.685 21.1536 21.2983 22.3871 18.2095C24.2205 14.137 19.9156 10.886 16.9404 13.2243C16.6448 13.4566 16.2767 13.7208 16.0103 13.9739C15.8671 14.1101 15.6168 14.1239 15.4694 13.9924C15.1157 13.677 14.5917 13.2866 14.2506 13.0558C11.7141 11.3397 7.09895 13.6018 9.06761 18.4296C9.7807 20.5723 13.1487 23.6023 15.1845 24.7639Z" fill="url(#paint31_linear_2345_49498)"/>
<path d="M15.1845 24.7639C15.4997 24.9438 15.8824 24.9335 16.1963 24.7516C18.0366 23.685 21.1536 21.2983 22.3871 18.2095C24.2205 14.137 19.9156 10.886 16.9404 13.2243C16.6448 13.4566 16.2767 13.7208 16.0103 13.9739C15.8671 14.1101 15.6168 14.1239 15.4694 13.9924C15.1157 13.677 14.5917 13.2866 14.2506 13.0558C11.7141 11.3397 7.09895 13.6018 9.06761 18.4296C9.7807 20.5723 13.1487 23.6023 15.1845 24.7639Z" fill="url(#paint32_linear_2345_49498)"/>
<path d="M15.1845 24.7639C15.4997 24.9438 15.8824 24.9335 16.1963 24.7516C18.0366 23.685 21.1536 21.2983 22.3871 18.2095C24.2205 14.137 19.9156 10.886 16.9404 13.2243C16.6448 13.4566 16.2767 13.7208 16.0103 13.9739C15.8671 14.1101 15.6168 14.1239 15.4694 13.9924C15.1157 13.677 14.5917 13.2866 14.2506 13.0558C11.7141 11.3397 7.09895 13.6018 9.06761 18.4296C9.7807 20.5723 13.1487 23.6023 15.1845 24.7639Z" fill="url(#paint33_radial_2345_49498)"/>
<path d="M15.1845 24.7639C15.4997 24.9438 15.8824 24.9335 16.1963 24.7516C18.0366 23.685 21.1536 21.2983 22.3871 18.2095C24.2205 14.137 19.9156 10.886 16.9404 13.2243C16.6448 13.4566 16.2767 13.7208 16.0103 13.9739C15.8671 14.1101 15.6168 14.1239 15.4694 13.9924C15.1157 13.677 14.5917 13.2866 14.2506 13.0558C11.7141 11.3397 7.09895 13.6018 9.06761 18.4296C9.7807 20.5723 13.1487 23.6023 15.1845 24.7639Z" fill="url(#paint34_radial_2345_49498)"/>
<path d="M15.1845 24.7639C15.4997 24.9438 15.8824 24.9335 16.1963 24.7516C18.0366 23.685 21.1536 21.2983 22.3871 18.2095C24.2205 14.137 19.9156 10.886 16.9404 13.2243C16.6448 13.4566 16.2767 13.7208 16.0103 13.9739C15.8671 14.1101 15.6168 14.1239 15.4694 13.9924C15.1157 13.677 14.5917 13.2866 14.2506 13.0558C11.7141 11.3397 7.09895 13.6018 9.06761 18.4296C9.7807 20.5723 13.1487 23.6023 15.1845 24.7639Z" fill="url(#paint35_radial_2345_49498)"/>
<path d="M15.1845 24.7639C15.4997 24.9438 15.8824 24.9335 16.1963 24.7516C18.0366 23.685 21.1536 21.2983 22.3871 18.2095C24.2205 14.137 19.9156 10.886 16.9404 13.2243C16.6448 13.4566 16.2767 13.7208 16.0103 13.9739C15.8671 14.1101 15.6168 14.1239 15.4694 13.9924C15.1157 13.677 14.5917 13.2866 14.2506 13.0558C11.7141 11.3397 7.09895 13.6018 9.06761 18.4296C9.7807 20.5723 13.1487 23.6023 15.1845 24.7639Z" fill="url(#paint36_radial_2345_49498)"/>
<path d="M15.1845 24.7639C15.4997 24.9438 15.8824 24.9335 16.1963 24.7516C18.0366 23.685 21.1536 21.2983 22.3871 18.2095C24.2205 14.137 19.9156 10.886 16.9404 13.2243C16.6448 13.4566 16.2767 13.7208 16.0103 13.9739C15.8671 14.1101 15.6168 14.1239 15.4694 13.9924C15.1157 13.677 14.5917 13.2866 14.2506 13.0558C11.7141 11.3397 7.09895 13.6018 9.06761 18.4296C9.7807 20.5723 13.1487 23.6023 15.1845 24.7639Z" fill="url(#paint37_radial_2345_49498)"/>
<path d="M15.1845 24.7639C15.4997 24.9438 15.8824 24.9335 16.1963 24.7516C18.0366 23.685 21.1536 21.2983 22.3871 18.2095C24.2205 14.137 19.9156 10.886 16.9404 13.2243C16.6448 13.4566 16.2767 13.7208 16.0103 13.9739C15.8671 14.1101 15.6168 14.1239 15.4694 13.9924C15.1157 13.677 14.5917 13.2866 14.2506 13.0558C11.7141 11.3397 7.09895 13.6018 9.06761 18.4296C9.7807 20.5723 13.1487 23.6023 15.1845 24.7639Z" fill="url(#paint38_radial_2345_49498)"/>
<path d="M15.1845 24.7639C15.4997 24.9438 15.8824 24.9335 16.1963 24.7516C18.0366 23.685 21.1536 21.2983 22.3871 18.2095C24.2205 14.137 19.9156 10.886 16.9404 13.2243C16.6448 13.4566 16.2767 13.7208 16.0103 13.9739C15.8671 14.1101 15.6168 14.1239 15.4694 13.9924C15.1157 13.677 14.5917 13.2866 14.2506 13.0558C11.7141 11.3397 7.09895 13.6018 9.06761 18.4296C9.7807 20.5723 13.1487 23.6023 15.1845 24.7639Z" fill="url(#paint39_radial_2345_49498)"/>
<path d="M15.1845 24.7639C15.4997 24.9438 15.8824 24.9335 16.1963 24.7516C18.0366 23.685 21.1536 21.2983 22.3871 18.2095C24.2205 14.137 19.9156 10.886 16.9404 13.2243C16.6448 13.4566 16.2767 13.7208 16.0103 13.9739C15.8671 14.1101 15.6168 14.1239 15.4694 13.9924C15.1157 13.677 14.5917 13.2866 14.2506 13.0558C11.7141 11.3397 7.09895 13.6018 9.06761 18.4296C9.7807 20.5723 13.1487 23.6023 15.1845 24.7639Z" fill="url(#paint40_radial_2345_49498)"/>
</g>
<defs>
<radialGradient id="paint0_radial_2345_49498" cx="0" cy="0" r="1" gradientTransform="matrix(-13.3563 -27.125 -68.0929 32.2131 21.818 32.6112)" gradientUnits="userSpaceOnUse">
<stop offset="0.270833" stop-color="#FFBBE4"/>
<stop offset="1" stop-color="#FF99FF"/>
</radialGradient>
<radialGradient id="paint1_radial_2345_49498" cx="0" cy="0" r="1" gradientUnits="userSpaceOnUse" gradientTransform="translate(18.6251 18.9771) rotate(-156.431) scale(20.3201 23.2459)">
<stop offset="0.686615" stop-color="#D191CF" stop-opacity="0"/>
<stop offset="0.881234" stop-color="#D191CF"/>
</radialGradient>
<radialGradient id="paint2_radial_2345_49498" cx="0" cy="0" r="1" gradientUnits="userSpaceOnUse" gradientTransform="translate(15.2384 14.5708) rotate(90) scale(20.0866)">
<stop offset="0.671096" stop-color="#FF7AF2" stop-opacity="0"/>
<stop offset="0.933555" stop-color="#FFBCE6"/>
</radialGradient>
<linearGradient id="paint3_linear_2345_49498" x1="17.4554" y1="16.9221" x2="25.5841" y2="26.5959" gradientUnits="userSpaceOnUse">
<stop offset="0.694491" stop-color="#FF7AF2" stop-opacity="0"/>
<stop offset="0.933555" stop-color="#FFBCE6"/>
</linearGradient>
<linearGradient id="paint4_linear_2345_49498" x1="16.4477" y1="17.3252" x2="6.90821" y2="28.0739" gradientUnits="userSpaceOnUse">
<stop offset="0.694491" stop-color="#FF7AF2" stop-opacity="0"/>
<stop offset="0.933555" stop-color="#FFBCE6"/>
</linearGradient>
<radialGradient id="paint5_radial_2345_49498" cx="0" cy="0" r="1" gradientUnits="userSpaceOnUse" gradientTransform="translate(18.0658 13.6377) rotate(164.618) scale(17.4645 18.4441)">
<stop offset="0.802083" stop-color="#FF73A6" stop-opacity="0"/>
<stop offset="1" stop-color="#FF93BA" stop-opacity="0.6"/>
</radialGradient>
<radialGradient id="paint6_radial_2345_49498" cx="0" cy="0" r="1" gradientTransform="matrix(-6.54725 8.02002 -5.82605 -3.67144 26.5973 9.97404)" gradientUnits="userSpaceOnUse">
<stop stop-color="#FF93BA" stop-opacity="0.5"/>
<stop offset="1" stop-color="#FF73A6" stop-opacity="0"/>
</radialGradient>
<radialGradient id="paint7_radial_2345_49498" cx="0" cy="0" r="1" gradientTransform="matrix(2.34446 2.39331 -1.38973 1.74202 13.0844 12.8381)" gradientUnits="userSpaceOnUse">
<stop stop-color="#FF93BA" stop-opacity="0.4"/>
<stop offset="1" stop-color="#FF73A6" stop-opacity="0"/>
</radialGradient>
<radialGradient id="paint8_radial_2345_49498" cx="0" cy="0" r="1" gradientUnits="userSpaceOnUse" gradientTransform="translate(22.853 7.36765) rotate(176.279) scale(3.01019 1.95594)">
<stop stop-color="#FF93BA" stop-opacity="0.3"/>
<stop offset="1" stop-color="#FF73A6" stop-opacity="0"/>
</radialGradient>
<radialGradient id="paint9_radial_2345_49498" cx="0" cy="0" r="1" gradientUnits="userSpaceOnUse" gradientTransform="translate(8.34666 7.44091) rotate(1.07082) scale(2.61356 1.33717)">
<stop stop-color="#FF93BA" stop-opacity="0.3"/>
<stop offset="1" stop-color="#FF73A6" stop-opacity="0"/>
</radialGradient>
<radialGradient id="paint10_radial_2345_49498" cx="0" cy="0" r="1" gradientUnits="userSpaceOnUse" gradientTransform="translate(17.6268 13.9126) rotate(-90) scale(5.88558 2.15172)">
<stop stop-color="#FA5066" stop-opacity="0.7"/>
<stop offset="1" stop-color="#FA5066" stop-opacity="0"/>
</radialGradient>
<radialGradient id="paint11_radial_2345_49498" cx="0" cy="0" r="1" gradientUnits="userSpaceOnUse" gradientTransform="translate(23.6874 12.0756) rotate(-151.991) scale(6.45453)">
<stop stop-color="#F8D0E3" stop-opacity="0.7"/>
<stop offset="1" stop-color="#F8D0E3" stop-opacity="0"/>
</radialGradient>
<radialGradient id="paint12_radial_2345_49498" cx="0" cy="0" r="1" gradientUnits="userSpaceOnUse" gradientTransform="translate(10.6251 15.8521) rotate(51.5707) scale(8.57841 6.30379)">
<stop offset="0.723958" stop-color="#DB58AB"/>
<stop offset="1" stop-color="#DB58AB" stop-opacity="0"/>
</radialGradient>
<radialGradient id="paint13_radial_2345_49498" cx="0" cy="0" r="1" gradientTransform="matrix(-3.67363 -26.3145 -65.2652 8.31469 16.4799 31.1448)" gradientUnits="userSpaceOnUse">
<stop offset="0.29664" stop-color="#FF7EB4"/>
<stop offset="0.791667" stop-color="#FF70D7"/>
<stop offset="1" stop-color="#FF71E8"/>
</radialGradient>
<radialGradient id="paint14_radial_2345_49498" cx="0" cy="0" r="1" gradientUnits="userSpaceOnUse" gradientTransform="translate(18.9048 18.666) rotate(-158.663) scale(18.1958 25.7223)">
<stop offset="0.559169" stop-color="#FF0000" stop-opacity="0"/>
<stop offset="0.833898" stop-color="#BB0000" stop-opacity="0.4"/>
</radialGradient>
<radialGradient id="paint15_radial_2345_49498" cx="0" cy="0" r="1" gradientUnits="userSpaceOnUse" gradientTransform="translate(15.3561 15.4881) rotate(90) scale(15.8364 15.8364)">
<stop offset="0.671096" stop-color="#FF7AF2" stop-opacity="0"/>
<stop offset="0.933555" stop-color="#FFBCE6"/>
</radialGradient>
<linearGradient id="paint16_linear_2345_49498" x1="17.104" y1="17.3419" x2="23.5127" y2="24.9688" gradientUnits="userSpaceOnUse">
<stop offset="0.694491" stop-color="#FF7AF2" stop-opacity="0"/>
<stop offset="0.933555" stop-color="#FFBCE6"/>
</linearGradient>
<linearGradient id="paint17_linear_2345_49498" x1="16.3095" y1="17.6597" x2="8.78857" y2="26.134" gradientUnits="userSpaceOnUse">
<stop offset="0.694491" stop-color="#FF7AF2" stop-opacity="0"/>
<stop offset="0.933555" stop-color="#FFBCE6"/>
</linearGradient>
<radialGradient id="paint18_radial_2345_49498" cx="0" cy="0" r="1" gradientUnits="userSpaceOnUse" gradientTransform="translate(17.5853 14.7524) rotate(164.618) scale(13.7691 14.5414)">
<stop offset="0.802083" stop-color="#FF73A6" stop-opacity="0"/>
<stop offset="1" stop-color="#FF93BA" stop-opacity="0.6"/>
</radialGradient>
<radialGradient id="paint19_radial_2345_49498" cx="0" cy="0" r="1" gradientUnits="userSpaceOnUse" gradientTransform="translate(15.7427 11.4404) rotate(-90) scale(9.48549 11.3019)">
<stop stop-color="#FC3F87" stop-opacity="0.6"/>
<stop offset="0.802083" stop-color="#FC428C" stop-opacity="0"/>
</radialGradient>
<radialGradient id="paint20_radial_2345_49498" cx="0" cy="0" r="1" gradientTransform="matrix(-5.16187 6.32301 -4.59328 -2.89457 24.3115 11.864)" gradientUnits="userSpaceOnUse">
<stop stop-color="#FF93BA" stop-opacity="0.5"/>
<stop offset="1" stop-color="#FF73A6" stop-opacity="0"/>
</radialGradient>
<radialGradient id="paint21_radial_2345_49498" cx="0" cy="0" r="1" gradientTransform="matrix(1.84838 1.88689 -1.09567 1.37341 13.6579 14.122)" gradientUnits="userSpaceOnUse">
<stop stop-color="#FF93BA" stop-opacity="0.4"/>
<stop offset="1" stop-color="#FF73A6" stop-opacity="0"/>
</radialGradient>
<radialGradient id="paint22_radial_2345_49498" cx="0" cy="0" r="1" gradientUnits="userSpaceOnUse" gradientTransform="translate(21.3595 9.80912) rotate(176.279) scale(2.37324 1.54207)">
<stop stop-color="#FF93BA" stop-opacity="0.3"/>
<stop offset="1" stop-color="#FF73A6" stop-opacity="0"/>
</radialGradient>
<radialGradient id="paint23_radial_2345_49498" cx="0" cy="0" r="1" gradientUnits="userSpaceOnUse" gradientTransform="translate(9.92264 9.86688) rotate(1.07082) scale(2.06054 1.05423)">
<stop stop-color="#FF93BA" stop-opacity="0.3"/>
<stop offset="1" stop-color="#FF73A6" stop-opacity="0"/>
</radialGradient>
<radialGradient id="paint24_radial_2345_49498" cx="0" cy="0" r="1" gradientUnits="userSpaceOnUse" gradientTransform="translate(17.2392 14.9692) rotate(-90) scale(4.64021 1.69642)">
<stop stop-color="#FA5066" stop-opacity="0.7"/>
<stop offset="1" stop-color="#FA5066" stop-opacity="0"/>
</radialGradient>
<radialGradient id="paint25_radial_2345_49498" cx="0" cy="0" r="1" gradientUnits="userSpaceOnUse" gradientTransform="translate(22.0174 13.5209) rotate(-151.991) scale(5.08878)">
<stop stop-color="#FA82BA" stop-opacity="0.7"/>
<stop offset="1" stop-color="#FA69AD" stop-opacity="0"/>
</radialGradient>
<radialGradient id="paint26_radial_2345_49498" cx="0" cy="0" r="1" gradientUnits="userSpaceOnUse" gradientTransform="translate(12.8748 17.9458) rotate(55.3943) scale(7.59343 4.8715)">
<stop offset="0.734131" stop-color="#DC4897" stop-opacity="0.7"/>
<stop offset="1" stop-color="#E44F9E" stop-opacity="0"/>
</radialGradient>
<radialGradient id="paint27_radial_2345_49498" cx="0" cy="0" r="1" gradientUnits="userSpaceOnUse" gradientTransform="translate(15.1767 8.29059) rotate(88.5481) scale(16.4445 16.9338)">
<stop stop-color="#F12E52"/>
<stop offset="0.67675" stop-color="#FF3B79"/>
<stop offset="1" stop-color="#FF4EA9"/>
</radialGradient>
<radialGradient id="paint28_radial_2345_49498" cx="0" cy="0" r="1" gradientUnits="userSpaceOnUse" gradientTransform="translate(19.2417 15.6902) rotate(142.986) scale(13.3972 25.0942)">
<stop offset="0.483055" stop-color="#E7305C" stop-opacity="0"/>
<stop offset="0.833898" stop-color="#E7305C"/>
</radialGradient>
<radialGradient id="paint29_radial_2345_49498" cx="0" cy="0" r="1" gradientUnits="userSpaceOnUse" gradientTransform="translate(17.6949 18.9726) rotate(-158.663) scale(11.6209 16.4278)">
<stop offset="0.505409" stop-color="#B91D43" stop-opacity="0"/>
<stop offset="0.833898" stop-color="#B91D43" stop-opacity="0.8"/>
</radialGradient>
<radialGradient id="paint30_radial_2345_49498" cx="0" cy="0" r="1" gradientUnits="userSpaceOnUse" gradientTransform="translate(15.4285 16.943) rotate(90) scale(10.114)">
<stop offset="0.671096" stop-color="#FF7AF2" stop-opacity="0"/>
<stop offset="0.933555" stop-color="#FFBCE6"/>
</radialGradient>
<linearGradient id="paint31_linear_2345_49498" x1="16.5448" y1="18.1269" x2="20.6378" y2="22.9979" gradientUnits="userSpaceOnUse">
<stop offset="0.694491" stop-color="#FF7AF2" stop-opacity="0"/>
<stop offset="0.933555" stop-color="#FFBCE6"/>
</linearGradient>
<linearGradient id="paint32_linear_2345_49498" x1="16.0374" y1="18.3299" x2="11.2341" y2="23.7421" gradientUnits="userSpaceOnUse">
<stop offset="0.694491" stop-color="#FF7AF2" stop-opacity="0"/>
<stop offset="0.933555" stop-color="#FFBCE6"/>
</linearGradient>
<radialGradient id="paint33_radial_2345_49498" cx="0" cy="0" r="1" gradientUnits="userSpaceOnUse" gradientTransform="translate(16.8522 16.4732) rotate(164.618) scale(8.79377 9.28699)">
<stop offset="0.802083" stop-color="#FF73A6" stop-opacity="0"/>
<stop offset="1" stop-color="#FF93BA" stop-opacity="0.6"/>
</radialGradient>
<radialGradient id="paint34_radial_2345_49498" cx="0" cy="0" r="1" gradientUnits="userSpaceOnUse" gradientTransform="translate(15.6754 14.3579) rotate(-90) scale(6.058 7.21804)">
<stop stop-color="#FC0D1A" stop-opacity="0.6"/>
<stop offset="0.802083" stop-color="#FC1020" stop-opacity="0"/>
</radialGradient>
<radialGradient id="paint35_radial_2345_49498" cx="0" cy="0" r="1" gradientTransform="matrix(-3.29668 4.03825 -2.93354 -1.84865 21.148 14.6284)" gradientUnits="userSpaceOnUse">
<stop stop-color="#FF93BA" stop-opacity="0.5"/>
<stop offset="1" stop-color="#FF73A6" stop-opacity="0"/>
</radialGradient>
<radialGradient id="paint36_radial_2345_49498" cx="0" cy="0" r="1" gradientTransform="matrix(1.18049 1.20508 -0.69976 0.877142 14.3439 16.0705)" gradientUnits="userSpaceOnUse">
<stop stop-color="#FF93BA" stop-opacity="0.4"/>
<stop offset="1" stop-color="#FF73A6" stop-opacity="0"/>
</radialGradient>
<radialGradient id="paint37_radial_2345_49498" cx="0" cy="0" r="1" gradientUnits="userSpaceOnUse" gradientTransform="translate(19.2626 13.3161) rotate(176.279) scale(1.5157 0.984858)">
<stop stop-color="#FF93BA" stop-opacity="0.3"/>
<stop offset="1" stop-color="#FF73A6" stop-opacity="0"/>
</radialGradient>
<radialGradient id="paint38_radial_2345_49498" cx="0" cy="0" r="1" gradientUnits="userSpaceOnUse" gradientTransform="translate(11.9583 13.3529) rotate(1.07082) scale(1.31598 0.673293)">
<stop stop-color="#FF93BA" stop-opacity="0.3"/>
<stop offset="1" stop-color="#FF73A6" stop-opacity="0"/>
</radialGradient>
<radialGradient id="paint39_radial_2345_49498" cx="0" cy="0" r="1" gradientUnits="userSpaceOnUse" gradientTransform="translate(16.6311 16.6116) rotate(-90) scale(2.96352 1.08344)">
<stop stop-color="#FA1E3A" stop-opacity="0.7"/>
<stop offset="1" stop-color="#FA1E3A" stop-opacity="0"/>
</radialGradient>
<radialGradient id="paint40_radial_2345_49498" cx="0" cy="0" r="1" gradientUnits="userSpaceOnUse" gradientTransform="translate(19.6828 15.6866) rotate(-151.991) scale(3.25)">
<stop stop-color="#FA1E3A" stop-opacity="0.7"/>
<stop offset="1" stop-color="#FA1E3A" stop-opacity="0"/>
</radialGradient>
<clipPath id="clip0_2345_49498">
<rect width="32" height="32" fill="white"/>
</clipPath>
</defs>
</svg>
