<svg width="24" height="24" viewBox="0 0 24 24" fill="none" xmlns="http://www.w3.org/2000/svg">
<path d="M5.23242 21.5195C4.77344 21.1777 4.67578 20.6113 4.93945 19.8398L6.95117 13.873L1.82422 10.1914C1.16016 9.72266 0.886719 9.20508 1.07227 8.6582C1.25781 8.12109 1.76562 7.86719 2.57617 7.86719H8.86523L10.7793 1.91016C11.0332 1.12891 11.4336 0.708984 12 0.708984C12.5762 0.708984 12.9766 1.12891 13.2207 1.91016L15.1348 7.86719H21.4238C22.2344 7.86719 22.752 8.12109 22.9375 8.6582C23.123 9.20508 22.8398 9.72266 22.1855 10.1914L17.0586 13.873L19.0605 19.8398C19.3242 20.6113 19.2266 21.1777 18.7773 21.5195C18.3184 21.8711 17.7422 21.7539 17.0781 21.2754L12 17.5449L6.92188 21.2754C6.25781 21.7539 5.69141 21.8711 5.23242 21.5195Z" fill="#FF395C"/>
</svg>
