<svg width="20" height="20" viewBox="0 0 20 20" fill="none" xmlns="http://www.w3.org/2000/svg">
<path d="M2.23877 7.03516C1.82373 7.03516 1.4917 6.68652 1.4917 6.27979C1.4917 5.86475 1.82373 5.53271 2.23877 5.53271H17.7529C18.168 5.53271 18.5083 5.86475 18.5083 6.27979C18.5083 6.69482 18.168 7.03516 17.7529 7.03516H2.23877ZM2.23877 10.7705C1.82373 10.7705 1.4917 10.4302 1.4917 10.0234C1.4917 9.6001 1.82373 9.25977 2.23877 9.25977H17.7529C18.168 9.25977 18.5083 9.6001 18.5083 10.0234C18.5083 10.4302 18.168 10.7705 17.7529 10.7705H2.23877ZM2.23877 14.5142C1.82373 14.5142 1.4917 14.1655 1.4917 13.7505C1.4917 13.3438 1.82373 13.0034 2.23877 13.0034H17.7529C18.168 13.0034 18.5083 13.3354 18.5083 13.7505C18.5083 14.1738 18.168 14.5142 17.7529 14.5142H2.23877Z" fill="#222222"/>
</svg>
