<svg width="20" height="20" viewBox="0 0 20 20" fill="none" xmlns="http://www.w3.org/2000/svg">
<path d="M4.28906 17.7681C2.49609 17.7681 1.56641 16.8467 1.56641 15.0703V4.96826C1.56641 3.19189 2.49609 2.27051 4.28906 2.27051H15.7109C17.5039 2.27051 18.4336 3.19189 18.4336 4.96826V15.0703C18.4336 16.8384 17.5039 17.7681 15.7109 17.7681H4.28906ZM4.26416 16.1411H15.7192C16.4165 16.1411 16.8066 15.7759 16.8066 15.0537V7.38379C16.8066 6.65332 16.4165 6.29639 15.7192 6.29639H4.26416C3.5752 6.29639 3.19336 6.65332 3.19336 7.38379V15.0537C3.19336 15.7759 3.5752 16.1411 4.26416 16.1411ZM8.39795 9.17676C8.10742 9.17676 8.00781 9.08545 8.00781 8.78662V8.30518C8.00781 8.00635 8.10742 7.91504 8.39795 7.91504H8.8877C9.18652 7.91504 9.28613 8.00635 9.28613 8.30518V8.78662C9.28613 9.08545 9.18652 9.17676 8.8877 9.17676H8.39795ZM11.1206 9.17676C10.8218 9.17676 10.7222 9.08545 10.7222 8.78662V8.30518C10.7222 8.00635 10.8218 7.91504 11.1206 7.91504H11.6021C11.9009 7.91504 12.0005 8.00635 12.0005 8.30518V8.78662C12.0005 9.08545 11.9009 9.17676 11.6021 9.17676H11.1206ZM13.835 9.17676C13.5361 9.17676 13.4365 9.08545 13.4365 8.78662V8.30518C13.4365 8.00635 13.5361 7.91504 13.835 7.91504H14.3164C14.6152 7.91504 14.7148 8.00635 14.7148 8.30518V8.78662C14.7148 9.08545 14.6152 9.17676 14.3164 9.17676H13.835ZM5.68359 11.8496C5.39307 11.8496 5.29346 11.7583 5.29346 11.4595V10.978C5.29346 10.6792 5.39307 10.5879 5.68359 10.5879H6.17334C6.47217 10.5879 6.57178 10.6792 6.57178 10.978V11.4595C6.57178 11.7583 6.47217 11.8496 6.17334 11.8496H5.68359ZM8.39795 11.8496C8.10742 11.8496 8.00781 11.7583 8.00781 11.4595V10.978C8.00781 10.6792 8.10742 10.5879 8.39795 10.5879H8.8877C9.18652 10.5879 9.28613 10.6792 9.28613 10.978V11.4595C9.28613 11.7583 9.18652 11.8496 8.8877 11.8496H8.39795ZM11.1206 11.8496C10.8218 11.8496 10.7222 11.7583 10.7222 11.4595V10.978C10.7222 10.6792 10.8218 10.5879 11.1206 10.5879H11.6021C11.9009 10.5879 12.0005 10.6792 12.0005 10.978V11.4595C12.0005 11.7583 11.9009 11.8496 11.6021 11.8496H11.1206ZM13.835 11.8496C13.5361 11.8496 13.4365 11.7583 13.4365 11.4595V10.978C13.4365 10.6792 13.5361 10.5879 13.835 10.5879H14.3164C14.6152 10.5879 14.7148 10.6792 14.7148 10.978V11.4595C14.7148 11.7583 14.6152 11.8496 14.3164 11.8496H13.835ZM5.68359 14.5225C5.39307 14.5225 5.29346 14.4312 5.29346 14.1323V13.6509C5.29346 13.3521 5.39307 13.2607 5.68359 13.2607H6.17334C6.47217 13.2607 6.57178 13.3521 6.57178 13.6509V14.1323C6.57178 14.4312 6.47217 14.5225 6.17334 14.5225H5.68359ZM8.39795 14.5225C8.10742 14.5225 8.00781 14.4312 8.00781 14.1323V13.6509C8.00781 13.3521 8.10742 13.2607 8.39795 13.2607H8.8877C9.18652 13.2607 9.28613 13.3521 9.28613 13.6509V14.1323C9.28613 14.4312 9.18652 14.5225 8.8877 14.5225H8.39795ZM11.1206 14.5225C10.8218 14.5225 10.7222 14.4312 10.7222 14.1323V13.6509C10.7222 13.3521 10.8218 13.2607 11.1206 13.2607H11.6021C11.9009 13.2607 12.0005 13.3521 12.0005 13.6509V14.1323C12.0005 14.4312 11.9009 14.5225 11.6021 14.5225H11.1206Z" fill="#737373"/>
</svg>
