<svg width="20" height="20" viewBox="0 0 20 20" fill="none" xmlns="http://www.w3.org/2000/svg">
<path d="M4.03174 9.36768C2.83643 9.36768 2.24707 8.77832 2.24707 7.5498V4.08008C2.24707 2.85156 2.83643 2.27051 4.03174 2.27051H7.55957C8.75488 2.27051 9.34424 2.85156 9.34424 4.08008V7.5498C9.34424 8.77832 8.75488 9.36768 7.55957 9.36768H4.03174ZM12.4321 9.36768C11.2285 9.36768 10.6475 8.77832 10.6475 7.5498V4.08008C10.6475 2.85156 11.2285 2.27051 12.4321 2.27051H15.96C17.1553 2.27051 17.7446 2.85156 17.7446 4.08008V7.5498C17.7446 8.77832 17.1553 9.36768 15.96 9.36768H12.4321ZM4.04004 7.99805H7.54297C7.8335 7.99805 7.98291 7.85693 7.98291 7.5498V4.07178C7.98291 3.78125 7.8335 3.63184 7.54297 3.63184H4.04004C3.74951 3.63184 3.6084 3.78125 3.6084 4.07178V7.5498C3.6084 7.85693 3.74951 7.99805 4.04004 7.99805ZM12.4404 7.99805H15.9517C16.2422 7.99805 16.375 7.85693 16.375 7.5498V4.07178C16.375 3.78125 16.2422 3.63184 15.9517 3.63184H12.4404C12.1499 3.63184 12.0088 3.78125 12.0088 4.07178V7.5498C12.0088 7.85693 12.1499 7.99805 12.4404 7.99805ZM4.03174 17.7598C2.83643 17.7598 2.24707 17.1787 2.24707 15.9502V12.4805C2.24707 11.2437 2.83643 10.6626 4.03174 10.6626H7.55957C8.75488 10.6626 9.34424 11.2437 9.34424 12.4805V15.9502C9.34424 17.1787 8.75488 17.7598 7.55957 17.7598H4.03174ZM12.4321 17.7598C11.2285 17.7598 10.6475 17.1787 10.6475 15.9502V12.4805C10.6475 11.2437 11.2285 10.6626 12.4321 10.6626H15.96C17.1553 10.6626 17.7446 11.2437 17.7446 12.4805V15.9502C17.7446 17.1787 17.1553 17.7598 15.96 17.7598H12.4321ZM4.04004 16.3984H7.54297C7.8335 16.3984 7.98291 16.249 7.98291 15.9585V12.4805C7.98291 12.1733 7.8335 12.0322 7.54297 12.0322H4.04004C3.74951 12.0322 3.6084 12.1733 3.6084 12.4805V15.9585C3.6084 16.249 3.74951 16.3984 4.04004 16.3984ZM12.4404 16.3984H15.9517C16.2422 16.3984 16.375 16.249 16.375 15.9585V12.4805C16.375 12.1733 16.2422 12.0322 15.9517 12.0322H12.4404C12.1499 12.0322 12.0088 12.1733 12.0088 12.4805V15.9585C12.0088 16.249 12.1499 16.3984 12.4404 16.3984Z" fill="#222222"/>
</svg>
