<svg width="9" height="15" viewBox="0 0 9 15" fill="none" xmlns="http://www.w3.org/2000/svg">
<path d="M0 7.34619C0.00830078 7.06396 0.10791 6.82324 0.332031 6.60742L6.80664 0.273926C6.98096 0.0913086 7.21338 0 7.479 0C8.01855 0 8.44189 0.415039 8.44189 0.95459C8.44189 1.22021 8.33398 1.46094 8.15137 1.65186L2.31592 7.34619L8.15137 13.0405C8.33398 13.2231 8.44189 13.4639 8.44189 13.7295C8.44189 14.2773 8.01855 14.6924 7.479 14.6924C7.21338 14.6924 6.98096 14.6011 6.80664 14.4185L0.332031 8.08496C0.10791 7.86914 0 7.62842 0 7.34619Z" fill="#222222"/>
</svg>
