<svg width="9" height="15" viewBox="0 0 9 15" fill="none" xmlns="http://www.w3.org/2000/svg">
<path d="M8.44189 7.34619C8.44189 7.62842 8.34229 7.86914 8.11816 8.08496L1.64355 14.4185C1.46094 14.6011 1.23682 14.6924 0.971191 14.6924C0.431641 14.6924 0 14.2773 0 13.7295C0 13.4639 0.116211 13.2231 0.290527 13.0405L6.13428 7.34619L0.290527 1.65186C0.10791 1.46094 0 1.22021 0 0.95459C0 0.415039 0.431641 0 0.971191 0C1.23682 0 1.46094 0.0913086 1.64355 0.273926L8.11816 6.60742C8.33398 6.82324 8.44189 7.06396 8.44189 7.34619Z" fill="#737373"/>
</svg>
