<svg width="20" height="20" viewBox="0 0 20 20" fill="none" xmlns="http://www.w3.org/2000/svg">
<path d="M16.4165 15.1284C16.7651 15.4771 16.7651 16.0747 16.4082 16.4316C16.0513 16.7969 15.4536 16.7886 15.0967 16.4399L9.9917 11.335L4.88672 16.4399C4.54639 16.7803 3.94043 16.7886 3.5752 16.4316C3.21826 16.083 3.22656 15.4688 3.5752 15.1284L8.68018 10.0151L3.5752 4.91016C3.22656 4.56982 3.22656 3.96387 3.5752 3.59863C3.93213 3.2417 4.54639 3.25 4.88672 3.59863L9.9917 8.70361L15.0967 3.59863C15.4619 3.2417 16.0513 3.25 16.4082 3.60693C16.7734 3.95557 16.7651 4.56152 16.4165 4.91016L11.3115 10.0151L16.4165 15.1284Z" fill="#222222"/>
</svg>
