<svg width="20" height="21" viewBox="0 0 20 21" fill="none" xmlns="http://www.w3.org/2000/svg">
<path d="M1.875 17.7266V6.98438C1.875 5.30469 2.74219 4.42188 4.41406 4.42188H5.73438V2.98438C5.73438 1.29688 6.60938 0.421875 8.27344 0.421875H11.2188C12.1172 0.421875 12.8125 0.648438 13.3984 1.25L17.2969 5.21875C17.9141 5.85156 18.125 6.50781 18.125 7.53125V13.7188C18.125 15.4062 17.2578 16.2812 15.5859 16.2812H14.2578V17.7266C14.2578 19.4062 13.3984 20.2891 11.7266 20.2891H4.41406C2.74219 20.2891 1.875 19.4141 1.875 17.7266ZM13.4766 9.51562C14.1328 10.1797 14.2578 10.6641 14.2578 11.7188V14.75H15.4531C16.2188 14.75 16.5938 14.3516 16.5938 13.625V7.15625H13.1484C12.1875 7.15625 11.6719 6.65625 11.6719 5.6875V1.95312H8.40625C7.64844 1.95312 7.26562 2.35156 7.26562 3.07031V4.42969C8.13281 4.4375 8.64062 4.60156 9.24219 5.21094L13.4766 9.51562ZM12.9531 5.49219C12.9531 5.76562 13.0703 5.875 13.3359 5.875H16.1953L12.9531 2.58594V5.49219ZM3.40625 17.6328C3.40625 18.3594 3.78125 18.7578 4.53906 18.7578H11.5938C12.3516 18.7578 12.7266 18.3594 12.7266 17.6328V11.8984H8.60156C7.49219 11.8984 6.9375 11.3516 6.9375 10.2344V5.95312H4.53906C3.78125 5.95312 3.40625 6.35938 3.40625 7.07812V17.6328ZM8.75 10.5469H12.5156L8.28906 6.25V10.0859C8.28906 10.4062 8.42969 10.5469 8.75 10.5469Z" fill="#737373"/>
</svg>
