<svg width="20" height="20" viewBox="0 0 20 20" fill="none" xmlns="http://www.w3.org/2000/svg">
<path d="M10 1.68945C10.2822 1.68945 10.5229 1.80566 10.7554 2.02148L15.4785 6.55371C15.6611 6.73633 15.7856 6.96875 15.7856 7.25928C15.7856 7.81543 15.3457 8.22217 14.8228 8.22217C14.5903 8.22217 14.3413 8.14746 14.1255 7.93994L10 3.89746L5.86621 7.93994C5.65039 8.15576 5.40137 8.22217 5.16895 8.22217C4.646 8.22217 4.20605 7.81543 4.20605 7.25928C4.20605 6.96875 4.33057 6.73633 4.52148 6.55371L9.23633 2.02148C9.46875 1.80566 9.70947 1.68945 10 1.68945ZM10 18.3242C9.70947 18.3242 9.46875 18.208 9.23633 17.9839L4.52148 13.46C4.33057 13.2773 4.20605 13.0449 4.20605 12.7544C4.20605 12.1982 4.646 11.7915 5.16895 11.7915C5.40137 11.7915 5.65039 11.8579 5.86621 12.0737L10 16.1079L14.1255 12.0737C14.3413 11.8662 14.5903 11.7915 14.8228 11.7915C15.3457 11.7915 15.7856 12.1982 15.7856 12.7544C15.7856 13.0449 15.6611 13.2773 15.4785 13.46L10.7554 17.9839C10.5229 18.208 10.2822 18.3242 10 18.3242Z" fill="#6A6A6A" fill-opacity="0.6"/>
</svg>
