<svg width="84" height="12" viewBox="0 0 84 12" fill="none" xmlns="http://www.w3.org/2000/svg">
<path d="M14.9089 0H12.9066V10.1533H14.9089V0Z" fill="black"/>
<path d="M10.6067 0.568146H8.60443V10.7212H10.6067V0.568146Z" fill="black"/>
<path d="M6.30444 1.20242H4.30221V11.3574H6.30444V1.20242Z" fill="black"/>
<path d="M2.00223 1.84375H0L7.62939e-06 12H2.00223L2.00223 1.84375Z" fill="black"/>
<path d="M67.7912 5.40947L64.5673 1.82506H62.6826V10.1242H64.6504V4.8292L67.5937 7.96631H67.9574L70.8501 4.8292V10.1242H72.8179V1.82506H70.9332L67.7912 5.40947Z" fill="black"/>
<path d="M82.1928 1.82506L77.3155 7.21921V1.82506H75.3477V10.1242H77.1505L82.0278 4.73006V10.1242H83.9956V1.82506H82.1928Z" fill="black"/>
<path d="M52.0835 4.86184C52.0835 6.18317 52.8061 7.22404 53.9153 7.66046L51.8355 10.1242H54.244L56.1359 7.8829H58.1832V10.1242H60.151V1.82506H55.1412C53.2734 1.82506 52.0835 3.10287 52.0835 4.86184ZM58.1844 3.65293V6.10701H55.5061C54.6125 6.10701 54.1332 5.60894 54.1332 4.87876C54.1332 4.14858 54.6294 3.65051 55.5061 3.65051L58.1844 3.65293Z" fill="black"/>
<path d="M42.9393 3.48489C42.8189 6.33912 42.2167 8.1815 41.0377 8.1815H40.7427V10.1738L41.057 10.1907C43.421 10.3225 44.7277 8.24799 44.942 3.717H48.0515V10.1242H50.0157V1.82506H43.0055L42.9393 3.48489Z" fill="black"/>
<path d="M35.5318 1.70911C32.8704 1.70911 30.9556 3.55148 30.9556 5.97413C30.9556 8.4802 33.039 10.2573 35.5318 10.2573C38.1283 10.2573 40.1454 8.38107 40.1454 5.97413C40.1454 3.5672 38.1283 1.70911 35.5318 1.70911ZM35.5318 8.26502C34.0277 8.26502 33.0028 7.2858 33.0028 5.97413C33.0028 4.62983 34.0289 3.67721 35.5318 3.67721C37.0348 3.67721 38.0946 4.67335 38.0946 5.97413C38.0946 7.27492 37.0203 8.26502 35.5318 8.26502Z" fill="black"/>
<path d="M28.8686 1.84071H21.9235L21.8573 3.50054C21.7585 5.89177 21.1347 8.16572 19.9557 8.19836L19.4102 8.21529V12L21.3948 11.996V10.1254H28.2893V11.996H30.2908V8.19836H28.8686V1.84071ZM26.9008 8.19836H22.7015C23.412 7.12002 23.7925 5.55932 23.8588 3.73386H26.9008V8.19836Z" fill="black"/>
</svg>
