<svg width="20" height="20" viewBox="0 0 20 20" fill="none" xmlns="http://www.w3.org/2000/svg">
<path d="M1.61621 7.66602C1.61621 4.61963 3.72461 2.49463 6.43896 2.49463C8.01611 2.49463 9.26123 3.2334 10 4.3208C10.7471 3.2251 11.9839 2.49463 13.561 2.49463C16.2837 2.49463 18.3838 4.61963 18.3838 7.66602C18.3838 11.2188 15.4121 14.7217 10.772 17.71C10.5229 17.8677 10.2158 18.0254 10 18.0254C9.79248 18.0254 9.47705 17.8677 9.22803 17.71C4.58789 14.7217 1.61621 11.2188 1.61621 7.66602ZM3.28467 7.66602C3.28467 10.6045 6.34766 13.8501 9.84229 16.1743C9.91699 16.2241 9.9668 16.2573 10 16.2573C10.0332 16.2573 10.083 16.2241 10.1577 16.1743C13.6523 13.8501 16.7153 10.6045 16.7153 7.66602C16.7153 5.55762 15.3291 4.13818 13.4697 4.13818C11.9756 4.13818 11.1621 5.05957 10.606 5.84814C10.3569 6.17188 10.2158 6.28809 10 6.28809C9.78418 6.28809 9.62646 6.18018 9.39404 5.84814C8.87109 5.05127 8.03271 4.13818 6.53027 4.13818C4.6709 4.13818 3.28467 5.55762 3.28467 7.66602Z" fill="#222222"/>
</svg>
