<svg width="16" height="16" viewBox="0 0 16 16" fill="none" xmlns="http://www.w3.org/2000/svg">
<path d="M3.78711 11.9941C3.5293 11.7422 3.5 11.373 3.78711 11.0801L9.48242 5.37891L10.3906 4.54102L7.91797 4.62891H5.83203C5.48047 4.62891 5.18164 4.34766 5.18164 4.00195C5.18164 3.66211 5.45703 3.36328 5.84961 3.36328H11.7324C12.1484 3.36328 12.418 3.64453 12.418 4.04883V9.93164C12.418 10.3125 12.125 10.5996 11.7793 10.5996C11.4277 10.5996 11.1465 10.3008 11.1465 9.94922V7.75781L11.2461 5.36133L10.3906 6.28711L4.69531 11.9824C4.4082 12.2637 4.04492 12.2461 3.78711 11.9941Z" fill="#6A6A6A" fill-opacity="0.6"/>
</svg>
