<svg width="20" height="20" viewBox="0 0 20 20" fill="none" xmlns="http://www.w3.org/2000/svg">
<path d="M2.5625 9.36768C1.36719 9.36768 0.777832 8.78662 0.777832 7.55811V4.08008C0.777832 2.85156 1.36719 2.27051 2.5625 2.27051H4.27246C5.46777 2.27051 6.05713 2.85156 6.05713 4.08008V7.55811C6.05713 8.78662 5.46777 9.36768 4.27246 9.36768H2.5625ZM9.13672 9.36768C7.94141 9.36768 7.35205 8.78662 7.35205 7.55811V4.08008C7.35205 2.85156 7.94141 2.27051 9.13672 2.27051H10.8467C12.042 2.27051 12.6313 2.85156 12.6313 4.08008V7.55811C12.6313 8.78662 12.042 9.36768 10.8467 9.36768H9.13672ZM15.7192 9.36768C14.5156 9.36768 13.9346 8.78662 13.9346 7.55811V4.08008C13.9346 2.85156 14.5156 2.27051 15.7192 2.27051H17.4292C18.6245 2.27051 19.2139 2.85156 19.2139 4.08008V7.55811C19.2139 8.78662 18.6245 9.36768 17.4292 9.36768H15.7192ZM2.5708 8.00635H4.25586C4.54639 8.00635 4.6875 7.85693 4.6875 7.55811V4.08008C4.6875 3.78125 4.54639 3.63184 4.25586 3.63184H2.5708C2.28027 3.63184 2.13916 3.78125 2.13916 4.08008V7.55811C2.13916 7.85693 2.28027 8.00635 2.5708 8.00635ZM9.15332 8.00635H10.8384C11.1289 8.00635 11.27 7.85693 11.27 7.55811V4.08008C11.27 3.78125 11.1289 3.63184 10.8384 3.63184H9.15332C8.85449 3.63184 8.72168 3.78125 8.72168 4.08008V7.55811C8.72168 7.85693 8.85449 8.00635 9.15332 8.00635ZM15.7275 8.00635H17.4126C17.7031 8.00635 17.8442 7.85693 17.8442 7.55811V4.08008C17.8442 3.78125 17.7031 3.63184 17.4126 3.63184H15.7275C15.437 3.63184 15.2959 3.78125 15.2959 4.08008V7.55811C15.2959 7.85693 15.437 8.00635 15.7275 8.00635ZM2.5625 17.7681C1.36719 17.7681 0.777832 17.187 0.777832 15.9502V12.4805C0.777832 11.252 1.36719 10.6709 2.5625 10.6709H4.27246C5.46777 10.6709 6.05713 11.252 6.05713 12.4805V15.9502C6.05713 17.187 5.46777 17.7681 4.27246 17.7681H2.5625ZM9.13672 17.7681C7.94141 17.7681 7.35205 17.187 7.35205 15.9502V12.4805C7.35205 11.252 7.94141 10.6709 9.13672 10.6709H10.8467C12.042 10.6709 12.6313 11.252 12.6313 12.4805V15.9502C12.6313 17.187 12.042 17.7681 10.8467 17.7681H9.13672ZM15.7192 17.7681C14.5156 17.7681 13.9346 17.187 13.9346 15.9502V12.4805C13.9346 11.252 14.5156 10.6709 15.7192 10.6709H17.4292C18.6245 10.6709 19.2139 11.252 19.2139 12.4805V15.9502C19.2139 17.187 18.6245 17.7681 17.4292 17.7681H15.7192ZM2.5708 16.3984H4.25586C4.54639 16.3984 4.6875 16.2573 4.6875 15.9585V12.4805C4.6875 12.1816 4.54639 12.0322 4.25586 12.0322H2.5708C2.28027 12.0322 2.13916 12.1816 2.13916 12.4805V15.9585C2.13916 16.2573 2.28027 16.3984 2.5708 16.3984ZM9.15332 16.3984H10.8384C11.1289 16.3984 11.27 16.2573 11.27 15.9585V12.4805C11.27 12.1816 11.1289 12.0322 10.8384 12.0322H9.15332C8.85449 12.0322 8.72168 12.1816 8.72168 12.4805V15.9585C8.72168 16.2573 8.85449 16.3984 9.15332 16.3984ZM15.7275 16.3984H17.4126C17.7031 16.3984 17.8442 16.2573 17.8442 15.9585V12.4805C17.8442 12.1816 17.7031 12.0322 17.4126 12.0322H15.7275C15.437 12.0322 15.2959 12.1816 15.2959 12.4805V15.9585C15.2959 16.2573 15.437 16.3984 15.7275 16.3984Z" fill="#222222"/>
</svg>
