<svg width="100" height="44" viewBox="0 0 100 44" fill="none" xmlns="http://www.w3.org/2000/svg">
<path d="M2.06201 18.0303L2.31401 3.45027H5.06801L7.13801 13.5483L9.29801 3.45027H11.962L12.232 18.0303H10.252L10.036 7.89627L7.96601 18.0303H6.36401L4.25801 7.86027L4.06001 18.0303H2.06201Z" fill="#222222"/>
<path d="M14.0071 18.0303L16.9231 3.45027H19.7671L22.6831 18.0303H20.2171L19.6411 14.6643H17.1031L16.5091 18.0303H14.0071ZM17.3731 12.9723H19.3531L18.3631 6.85227L17.3731 12.9723Z" fill="#222222"/>
<path d="M28.4334 18.2283C27.3654 18.2283 26.5254 18.0183 25.9134 17.5983C25.3134 17.1783 24.8934 16.6083 24.6534 15.8883C24.4134 15.1563 24.2934 14.3163 24.2934 13.3683V8.16627C24.2934 7.17027 24.4134 6.30627 24.6534 5.57427C24.8934 4.84227 25.3134 4.27827 25.9134 3.88227C26.5254 3.48627 27.3654 3.28827 28.4334 3.28827C29.4414 3.28827 30.2274 3.46227 30.7914 3.81027C31.3674 4.14627 31.7754 4.63227 32.0154 5.26827C32.2554 5.90427 32.3754 6.64227 32.3754 7.48227V8.70627H29.8194V7.44627C29.8194 7.03827 29.7954 6.66627 29.7474 6.33027C29.7114 5.99427 29.5974 5.73027 29.4054 5.53827C29.2254 5.33427 28.9074 5.23227 28.4514 5.23227C27.9954 5.23227 27.6594 5.34027 27.4434 5.55627C27.2394 5.76027 27.1074 6.04227 27.0474 6.40227C26.9874 6.75027 26.9574 7.14627 26.9574 7.59027V13.9263C26.9574 14.4543 26.9994 14.8923 27.0834 15.2403C27.1674 15.5763 27.3174 15.8343 27.5334 16.0143C27.7614 16.1823 28.0674 16.2663 28.4514 16.2663C28.8954 16.2663 29.2074 16.1643 29.3874 15.9603C29.5794 15.7443 29.6994 15.4623 29.7474 15.1143C29.7954 14.7663 29.8194 14.3763 29.8194 13.9443V12.6303H32.3754V13.8003C32.3754 14.6643 32.2614 15.4323 32.0334 16.1043C31.8054 16.7643 31.4034 17.2863 30.8274 17.6703C30.2634 18.0423 29.4654 18.2283 28.4334 18.2283Z" fill="#222222"/>
<path d="M36.0481 18.0303V5.41227H33.7261V3.45027H40.9981V5.41227H38.7121V18.0303H36.0481Z" fill="#222222"/>
<path d="M42.5614 18.0303V3.45027H48.6814V5.32227H45.2254V9.51627H47.9434V11.3703H45.2254V16.1943H48.7174V18.0303H42.5614Z" fill="#222222"/>
<path d="M50.6207 18.0303V3.45027H54.9047C55.7807 3.45027 56.4887 3.61227 57.0287 3.93627C57.5807 4.26027 57.9827 4.73427 58.2347 5.35827C58.4987 5.97027 58.6307 6.71427 58.6307 7.59027C58.6307 8.53827 58.4687 9.30627 58.1447 9.89427C57.8207 10.4703 57.3647 10.8903 56.7767 11.1543C56.2007 11.4183 55.5167 11.5503 54.7247 11.5503H53.2847V18.0303H50.6207ZM53.2847 9.67827H54.2927C54.7727 9.67827 55.1447 9.61227 55.4087 9.48027C55.6847 9.33627 55.8707 9.11427 55.9667 8.81427C56.0747 8.50227 56.1287 8.08827 56.1287 7.57227C56.1287 7.04427 56.0867 6.61827 56.0027 6.29427C55.9307 5.95827 55.7627 5.71227 55.4987 5.55627C55.2467 5.40027 54.8447 5.32227 54.2927 5.32227H53.2847V9.67827Z" fill="#222222"/>
<path d="M64.3969 18.2283C63.3289 18.2283 62.4889 18.0183 61.8769 17.5983C61.2769 17.1783 60.8569 16.6083 60.6169 15.8883C60.3769 15.1563 60.2569 14.3163 60.2569 13.3683V8.16627C60.2569 7.17027 60.3769 6.30627 60.6169 5.57427C60.8569 4.84227 61.2769 4.27827 61.8769 3.88227C62.4889 3.48627 63.3289 3.28827 64.3969 3.28827C65.4049 3.28827 66.1908 3.46227 66.7549 3.81027C67.3308 4.14627 67.7389 4.63227 67.9789 5.26827C68.2189 5.90427 68.3389 6.64227 68.3389 7.48227V8.70627H65.7829V7.44627C65.7829 7.03827 65.7589 6.66627 65.7109 6.33027C65.6749 5.99427 65.5609 5.73027 65.3689 5.53827C65.1889 5.33427 64.8709 5.23227 64.4149 5.23227C63.9589 5.23227 63.6229 5.34027 63.4069 5.55627C63.2029 5.76027 63.0709 6.04227 63.0109 6.40227C62.9509 6.75027 62.9209 7.14627 62.9209 7.59027V13.9263C62.9209 14.4543 62.9629 14.8923 63.0469 15.2403C63.1309 15.5763 63.2809 15.8343 63.4969 16.0143C63.7249 16.1823 64.0309 16.2663 64.4149 16.2663C64.8589 16.2663 65.1709 16.1643 65.3509 15.9603C65.5429 15.7443 65.6629 15.4623 65.7109 15.1143C65.7589 14.7663 65.7829 14.3763 65.7829 13.9443V12.6303H68.3389V13.8003C68.3389 14.6643 68.2249 15.4323 67.9969 16.1043C67.7689 16.7643 67.3669 17.2863 66.7909 17.6703C66.2269 18.0423 65.4289 18.2283 64.3969 18.2283Z" fill="#222222"/>
<path d="M70.5896 18.0303V3.45027H73.2356V9.57027H73.7756L76.1336 3.45027H78.7796L76.0076 10.3263L78.9956 18.0303H76.2956L73.7756 11.3163H73.2356V18.0303H70.5896Z" fill="#222222"/>
<path d="M79.9138 18.0303L82.8298 3.45027H85.6738L88.5898 18.0303H86.1238L85.5478 14.6643H83.0098L82.4158 18.0303H79.9138ZM83.2798 12.9723H85.2598L84.2698 6.85227L83.2798 12.9723Z" fill="#222222"/>
<path d="M89.5161 18.0303L92.4321 11.5143C91.8321 11.2023 91.3461 10.7223 90.9741 10.0743C90.6021 9.41427 90.4161 8.60427 90.4161 7.64427C90.4161 6.68427 90.5901 5.89827 90.9381 5.28627C91.2861 4.66227 91.8081 4.20027 92.5041 3.90027C93.2121 3.60027 94.1061 3.45027 95.1861 3.45027H98.5521V18.0303H95.9061V12.1263H95.0601C95.0361 12.1263 94.9821 12.1263 94.8981 12.1263C94.8141 12.1263 94.7601 12.1263 94.7361 12.1263L92.4141 18.0303H89.5161ZM95.3121 10.2543H95.9061V5.30427H95.2581C94.4781 5.30427 93.8901 5.49627 93.4941 5.88027C93.0981 6.25227 92.9001 6.84027 92.9001 7.64427C92.9001 8.47227 93.0741 9.11427 93.4221 9.57027C93.7821 10.0263 94.4121 10.2543 95.3121 10.2543Z" fill="#222222"/>
<path d="M11.42 23.9253C11.65 24.1553 11.834 24.4926 11.972 24.9373C12.1253 25.3666 12.225 25.8266 12.271 26.3173C12.3323 26.8079 12.3247 27.2679 12.248 27.6973C12.2327 27.7433 12.2097 27.8889 12.179 28.1343C12.1637 28.3643 12.1407 28.6403 12.11 28.9623C12.0793 29.2689 12.041 29.5603 11.995 29.8363C11.9643 30.0969 11.926 30.2809 11.88 30.3883C11.88 30.6489 11.811 30.9096 11.673 31.1703C11.5503 31.4309 11.4737 31.6916 11.443 31.9523C11.3663 32.1363 11.282 32.3203 11.19 32.5043C11.1133 32.6883 11.029 32.8799 10.937 33.0793C10.8603 33.2633 10.776 33.4473 10.684 33.6313C10.6073 33.8153 10.5307 33.9993 10.454 34.1833C10.086 34.9959 9.626 35.7779 9.074 36.5293C8.522 37.2806 7.95467 37.8939 7.372 38.3693C6.98867 38.6606 6.613 38.8906 6.245 39.0593C5.877 39.2433 5.58567 39.3276 5.371 39.3123C5.21767 39.2816 5.06434 39.2663 4.911 39.2663C4.75767 39.2816 4.59667 39.2969 4.428 39.3123C4.27467 39.3276 4.04467 39.2893 3.738 39.1973C3.43134 39.1206 3.14 39.0133 2.864 38.8753C2.588 38.7526 2.39634 38.6453 2.289 38.5533C2.197 38.4613 2.105 38.3769 2.013 38.3003C1.921 38.2083 1.829 38.1163 1.737 38.0243C1.66034 37.9323 1.576 37.8479 1.484 37.7713C1.392 37.6793 1.3 37.5873 1.208 37.4953C1.05467 37.3726 0.970335 37.2423 0.955002 37.1043C0.955002 36.9509 0.955002 36.8743 0.955002 36.8743C0.878335 36.7363 0.870669 36.5446 0.932002 36.2993C1.00867 36.0386 1.139 35.8239 1.323 35.6553C1.507 35.4866 1.70634 35.4559 1.921 35.5633C2.22767 35.7166 2.41934 35.8393 2.496 35.9313C2.57267 36.0233 2.64167 36.1229 2.703 36.2303C2.703 36.3683 2.78734 36.5293 2.956 36.7133C3.14 36.8973 3.347 37.0353 3.577 37.1273C3.669 37.1426 3.761 37.1579 3.853 37.1733C3.96034 37.1886 4.06 37.2039 4.152 37.2193C4.244 37.2346 4.336 37.2499 4.428 37.2653C4.78067 37.2499 5.141 37.1196 5.509 36.8743C5.877 36.6136 6.21434 36.3223 6.521 36.0003C6.843 35.6629 7.08067 35.3869 7.234 35.1723C7.35667 34.9576 7.47167 34.7506 7.579 34.5513C7.70167 34.3519 7.81667 34.1526 7.924 33.9533C8.04667 33.7386 8.16167 33.5316 8.269 33.3323C8.39167 33.1329 8.50667 32.9336 8.614 32.7343C8.67534 32.6116 8.729 32.4889 8.775 32.3663C8.83634 32.2436 8.89767 32.1209 8.959 31.9983C8.74434 31.9983 8.48367 32.0213 8.177 32.0673C7.88567 32.0979 7.579 32.1363 7.257 32.1823C6.935 32.2283 6.62834 32.2589 6.337 32.2743C6.061 32.2896 5.81567 32.2819 5.601 32.2513C5.35567 32.1439 5.17167 31.9906 5.049 31.7913C4.94167 31.5919 4.842 31.3389 4.75 31.0323C4.67334 30.7256 4.69634 30.4956 4.819 30.3423C4.94167 30.1736 5.11034 30.0433 5.325 29.9513H7.05C7.464 29.9053 7.89334 29.9053 8.338 29.9513C8.798 29.9973 9.21967 30.0049 9.603 29.9743C9.649 29.9743 9.695 29.9743 9.741 29.9743C9.787 29.9743 9.833 29.9666 9.879 29.9513C9.879 29.6906 9.90967 29.3916 9.971 29.0543C10.0323 28.7016 10.0553 28.4639 10.04 28.3413C10.086 27.9579 10.109 27.6513 10.109 27.4213C10.109 27.1759 10.109 26.9459 10.109 26.7313C10.1243 26.5166 10.1473 26.2406 10.178 25.9033C10.178 25.6886 10.1397 25.4816 10.063 25.2823C9.98634 25.0829 9.87134 24.9526 9.718 24.8913C9.58 24.7993 9.43434 24.7303 9.281 24.6843C9.143 24.6229 8.99734 24.5846 8.844 24.5693C8.706 24.5386 8.55267 24.5233 8.384 24.5233C8.30734 24.4773 8.18467 24.4849 8.016 24.5463C7.84734 24.5923 7.65567 24.6843 7.441 24.8223C7.22634 24.9603 7.004 25.1289 6.774 25.3283C6.75867 25.3436 6.73567 25.3666 6.705 25.3973C6.67434 25.4279 6.64367 25.4586 6.613 25.4893C6.53634 25.5813 6.45967 25.6809 6.383 25.7883C6.30634 25.8803 6.22967 25.9723 6.153 26.0643C5.923 26.2943 5.67 26.3786 5.394 26.3173C5.13334 26.2559 4.96467 26.0796 4.888 25.7883C4.888 25.7576 4.84967 25.6656 4.773 25.5123C4.71167 25.3589 4.67334 25.1749 4.658 24.9603C4.658 24.7303 4.75 24.5156 4.934 24.3163C5.19467 23.9789 5.486 23.6723 5.808 23.3963C6.14534 23.1203 6.51334 22.8673 6.912 22.6373C7.004 22.6066 7.08834 22.5836 7.165 22.5683C7.257 22.5376 7.349 22.5146 7.441 22.4993C7.487 22.4379 7.556 22.3919 7.648 22.3613C7.74 22.3306 7.83967 22.3153 7.947 22.3153C8.269 22.3153 8.65234 22.3919 9.097 22.5453C9.54167 22.6986 9.97867 22.8979 10.408 23.1433C10.8373 23.3886 11.1747 23.6493 11.42 23.9253Z" fill="#FF395C"/>
<path d="M25.4248 39.6343C25.3635 39.6956 25.2178 39.7109 24.9878 39.6803C24.7578 39.6649 24.5738 39.5576 24.4358 39.3583C24.3285 39.1436 24.2672 38.8983 24.2518 38.6223C24.2365 38.3463 24.2365 37.9629 24.2518 37.4723C24.3438 36.9356 24.4972 36.2303 24.7118 35.3563C24.9265 34.4823 25.1642 33.5086 25.4248 32.4353C25.7008 31.3466 25.9768 30.2349 26.2528 29.1003C26.3908 28.5636 26.4982 28.1113 26.5748 27.7433C26.6668 27.3753 26.7282 27.0993 26.7588 26.9153C26.8048 26.7159 26.8278 26.6163 26.8278 26.6163C26.8125 26.6469 26.7895 26.6776 26.7588 26.7083C26.7435 26.7389 26.7282 26.7696 26.7128 26.8003C26.6975 26.8309 26.6822 26.8616 26.6668 26.8923C26.6668 26.8923 26.6362 26.9459 26.5748 27.0533C26.5288 27.1606 26.4215 27.3446 26.2528 27.6053C26.1302 27.7893 26.0152 28.0039 25.9078 28.2493C25.8005 28.4946 25.6165 28.8166 25.3558 29.2153C25.1105 29.6753 24.8345 30.2043 24.5278 30.8023C24.2212 31.4003 23.9605 31.8756 23.7458 32.2283C23.6385 32.3969 23.5388 32.5426 23.4468 32.6653C23.3702 32.7879 23.3165 32.8876 23.2858 32.9643C23.2245 33.1329 23.1248 33.3399 22.9868 33.5853C22.8488 33.8306 22.6878 34.0683 22.5038 34.2983C22.4118 34.4363 22.2892 34.5973 22.1358 34.7813C21.9978 34.9653 21.8752 35.1339 21.7678 35.2873C21.6605 35.4253 21.6068 35.4943 21.6068 35.4943C21.5762 35.5863 21.4765 35.7319 21.3078 35.9313C21.1392 36.1306 20.9322 36.3529 20.6868 36.5983C20.4568 36.8283 20.2192 37.0429 19.9738 37.2423C19.4372 37.6716 18.9925 37.9399 18.6398 38.0473C18.3025 38.1546 17.9115 38.0243 17.4668 37.6563C17.2675 37.4109 17.1065 37.1656 16.9838 36.9203C16.8612 36.6596 16.7998 36.3069 16.7998 35.8623C16.7998 35.4176 16.8765 34.7966 17.0298 33.9993C17.1372 33.4933 17.2522 32.9566 17.3748 32.3893C17.5128 31.8219 17.6508 31.2776 17.7888 30.7563C17.9268 30.2196 18.0495 29.7596 18.1568 29.3763C18.2795 28.9776 18.3638 28.7016 18.4098 28.5483C18.4558 28.1649 18.4635 27.9656 18.4328 27.9503C18.4022 27.9196 18.3255 28.0039 18.2028 28.2033C18.0955 28.3719 17.8962 28.7246 17.6048 29.2613C17.3135 29.7979 16.9838 30.4266 16.6158 31.1473C16.2632 31.8679 15.9182 32.5886 15.5808 33.3093C14.9522 34.4746 14.4232 35.4483 13.9938 36.2303C13.5645 37.0123 13.2118 37.6409 12.9358 38.1163C12.6598 38.5763 12.4452 38.9213 12.2918 39.1513C12.1538 39.3966 12.0465 39.5653 11.9698 39.6573C11.9085 39.7646 11.8625 39.8336 11.8318 39.8643C11.6018 39.8489 11.4025 39.7416 11.2338 39.5423C11.0652 39.3429 10.9272 39.1053 10.8198 38.8293C10.7892 38.6759 10.7662 38.5149 10.7508 38.3463C10.7355 38.1776 10.7508 37.9936 10.7968 37.7943C10.8582 37.5796 10.9502 37.3496 11.0728 37.1043C11.2722 36.7056 11.4638 36.3683 11.6478 36.0923C11.8318 35.8163 11.9468 35.6476 11.9928 35.5863C12.0695 35.4789 12.1308 35.3639 12.1768 35.2413C12.2228 35.1186 12.2535 35.0036 12.2688 34.8963C12.3455 34.8043 12.4605 34.6126 12.6138 34.3213C12.7825 34.0299 12.9512 33.7156 13.1198 33.3783C13.2425 33.1789 13.4112 32.9029 13.6258 32.5503C13.8405 32.1823 14.0705 31.7913 14.3158 31.3773C14.5612 30.9479 14.7758 30.5569 14.9598 30.2043C15.6345 28.9929 16.1712 28.0269 16.5698 27.3063C16.9685 26.5703 17.2522 26.1026 17.4208 25.9033C17.5282 25.8266 17.6202 25.6809 17.6968 25.4663C17.7888 25.2363 17.8655 25.0676 17.9268 24.9603C18.1415 24.5309 18.3562 24.1783 18.5708 23.9023C18.8008 23.6109 19.0002 23.4653 19.1688 23.4653C19.2915 23.4653 19.4448 23.5113 19.6288 23.6033C19.8282 23.6953 20.0198 23.8256 20.2038 23.9943C20.3725 24.1936 20.5258 24.4619 20.6638 24.7993C20.8172 25.1213 20.8478 25.5506 20.7558 26.0873C20.7405 26.3326 20.7022 26.6316 20.6408 26.9843C20.5795 27.3216 20.5182 27.6589 20.4568 27.9963C20.3955 28.3336 20.3342 28.6173 20.2728 28.8473C20.1502 29.5373 20.0122 30.1966 19.8588 30.8253C19.7208 31.4386 19.5905 32.0059 19.4678 32.5273C19.3452 33.0486 19.2455 33.5086 19.1688 33.9073C19.0922 34.2906 19.0385 34.6049 19.0078 34.8503C18.9925 35.0956 19.0232 35.2566 19.0998 35.3333C19.1458 35.3486 19.2072 35.3333 19.2838 35.2873C19.3758 35.2259 19.4448 35.1646 19.4908 35.1033C19.5828 34.9806 19.6672 34.8579 19.7438 34.7353C19.8205 34.6126 19.9202 34.4593 20.0428 34.2753C20.2882 33.9379 20.5412 33.5699 20.8018 33.1713C21.0778 32.7573 21.3998 32.2513 21.7678 31.6533C22.1512 31.0399 22.6035 30.2886 23.1248 29.3993C23.6462 28.4946 24.2825 27.3753 25.0338 26.0413C25.3865 25.5046 25.7238 24.9679 26.0458 24.4313C26.3678 23.8946 26.6592 23.4806 26.9198 23.1893C27.1498 22.9439 27.4335 22.8596 27.7708 22.9363C28.1235 23.0129 28.4455 23.2046 28.7368 23.5113C29.0282 23.8179 29.1892 24.1936 29.2198 24.6383C29.2352 24.8529 29.1892 25.2363 29.0818 25.7883C28.9898 26.3249 28.8595 26.9306 28.6908 27.6053C28.5222 28.2799 28.3305 28.9393 28.1158 29.5833C28.0698 29.8439 27.9932 30.1889 27.8858 30.6183C27.7785 31.0476 27.6635 31.4846 27.5408 31.9293C27.4182 32.3739 27.3032 32.7726 27.1958 33.1253C27.0885 33.6466 26.9965 34.0606 26.9198 34.3673C26.8585 34.6739 26.8278 35.0266 26.8278 35.4253C26.6898 35.6706 26.5978 36.0233 26.5518 36.4833C26.5058 36.9433 26.4828 37.4186 26.4828 37.9093C26.4215 38.5073 26.2912 38.9289 26.0918 39.1743C25.9078 39.4196 25.7852 39.5346 25.7238 39.5193C25.6012 39.4733 25.5015 39.5116 25.4248 39.6343Z" fill="#FF395C"/>
<path d="M64.294 43.8893C64.0333 43.9506 63.8263 43.9736 63.673 43.9583C63.535 43.9429 63.397 43.8739 63.259 43.7513C63.121 43.6286 62.9217 43.4446 62.661 43.1993C62.5843 42.9846 62.5843 42.7699 62.661 42.5553C62.7377 42.3406 62.822 42.1336 62.914 41.9343C63.0213 41.7503 63.075 41.6046 63.075 41.4973C63.075 41.3746 63.144 41.1753 63.282 40.8993C63.42 40.6386 63.5733 40.3549 63.742 40.0483C63.9107 39.7416 64.0333 39.4963 64.11 39.3123C64.1407 39.2356 64.1637 39.1589 64.179 39.0823C64.2097 39.0209 64.225 38.9596 64.225 38.8983C63.7957 38.8676 63.374 38.8599 62.96 38.8753C62.546 38.8906 62.2853 38.9059 62.178 38.9213C61.9327 38.9519 61.695 38.9826 61.465 39.0133C61.235 39.0593 61.0203 39.0899 60.821 39.1053C60.637 39.1359 60.453 39.1589 60.269 39.1743C59.7783 39.2356 59.3413 39.2739 58.958 39.2893C58.5747 39.3046 58.1837 39.3046 57.785 39.2893C57.1257 39.2893 56.4817 39.2203 55.853 39.0823C55.301 38.7296 54.9023 38.3923 54.657 38.0703C54.427 37.7329 54.22 37.3573 54.036 36.9433C53.944 36.7286 53.8903 36.5139 53.875 36.2993C53.875 36.0846 53.9287 35.9006 54.036 35.7473C54.082 35.3486 54.174 34.8963 54.312 34.3903C54.45 33.8843 54.5957 33.3783 54.749 32.8723C54.9177 32.3509 55.0787 31.8909 55.232 31.4923C55.3853 31.0783 55.5003 30.7793 55.577 30.5953C55.899 29.8133 56.1367 29.1693 56.29 28.6633C56.4433 28.1573 56.658 27.6589 56.934 27.1683C57.072 26.7849 57.2253 26.4246 57.394 26.0873C57.5627 25.7346 57.7237 25.3896 57.877 25.0523C57.9383 24.9296 57.9843 24.8299 58.015 24.7533C58.0457 24.6613 58.061 24.5769 58.061 24.5003C58.061 24.2856 58.1377 24.1169 58.291 23.9943C58.4443 23.8716 58.6207 23.8409 58.82 23.9023C59.1113 23.9636 59.3567 24.0786 59.556 24.2473C59.7707 24.4159 59.9087 24.6306 59.97 24.8913C60.0007 25.0446 60.0083 25.2056 59.993 25.3743C59.9777 25.5276 59.9163 25.6886 59.809 25.8573C59.7477 25.9186 59.671 26.0413 59.579 26.2253C59.5023 26.3939 59.4027 26.6086 59.28 26.8693C59.1727 27.1299 59.05 27.4213 58.912 27.7433C58.774 28.0653 58.636 28.4103 58.498 28.7783C58.3447 29.1769 58.1837 29.5986 58.015 30.0433C57.8617 30.4726 57.7083 30.9019 57.555 31.3313C57.4017 31.7453 57.256 32.1516 57.118 32.5503C56.98 32.9336 56.8573 33.2939 56.75 33.6313C56.6427 33.9533 56.5507 34.2369 56.474 34.4823C56.382 34.7889 56.2977 35.0879 56.221 35.3793C56.1597 35.6706 56.0983 35.9619 56.037 36.2533C55.9603 36.5906 55.9987 36.8666 56.152 37.0813C56.1673 37.1119 56.2977 37.1579 56.543 37.2193C56.7883 37.2653 57.049 37.3036 57.325 37.3343C57.6163 37.3496 57.8233 37.3419 57.946 37.3113C58.13 37.2806 58.406 37.2576 58.774 37.2423C59.1573 37.2269 59.51 37.2116 59.832 37.1963C60.1693 37.1656 60.361 37.1349 60.407 37.1043C60.4683 37.0736 60.5373 37.0583 60.614 37.0583C60.6907 37.0429 60.8133 37.0353 60.982 37.0353C61.1507 37.0353 61.396 37.0353 61.718 37.0353C61.7487 36.9433 61.7717 36.8589 61.787 36.7823C61.8177 36.6903 61.8407 36.5983 61.856 36.5063C61.902 36.3223 61.971 36.0539 62.063 35.7013C62.1703 35.3333 62.2777 34.9576 62.385 34.5743C62.5077 34.1909 62.615 33.8843 62.707 33.6543C62.9677 32.9489 63.1593 32.3893 63.282 31.9753C63.42 31.5613 63.5273 31.2316 63.604 30.9863C63.696 30.7409 63.8033 30.5263 63.926 30.3423C64.0027 29.9743 64.1253 29.6369 64.294 29.3303C64.4627 29.0236 64.6083 28.7093 64.731 28.3873C65.0377 27.6513 65.306 27.0149 65.536 26.4783C65.766 25.9416 65.9653 25.4893 66.134 25.1213C66.3027 24.7533 66.4483 24.4543 66.571 24.2243C66.6937 23.9943 66.801 23.8256 66.893 23.7183C66.985 23.6109 67.077 23.5496 67.169 23.5343C67.4143 23.5343 67.6827 23.6339 67.974 23.8333C68.2807 24.0326 68.4647 24.2166 68.526 24.3853C68.5567 24.4619 68.549 24.5923 68.503 24.7763C68.4723 24.9449 68.4033 25.1673 68.296 25.4433C68.1887 25.7193 68.0583 26.0413 67.905 26.4093C67.7517 26.7773 67.5677 27.1913 67.353 27.6513C67.1383 28.1113 66.916 28.5943 66.686 29.1003C66.456 29.6063 66.203 30.1889 65.927 30.8483C65.7737 31.2009 65.628 31.5459 65.49 31.8833C65.3673 32.2206 65.2677 32.5426 65.191 32.8493C65.145 33.0026 65.0607 33.2403 64.938 33.5623C64.8153 33.8843 64.6927 34.2063 64.57 34.5283C64.4627 34.8503 64.4013 35.1109 64.386 35.3103C64.2787 35.5556 64.1943 35.8163 64.133 36.0923C64.087 36.3683 64.0257 36.6289 63.949 36.8743C63.9797 36.8743 64.0103 36.8743 64.041 36.8743C64.087 36.8743 64.1253 36.8743 64.156 36.8743C64.3707 36.8589 64.57 36.8819 64.754 36.9433C64.9533 37.0046 65.1373 37.0659 65.306 37.1273C65.904 37.3113 66.2413 37.7713 66.318 38.5073C66.3947 39.1053 66.3027 39.6956 66.042 40.2783C65.95 40.5083 65.858 40.7229 65.766 40.9223C65.674 41.1369 65.5667 41.3286 65.444 41.4973C65.4747 41.4513 65.4517 41.5126 65.375 41.6813C65.3137 41.8653 65.2217 42.0876 65.099 42.3483C64.9763 42.6243 64.8613 42.8849 64.754 43.1303C64.6467 43.3756 64.57 43.5443 64.524 43.6363C64.4933 43.6823 64.455 43.7206 64.409 43.7513C64.363 43.7973 64.3247 43.8433 64.294 43.8893Z" fill="#FF395C"/>
<path d="M76.9192 40.6693C76.5359 40.5159 76.2522 40.3013 76.0682 40.0253C75.8842 39.7646 75.8305 39.4579 75.9072 39.1053C75.8765 39.2279 75.8995 39.2049 75.9762 39.0363C76.0682 38.8676 76.1832 38.6146 76.3212 38.2773C76.4745 37.9399 76.6355 37.5643 76.8042 37.1503C76.9729 36.7209 77.1339 36.2993 77.2872 35.8853C77.4559 35.4713 77.5939 35.1186 77.7012 34.8273C77.9619 34.1679 78.1995 33.5699 78.4142 33.0333C78.6289 32.4966 78.8052 32.0366 78.9432 31.6533C79.0965 31.2699 79.2115 30.9709 79.2882 30.7563C79.3649 30.5416 79.4032 30.4266 79.4032 30.4113C79.5565 30.0586 79.7022 29.6523 79.8402 29.1923C79.9935 28.7169 80.1545 28.3106 80.3232 27.9733C80.4152 27.7586 80.4995 27.5363 80.5762 27.3063C80.6682 27.0763 80.7525 26.8463 80.8292 26.6163C80.4305 27.0763 80.0012 27.5823 79.5412 28.1343C79.0965 28.6709 78.6289 29.2229 78.1382 29.7903C77.6629 30.3576 77.1799 30.9249 76.6892 31.4923C76.2139 32.0596 75.7539 32.6039 75.3092 33.1253C74.8799 33.6466 74.4812 34.1296 74.1132 34.5743C73.7452 35.0036 73.4309 35.3716 73.1702 35.6783C72.9095 35.9696 72.7179 36.1843 72.5952 36.3223C72.2579 36.5829 71.9435 36.8666 71.6522 37.1733C71.3762 37.4646 71.0695 37.7406 70.7322 38.0013C70.5942 38.1086 70.4102 38.2543 70.1802 38.4383C69.9655 38.6069 69.7509 38.7603 69.5362 38.8983C69.3369 39.0363 69.1682 39.1053 69.0302 39.1053C68.4169 38.9979 68.0259 38.8139 67.8572 38.5533C67.7039 38.3079 67.6732 38.0166 67.7652 37.6793C67.8725 37.3266 67.9952 36.9663 68.1332 36.5983C68.2099 36.3836 68.2789 36.1613 68.3402 35.9313C68.4015 35.7013 68.4475 35.4559 68.4782 35.1953C68.6009 34.6586 68.7235 34.1909 68.8462 33.7923C68.9689 33.3936 69.0839 33.0333 69.1912 32.7113C69.2985 32.3433 69.3982 31.9829 69.4902 31.6303C69.5975 31.2776 69.6589 30.9326 69.6742 30.5953C69.8275 30.3193 69.9809 29.9973 70.1342 29.6293C70.2875 29.2459 70.4255 28.8779 70.5482 28.5253C70.6862 28.1726 70.7935 27.9119 70.8702 27.7433C71.0389 27.3753 71.1769 26.9919 71.2842 26.5933C71.4069 26.1946 71.5525 25.8036 71.7212 25.4203C71.8285 25.2056 71.9742 24.9296 72.1582 24.5923C72.3422 24.2396 72.5109 23.8869 72.6642 23.5343C72.8175 23.1816 72.8942 22.8979 72.8942 22.6833C72.8942 22.4533 72.9785 22.2923 73.1472 22.2003C73.3159 22.1083 73.5152 22.0776 73.7452 22.1083C73.9752 22.1236 74.1822 22.2003 74.3662 22.3383C74.5655 22.4609 74.6882 22.6373 74.7342 22.8673C74.7955 23.0359 74.8262 23.2199 74.8262 23.4193C74.8415 23.6186 74.8109 23.8103 74.7342 23.9943L72.8252 28.8473L70.7322 34.3673C70.6402 34.5973 70.5482 34.8273 70.4562 35.0573C70.3642 35.2873 70.2722 35.5173 70.1802 35.7473L74.8262 31.1013C75.0869 30.8253 75.3399 30.5416 75.5852 30.2503C75.8459 29.9589 76.0835 29.6676 76.2982 29.3763C76.6049 28.9623 76.9115 28.5866 77.2182 28.2493C77.5249 27.8966 77.8085 27.5823 78.0692 27.3063C78.3452 27.0303 78.5905 26.7849 78.8052 26.5703C79.0199 26.3556 79.1962 26.1793 79.3342 26.0413L82.2552 22.9363L82.8302 22.7063C83.1215 22.6756 83.3669 22.7446 83.5662 22.9133C83.7655 23.0819 83.8959 23.2966 83.9572 23.5573C84.0339 23.8026 84.0262 24.0403 83.9342 24.2703C83.8729 24.4083 83.7732 24.6383 83.6352 24.9603C83.4972 25.2823 83.3362 25.6733 83.1522 26.1333C82.9682 26.5779 82.7689 27.0686 82.5542 27.6053C82.3395 28.1419 82.1172 28.7016 81.8872 29.2843C81.6725 29.8516 81.4502 30.4266 81.2202 31.0093C81.0055 31.5766 80.7985 32.1209 80.5992 32.6423C80.4919 32.9643 80.3769 33.2863 80.2542 33.6083C80.1469 33.9149 80.0395 34.2293 79.9322 34.5513C79.8249 34.8733 79.7175 35.1953 79.6102 35.5173C79.5029 35.8393 79.3879 36.1613 79.2652 36.4833C79.1579 36.7899 79.0505 37.1043 78.9432 37.4263C78.8819 37.6409 78.8052 37.8479 78.7132 38.0473C78.6212 38.2466 78.5369 38.4383 78.4602 38.6223C78.3682 38.7909 78.2915 38.9519 78.2302 39.1053C78.1689 39.2739 78.1075 39.5116 78.0462 39.8183C77.9542 40.1403 77.7932 40.3856 77.5632 40.5543C77.3485 40.7383 77.1339 40.7766 76.9192 40.6693Z" fill="#FF395C"/>
<path d="M90.7614 40.6693C90.3781 40.5159 90.0944 40.3013 89.9104 40.0253C89.7264 39.7646 89.6728 39.4579 89.7494 39.1053C89.7188 39.2279 89.7418 39.2049 89.8184 39.0363C89.9104 38.8676 90.0254 38.6146 90.1634 38.2773C90.3168 37.9399 90.4778 37.5643 90.6464 37.1503C90.8151 36.7209 90.9761 36.2993 91.1294 35.8853C91.2981 35.4713 91.4361 35.1186 91.5434 34.8273C91.8041 34.1679 92.0418 33.5699 92.2564 33.0333C92.4711 32.4966 92.6474 32.0366 92.7854 31.6533C92.9388 31.2699 93.0538 30.9709 93.1304 30.7563C93.2071 30.5416 93.2454 30.4266 93.2454 30.4113C93.3988 30.0586 93.5444 29.6523 93.6824 29.1923C93.8358 28.7169 93.9968 28.3106 94.1654 27.9733C94.2574 27.7586 94.3418 27.5363 94.4184 27.3063C94.5104 27.0763 94.5948 26.8463 94.6714 26.6163C94.2728 27.0763 93.8434 27.5823 93.3834 28.1343C92.9388 28.6709 92.4711 29.2229 91.9804 29.7903C91.5051 30.3576 91.0221 30.9249 90.5314 31.4923C90.0561 32.0596 89.5961 32.6039 89.1514 33.1253C88.7221 33.6466 88.3234 34.1296 87.9554 34.5743C87.5874 35.0036 87.2731 35.3716 87.0124 35.6783C86.7518 35.9696 86.5601 36.1843 86.4374 36.3223C86.1001 36.5829 85.7858 36.8666 85.4944 37.1733C85.2184 37.4646 84.9118 37.7406 84.5744 38.0013C84.4364 38.1086 84.2524 38.2543 84.0224 38.4383C83.8078 38.6069 83.5931 38.7603 83.3784 38.8983C83.1791 39.0363 83.0104 39.1053 82.8724 39.1053C82.2591 38.9979 81.8681 38.8139 81.6994 38.5533C81.5461 38.3079 81.5154 38.0166 81.6074 37.6793C81.7148 37.3266 81.8374 36.9663 81.9754 36.5983C82.0521 36.3836 82.1211 36.1613 82.1824 35.9313C82.2438 35.7013 82.2898 35.4559 82.3204 35.1953C82.4431 34.6586 82.5658 34.1909 82.6884 33.7923C82.8111 33.3936 82.9261 33.0333 83.0334 32.7113C83.1408 32.3433 83.2404 31.9829 83.3324 31.6303C83.4398 31.2776 83.5011 30.9326 83.5164 30.5953C83.6698 30.3193 83.8231 29.9973 83.9764 29.6293C84.1298 29.2459 84.2678 28.8779 84.3904 28.5253C84.5284 28.1726 84.6358 27.9119 84.7124 27.7433C84.8811 27.3753 85.0191 26.9919 85.1264 26.5933C85.2491 26.1946 85.3948 25.8036 85.5634 25.4203C85.6708 25.2056 85.8164 24.9296 86.0004 24.5923C86.1844 24.2396 86.3531 23.8869 86.5064 23.5343C86.6598 23.1816 86.7364 22.8979 86.7364 22.6833C86.7364 22.4533 86.8208 22.2923 86.9894 22.2003C87.1581 22.1083 87.3574 22.0776 87.5874 22.1083C87.8174 22.1236 88.0244 22.2003 88.2084 22.3383C88.4078 22.4609 88.5304 22.6373 88.5764 22.8673C88.6378 23.0359 88.6684 23.2199 88.6684 23.4193C88.6838 23.6186 88.6531 23.8103 88.5764 23.9943L86.6674 28.8473L84.5744 34.3673C84.4824 34.5973 84.3904 34.8273 84.2984 35.0573C84.2064 35.2873 84.1144 35.5173 84.0224 35.7473L88.6684 31.1013C88.9291 30.8253 89.1821 30.5416 89.4274 30.2503C89.6881 29.9589 89.9258 29.6676 90.1404 29.3763C90.4471 28.9623 90.7538 28.5866 91.0604 28.2493C91.3671 27.8966 91.6508 27.5823 91.9114 27.3063C92.1874 27.0303 92.4328 26.7849 92.6474 26.5703C92.8621 26.3556 93.0384 26.1793 93.1764 26.0413L96.0974 22.9363L96.6724 22.7063C96.9638 22.6756 97.2091 22.7446 97.4084 22.9133C97.6078 23.0819 97.7381 23.2966 97.7994 23.5573C97.8761 23.8026 97.8684 24.0403 97.7764 24.2703C97.7151 24.4083 97.6154 24.6383 97.4774 24.9603C97.3394 25.2823 97.1784 25.6733 96.9944 26.1333C96.8104 26.5779 96.6111 27.0686 96.3964 27.6053C96.1818 28.1419 95.9594 28.7016 95.7294 29.2843C95.5148 29.8516 95.2924 30.4266 95.0624 31.0093C94.8478 31.5766 94.6408 32.1209 94.4414 32.6423C94.3341 32.9643 94.2191 33.2863 94.0964 33.6083C93.9891 33.9149 93.8818 34.2293 93.7744 34.5513C93.6671 34.8733 93.5598 35.1953 93.4524 35.5173C93.3451 35.8393 93.2301 36.1613 93.1074 36.4833C93.0001 36.7899 92.8928 37.1043 92.7854 37.4263C92.7241 37.6409 92.6474 37.8479 92.5554 38.0473C92.4634 38.2466 92.3791 38.4383 92.3024 38.6223C92.2104 38.7909 92.1338 38.9519 92.0724 39.1053C92.0111 39.2739 91.9498 39.5116 91.8884 39.8183C91.7964 40.1403 91.6354 40.3856 91.4054 40.5543C91.1908 40.7383 90.9761 40.7766 90.7614 40.6693ZM91.9574 21.9013C91.3441 21.9013 90.8534 21.7173 90.4854 21.3493C90.1328 20.9659 89.8414 20.4753 89.6114 19.8773C89.5808 19.7546 89.5654 19.6243 89.5654 19.4863C89.5654 19.3483 89.6344 19.1873 89.7724 19.0033C89.8644 18.9113 89.9871 18.8576 90.1404 18.8423C90.3091 18.8269 90.4241 18.8346 90.4854 18.8653C90.8381 18.9266 91.0834 19.0569 91.2214 19.2563C91.3748 19.4403 91.4514 19.6626 91.4514 19.9233C91.4974 19.9999 91.5358 20.0689 91.5664 20.1303C91.5971 20.1763 91.6278 20.2299 91.6584 20.2913C91.7351 20.3526 91.8118 20.3833 91.8884 20.3833C91.9804 20.3833 92.1721 20.3296 92.4634 20.2223C92.8774 20.0843 93.2148 19.9156 93.4754 19.7163C93.7514 19.5016 94.0121 19.2946 94.2574 19.0953C94.4721 18.9266 94.6331 18.8039 94.7404 18.7273C94.8631 18.6353 94.9551 18.5816 95.0164 18.5663L95.0624 18.5433C95.2311 18.5126 95.3921 18.5126 95.5454 18.5433C95.7141 18.5739 95.8291 18.6429 95.8904 18.7503C95.9671 18.8423 96.0131 18.9726 96.0284 19.1413C96.0591 19.2946 96.0668 19.4326 96.0514 19.5553L96.0284 19.6013C95.9671 19.7393 95.8828 19.9003 95.7754 20.0843C95.6834 20.2683 95.4918 20.4599 95.2004 20.6593C94.9551 20.8279 94.6791 21.0043 94.3724 21.1883C94.0658 21.3569 93.7361 21.5103 93.3834 21.6483C93.2761 21.7096 93.1381 21.7709 92.9694 21.8323C92.8008 21.8783 92.4634 21.9013 91.9574 21.9013Z" fill="#FF395C"/>
<path d="M42.449 19.6307C42.5569 19.6252 42.7961 19.6478 43.1004 19.6932C43.2878 19.7211 43.5003 19.7574 43.7215 19.8006C44.3136 19.8632 44.9012 19.9779 45.4764 20.1434C45.603 20.1553 45.7174 20.1571 45.8143 20.1434C45.8839 20.1334 45.9476 20.1148 46.0125 20.0965C46.101 20.0717 46.1935 20.0472 46.3104 20.0457C46.4017 20.0445 46.5002 20.0695 46.5564 20.1092C46.5587 20.1108 46.5611 20.1124 46.5633 20.1141C46.5856 20.1312 46.6011 20.1503 46.615 20.1678C46.6326 20.1897 46.6478 20.2099 46.6727 20.2205C46.6905 20.2281 46.7128 20.2274 46.74 20.2273C46.7838 20.2272 46.8409 20.2279 46.9129 20.2605C47.1814 20.3823 47.4772 20.5427 47.7576 20.7137C48.07 20.9034 48.3647 21.1064 48.6004 21.2654C48.8652 21.4428 49.2047 21.748 49.5174 22.075C49.7364 22.3027 49.9442 22.5402 50.1219 22.742C50.2961 22.9394 50.4908 23.1322 50.6736 23.326C50.8932 23.5582 51.0957 23.7928 51.2195 24.0242C51.2445 24.071 51.2504 24.1463 51.2566 24.24C51.2586 24.2686 51.261 24.299 51.2635 24.3309C51.2668 24.373 51.2709 24.418 51.2772 24.4646C51.4535 24.7383 51.6162 25.02 51.7654 25.3084C51.7752 25.3161 51.7856 25.3239 51.7957 25.3318V25.3328C52.024 25.512 52.3426 25.7803 52.449 26.3016C52.4754 26.4332 52.4623 26.5273 52.45 26.6111C52.4378 26.6935 52.4256 26.7665 52.45 26.8582C52.4778 26.9626 52.5422 27.0748 52.6102 27.199C52.7054 27.3728 52.8077 27.572 52.825 27.7937C52.8262 27.8089 52.8276 27.8256 52.8289 27.8426C52.8415 28.0032 52.8553 28.2408 52.8191 28.4832C52.9333 29.1576 52.9863 29.8399 52.9793 30.5184C52.9678 31.6497 52.7908 32.7693 52.4725 33.8367C52.318 34.3566 52.0474 34.8166 51.7469 35.1014C51.4453 35.3877 51.1468 35.4794 50.9246 35.3846C50.7015 35.2887 50.5662 35.0182 50.5115 34.6434C50.4573 34.2676 50.4839 33.8169 50.5662 33.368C50.7019 32.6363 50.7582 31.8946 50.7371 31.1619C50.7331 31.1234 50.7294 31.084 50.7254 31.0457C50.6953 30.7602 50.6186 30.4992 50.533 30.2449C50.5134 30.1865 50.4938 30.128 50.4734 30.0701C50.3279 29.6281 50.2228 28.7749 50.1082 28.3094C50.1062 28.3008 50.1043 28.2915 50.1023 28.283C50.0771 28.1729 50.0477 28.0703 50.0105 27.951C49.9165 27.6673 49.8072 27.2791 49.4832 26.4959C49.3655 26.28 49.2399 26.069 49.1072 25.8631C49.0907 25.8374 49.0733 25.8115 49.0564 25.7859C48.1742 24.4419 46.9426 23.3484 45.4764 22.6678C44.5601 22.2401 43.5674 21.9767 42.5447 21.9002C42.5109 21.8997 42.4761 21.8993 42.4412 21.8992C41.7644 21.8908 40.9329 22.0087 40.407 22.0877C39.7364 22.1829 39.2808 22.2975 38.908 22.3992C36.8264 23.1322 34.9813 24.6427 33.8104 26.5877C33.569 26.9863 33.3563 27.3986 33.1707 27.8279C33.0718 28.057 32.9831 28.2853 32.9012 28.5203C32.6852 29.1402 32.5283 29.7806 32.4354 30.4285C32.4022 30.809 32.3982 31.1718 32.409 31.5066C32.4242 31.9755 32.4693 32.389 32.5037 32.7273C32.5814 33.5453 32.7293 34.4649 32.9178 35.1336C32.9477 35.2427 32.9782 35.3451 33.0076 35.4393C33.2095 35.9517 33.4556 36.4446 33.742 36.909C33.7517 36.9452 33.7612 36.982 33.7713 37.0193C33.9008 37.4846 34.2178 37.9872 34.8367 38.6561C35.1082 38.9457 35.44 39.2644 35.8611 39.6043C36.1331 39.822 36.2539 39.9628 36.3543 40.0799C36.3838 40.114 36.4122 40.1455 36.4422 40.1756C36.5449 40.2787 36.6914 40.3288 36.865 40.3807C37.0901 40.4472 37.3569 40.5171 37.6619 40.7146C37.6971 40.7373 37.7319 40.7592 37.7664 40.7801C38.7001 41.3322 39.2394 41.2954 39.6082 41.2801C39.7232 41.2735 39.8269 41.2651 39.9305 41.2664C40.2661 41.2728 40.7312 41.3557 41.0936 41.4178C41.3804 41.4722 41.9601 41.3986 42.3807 41.2762C42.54 41.2314 42.759 41.1964 43.0145 41.1424C43.2786 41.0866 43.5835 41.0095 43.8943 40.8846C44.6781 40.5633 45.0599 40.3272 45.368 40.1443C45.4551 40.0911 45.5355 40.0401 45.615 39.9881C45.8661 39.8241 46.1728 39.6148 46.4686 39.3836C46.8232 39.1081 47.1599 38.8011 47.3943 38.5467C48.0742 37.9675 48.6869 37.2965 49.2049 36.5535C49.4719 36.1719 49.7781 35.8334 50.0906 35.6053C50.4014 35.3812 50.6966 35.288 50.9246 35.3846C51.1514 35.4804 51.2934 35.7654 51.2938 36.1863C51.2929 36.6094 51.1418 37.1309 50.8602 37.6082C50.2966 38.5664 49.5977 39.4567 48.7801 40.2312C47.7854 41.1746 46.6117 41.9477 45.325 42.4656C44.4259 42.828 43.4746 43.0715 42.5066 43.1805C42.407 43.1917 42.3068 43.2014 42.2068 43.2098C41.3984 43.3515 40.5643 43.3759 39.9813 43.327C39.4991 43.288 39.1566 43.1883 38.8699 43.0965C38.6715 43.0324 38.4998 42.9711 38.3211 42.9236C38.2252 42.8981 38.0935 42.8638 37.9373 42.8182C37.6879 42.7452 37.3754 42.6428 37.034 42.5027C36.4987 42.285 35.9018 41.9692 35.3943 41.5916C35.0251 41.3192 34.6305 40.9569 34.2879 40.5877C33.794 40.0608 33.4097 39.5204 33.1844 39.2752C32.7843 38.8455 32.4272 38.2697 32.1619 37.743C31.9061 37.2404 31.7281 36.7848 31.5828 36.5428C31.41 36.2537 31.3256 35.9776 31.2264 35.5662C31.1589 35.2807 31.084 34.9294 30.9939 34.452C30.8921 33.9014 30.8795 33.5025 30.8758 33.1678C30.8738 32.6941 30.8883 32.3441 30.8387 31.8172C30.7845 31.2317 30.806 30.6093 30.9031 30.1346C30.9468 29.9175 30.9901 29.6705 31.0447 29.4129C31.1163 29.0741 31.2086 28.7196 31.3299 28.408C31.4295 28.1519 31.5495 27.9537 31.659 27.782C31.693 27.7289 31.7264 27.6781 31.7576 27.6287C31.8021 27.514 31.8483 27.3992 31.8963 27.285C31.9322 27.1994 31.9692 27.1145 32.0066 27.0301C32.014 26.9951 32.022 26.9582 32.0301 26.9197C32.0703 26.7277 32.1265 26.4858 32.242 26.2127C32.427 25.7778 32.6671 25.4371 32.9344 25.0945C33.1437 24.8271 33.3704 24.5578 33.6189 24.242C33.7892 24.0257 33.9803 23.7782 34.1814 23.5398C34.479 23.1855 34.8001 22.8537 35.0545 22.6619C35.1497 22.5898 35.2491 22.5475 35.3465 22.5076H35.3475C35.3541 22.5049 35.3614 22.5015 35.368 22.4988C35.9551 21.9989 36.5925 21.5528 37.2713 21.1727C37.3275 21.1349 37.3848 21.0971 37.4422 21.0604C37.7222 20.8807 38.0047 20.7203 38.1824 20.5945C38.3741 20.4571 38.9081 20.2196 39.4969 20.032C39.8814 19.9076 40.2883 19.8032 40.6238 19.7215C40.8201 19.6734 41.0149 19.6796 41.2127 19.6922C41.3975 19.7039 41.5854 19.7208 41.7889 19.7039C41.8908 19.6955 42.001 19.6793 42.1189 19.6639C42.2228 19.6503 42.3332 19.6366 42.449 19.6307Z" fill="#FF395C"/>
<path d="M50.5081 31.0343C50.4025 30.6693 50.4092 29.9774 50.3766 29.5927C50.3761 29.5857 50.3756 29.5786 50.375 29.5716C50.3685 29.4808 50.357 29.3949 50.3419 29.2953C50.3025 29.0574 50.2608 28.7367 50.1338 28.0629C50.0723 27.874 50.006 27.6871 49.9353 27.5023C49.7042 26.8986 49.418 26.3181 49.0769 25.7728L49.4159 26.1259C48.8588 25.6903 48.393 25.567 48.2581 25.6164C48.0565 25.6185 47.5781 26.131 47.2759 26.7946C47.2663 26.819 47.2567 26.8441 47.247 26.8697C47.0558 27.3643 46.8787 28.0505 46.7317 28.483C46.5435 29.0324 46.4167 29.4213 46.3074 29.7444C46.1805 30.2304 46.0991 30.671 45.8879 31.2959C45.8286 31.4605 45.7414 31.6452 45.5268 31.8279C45.2962 32.0313 44.9441 32.0959 44.7688 32.0793C44.5636 32.0685 44.4248 32.0156 44.336 31.9799C44.2426 31.942 44.1424 31.8868 44.0915 31.855C43.8389 31.6976 43.6774 31.5486 43.5301 31.4155C43.2284 31.1367 42.9669 30.8607 42.715 30.5981C42.2041 30.0632 41.7154 29.549 41.1998 29.0803C40.7696 28.6898 40.3188 28.3266 39.8645 28.0709C39.451 27.8325 39.0251 27.7216 38.8035 27.7892C38.678 27.8432 38.5896 27.94 38.5026 28.0774C38.3773 28.2755 38.2868 28.5336 38.206 28.7681C38.1142 29.037 38.019 29.3537 37.933 29.7C37.8554 30.0066 37.803 30.2976 37.7744 30.5556C37.765 30.64 37.7581 30.7198 37.7534 30.7936C37.7671 31.2092 37.8299 31.6189 37.937 32.0195C37.9336 32.0486 37.9301 32.0781 37.9266 32.1082C37.8869 32.4839 38.0122 32.9273 38.3368 33.5636C38.4796 33.84 38.6633 34.1527 38.9072 34.5075C39.0643 34.7344 39.1164 34.8764 39.1595 34.9946C39.1724 35.0292 39.1845 35.0615 39.1989 35.0927C39.2483 35.1996 39.354 35.2677 39.4797 35.3433C39.6439 35.4421 39.8375 35.5507 40.0118 35.7871C40.5822 36.54 41.0319 36.6555 41.3327 36.7384C41.4234 36.7621 41.5053 36.7821 41.5836 36.8114C41.8371 36.9077 42.1522 37.1178 42.3944 37.288C42.5842 37.4258 43.0346 37.5476 43.3812 37.5823C43.5124 37.5966 43.6794 37.6413 43.8807 37.6845C44.088 37.7292 44.3293 37.7714 44.5903 37.7748C45.2476 37.7786 45.5817 37.7158 45.848 37.67C45.9238 37.6559 45.9938 37.6414 46.0632 37.6255C46.2827 37.5754 46.55 37.507 46.8107 37.4146C47.1225 37.3056 47.4245 37.1598 47.6346 37.0241C48.2309 36.768 48.7882 36.3964 49.2844 35.9203C49.5321 35.6854 49.8357 35.4742 50.1326 35.3677C50.4332 35.2571 50.721 35.241 50.9309 35.3722C51.1402 35.502 51.2547 35.7758 51.2266 36.1352C51.2045 36.4864 51.0126 36.9186 50.7185 37.2603C50.1117 37.969 49.3611 38.5869 48.502 39.0246C47.4584 39.5616 46.2666 39.8165 45.1094 39.7854C44.2986 39.7656 43.5015 39.6207 42.7467 39.381C42.6688 39.3563 42.5909 39.3303 42.5143 39.3037C41.8637 39.1548 41.2326 38.921 40.8113 38.7134C40.4619 38.5421 40.239 38.3636 40.0529 38.2084C39.9249 38.1012 39.8146 38.0042 39.6931 37.9199C39.6279 37.8745 39.5381 37.8133 39.4315 37.7371C38.9948 37.4308 38.2833 36.8419 37.7971 36.157C37.5789 35.8552 37.3637 35.479 37.186 35.1075C36.9289 34.5771 36.7563 34.0603 36.6304 33.8164C36.4051 33.3885 36.2586 32.8436 36.1829 32.3568C36.1079 31.8927 36.0918 31.4813 36.0373 31.2513C35.9725 30.9739 35.9883 30.7289 36.039 30.3765C36.0759 30.1287 36.1288 29.8362 36.2184 29.4347C36.2259 29.4016 36.2336 29.3692 36.2415 29.3375C36.3472 28.9158 36.4524 28.6718 36.569 28.4125C36.7392 28.0616 36.8708 27.7967 37.1061 27.3378C37.3443 26.8401 37.9487 26.3188 38.5311 26.2532C38.787 26.2128 39.0754 26.2099 39.3421 26.2502C39.708 26.3048 40.0298 26.4243 40.2907 26.5722C40.5074 26.6959 40.6496 26.8345 40.771 26.9585C40.8079 26.9968 40.843 27.0338 40.8772 27.0692C41.0307 27.1676 41.1742 27.2671 41.3173 27.3714C41.345 27.3822 41.3743 27.3935 41.4049 27.4055C41.5554 27.4637 41.7418 27.5409 41.9403 27.6713C42.2549 27.8787 42.4776 28.1161 42.7052 28.3671C42.8815 28.5619 43.0599 28.7651 43.2877 28.9758C43.4398 29.1162 43.6252 29.2714 43.8038 29.4193C44.0691 29.6392 44.3313 29.8518 44.4808 30.0102C44.5338 30.0671 44.5732 30.1418 44.6027 30.2059C44.6028 30.2063 44.6029 30.2066 44.603 30.2069C44.605 30.2113 44.6072 30.2157 44.6092 30.2201C44.7264 30.3108 44.8592 30.4005 44.9233 30.4263C44.9483 30.4441 44.9881 30.419 44.8063 30.4045C44.7348 30.3965 44.5329 30.4452 44.4245 30.5509C44.3249 30.6401 44.2915 30.7212 44.2763 30.7589C44.3147 30.6097 44.3543 30.3815 44.3891 30.1632C44.3913 30.1147 44.3944 30.0616 44.3969 30.0119C44.4079 29.7724 44.42 29.5245 44.4009 29.3622C44.381 29.1828 44.4331 28.7538 44.5047 28.2896C44.5515 27.9849 44.6067 27.67 44.6478 27.4057C44.6717 27.2512 44.7427 27.1171 44.818 26.9802C44.8886 26.8517 44.9622 26.7224 45.008 26.566C45.031 26.4876 45.0484 26.4001 45.0684 26.3068C45.0858 26.2249 45.1064 26.1354 45.1341 26.0454C45.1597 25.9627 45.2495 25.7849 45.3787 25.5642C45.4606 25.4239 45.5551 25.2721 45.6665 25.1049C45.9131 24.6482 46.2334 24.1683 46.7582 23.7668C46.8522 23.666 46.9418 23.57 47.0089 23.4816C47.0573 23.418 47.0967 23.3547 47.1409 23.2902C47.2016 23.2027 47.2704 23.1122 47.389 23.0244C47.4821 22.9554 47.6064 22.9071 47.695 22.9022C47.7363 22.8997 47.7697 22.9059 47.7996 22.9118C47.834 22.9185 47.8643 22.925 47.8989 22.919C47.9239 22.9147 47.9486 22.9015 47.9796 22.8859C48.0301 22.8611 48.0922 22.8299 48.1931 22.8223C48.5737 22.7919 48.9932 22.8519 49.3284 22.9506C49.7254 23.0645 50.0469 23.2229 50.2765 23.3343C50.5164 23.4514 50.7777 23.639 51.0427 23.8658C51.1285 23.9352 51.346 24.1439 51.4014 24.2394C51.4252 24.2841 51.4488 24.3293 51.4721 24.3746C51.5874 24.599 51.6941 24.8265 51.7894 25.0184C51.883 25.2064 52.0006 25.3907 52.11 25.5732C52.2413 25.7918 52.3606 26.008 52.412 26.2118C52.4224 26.253 52.4074 26.3155 52.3878 26.3931C52.3739 26.4482 52.3578 26.5111 52.3464 26.5795C52.4392 26.8221 52.5225 27.0681 52.5964 27.3169C52.6039 27.3242 52.6116 27.3316 52.6195 27.3391C52.6196 27.3392 52.6198 27.3393 52.6199 27.3394C52.7957 27.5067 53.0379 27.7536 53.0348 28.1825C53.0337 28.2911 53.0025 28.3657 52.974 28.4319C52.9461 28.4971 52.9207 28.5548 52.9273 28.6306C52.9348 28.7169 52.9771 28.8121 53.0216 28.9173C53.0842 29.065 53.1513 29.2329 53.1333 29.4121C53.132 29.4243 53.1306 29.4375 53.1293 29.4511C53.1164 29.5801 53.0946 29.7717 53.0253 29.962C53.0452 30.5096 53.0243 31.0568 52.9653 31.5976C52.8671 32.499 52.6627 33.3831 52.3698 34.2269C52.2274 34.638 51.9825 34.9963 51.7057 35.2095C51.4283 35.4236 51.147 35.4792 50.9246 35.3842C50.7014 35.2887 50.5496 35.053 50.4747 34.7391C50.4002 34.4246 50.4073 34.0562 50.4799 33.6971C50.5997 33.1107 50.6683 32.5185 50.6884 31.9296C50.6865 31.8984 50.6847 31.8672 50.683 31.8361C50.6703 31.6047 50.6143 31.3895 50.5519 31.179C50.5375 31.1306 50.5228 31.0824 50.5081 31.0343Z" fill="#FF395C"/>
<path d="M37 29.5001C35.4998 36.5 46.3983 42.782 51.0045 35.4183C52.536 31.82 52.1103 27.9138 50.2064 25.0277C45.9998 22 45.4996 29.5001 44.9998 31.0001C44.5 32.5 38.5002 22.5001 37 29.5001Z" fill="#FF395C"/>
</svg>
