<svg width="32" height="32" viewBox="0 0 32 32" fill="none" xmlns="http://www.w3.org/2000/svg">
<path d="M16 17.6992C15.6367 17.6992 15.2852 17.5469 14.9102 17.2188L3.17969 6.83594C3.8125 6.44922 4.53906 6.27344 5.5 6.27344H26.5C27.4727 6.27344 28.1875 6.44922 28.8203 6.83594L17.0898 17.2188C16.7148 17.5469 16.3633 17.6992 16 17.6992ZM1.94922 24.7656C1.77344 24.3086 1.65625 23.7578 1.65625 23.0195V10.0703C1.65625 9.27344 1.79688 8.66406 1.9375 8.37109L10.6445 16.082L1.94922 24.7656ZM30.0508 24.7656L21.3555 16.082L30.0625 8.37109C30.2031 8.66406 30.3438 9.27344 30.3438 10.0703V23.0195C30.3438 23.7578 30.2266 24.3086 30.0508 24.7656ZM5.20703 26.8281C4.33984 26.8281 3.66016 26.6289 3.19141 26.3359L12.1445 17.3828L13.75 18.8125C14.4766 19.4453 15.2148 19.7617 16 19.7617C16.7852 19.7617 17.5234 19.4453 18.25 18.8125L19.8555 17.3828L28.8086 26.3359C28.3398 26.6289 27.6602 26.8281 26.793 26.8281H5.20703Z" fill="#FF395C"/>
</svg>
