<svg width="20" height="20" viewBox="0 0 20 20" fill="none" xmlns="http://www.w3.org/2000/svg">
<path d="M4.24756 18.1416C3.85742 17.8511 3.77441 17.3696 3.99854 16.7139L5.7085 11.6421L1.35059 8.5127C0.786133 8.11426 0.553711 7.67432 0.711426 7.20947C0.869141 6.75293 1.30078 6.52881 1.98975 6.53711L7.33545 6.57031L8.9624 1.47363C9.17822 0.80957 9.51855 0.452637 10 0.452637C10.4897 0.452637 10.8301 0.80957 11.0376 1.47363L12.6646 6.57031L18.0103 6.53711C18.6992 6.52881 19.1392 6.75293 19.2969 7.20947C19.4546 7.67432 19.2139 8.11426 18.6577 8.5127L14.2998 11.6421L16.0015 16.7139C16.2256 17.3696 16.1426 17.8511 15.7607 18.1416C15.3706 18.4404 14.8809 18.3408 14.3164 17.9341L10 14.7632L5.68359 17.9341C5.11914 18.3408 4.6377 18.4404 4.24756 18.1416ZM5.7002 16.1411C5.7168 16.166 5.7417 16.1494 5.7749 16.1328L9.51855 13.2441C9.85059 12.9785 10.1494 12.9785 10.4897 13.2441L14.2334 16.1328C14.2666 16.1494 14.2832 16.166 14.2998 16.1411C14.3164 16.1245 14.3164 16.1162 14.2998 16.0747L12.7227 11.6172C12.5815 11.2104 12.6313 10.9614 13.0132 10.7041L16.9062 8.03125C16.9478 8.00635 16.9561 7.99805 16.9478 7.97314C16.9395 7.95654 16.9229 7.94824 16.873 7.94824L12.1499 8.05615C11.7266 8.07275 11.5024 7.93164 11.3779 7.5166L10.0498 2.98438C10.0332 2.93457 10.0249 2.92627 10 2.92627C9.9834 2.92627 9.9668 2.93457 9.9585 2.98438L8.62207 7.5166C8.49756 7.93164 8.28174 8.07275 7.8501 8.05615L3.12695 7.94824C3.08545 7.94824 3.06885 7.95654 3.05225 7.97314C3.04395 7.99805 3.06055 8.01465 3.09375 8.03125L6.99512 10.7041C7.36865 10.9531 7.41846 11.2104 7.27734 11.6172L5.7002 16.0747C5.69189 16.1162 5.69189 16.1245 5.7002 16.1411Z" fill="#222222"/>
</svg>
