<svg width="20" height="20" viewBox="0 0 20 20" fill="none" xmlns="http://www.w3.org/2000/svg">
<path d="M10 17.6602C8.19043 17.6602 6.53027 17.3281 5.10254 16.6973C4.23096 17.3032 3.05225 17.6602 1.98145 17.6602C1.10986 17.6602 0.769531 16.7803 1.41699 16.2241C1.81543 15.8589 1.95654 15.502 1.95654 15.0288C1.95654 14.6304 1.79053 14.207 1.40039 13.6094C0.636719 12.4722 0.138672 11.0693 0.138672 9.37598C0.138672 4.56982 4.31396 1.1084 10 1.1084C15.6777 1.1084 19.8613 4.56982 19.8613 9.37598C19.8613 14.1738 15.6943 17.6602 10 17.6602ZM10 16.0498C14.856 16.0498 18.251 13.2192 18.251 9.37598C18.251 5.53271 14.856 2.71875 10 2.71875C5.14404 2.71875 1.74902 5.53271 1.74902 9.37598C1.74902 10.6377 2.10596 11.7998 2.76172 12.7461C3.29297 13.543 3.54199 14.2236 3.54199 14.8462C3.54199 15.2114 3.44238 15.4854 3.30127 15.7593C3.6748 15.668 4.03174 15.5103 4.33057 15.3193C4.84521 15.0288 5.26025 14.9707 5.82471 15.228C7.02002 15.751 8.43115 16.0498 10 16.0498ZM6.10693 10.6211C5.41797 10.6211 4.85352 10.0649 4.85352 9.37598C4.85352 8.68701 5.41797 8.13086 6.10693 8.13086C6.7793 8.13086 7.35205 8.68701 7.35205 9.37598C7.35205 10.0649 6.7876 10.6211 6.10693 10.6211ZM10 10.6211C9.31104 10.6211 8.74658 10.0649 8.74658 9.37598C8.74658 8.68701 9.31104 8.13086 10 8.13086C10.6807 8.13086 11.2451 8.68701 11.2451 9.37598C11.2451 10.0649 10.6807 10.6211 10 10.6211ZM13.8931 10.6211C13.2041 10.6211 12.6396 10.0649 12.6396 9.37598C12.6396 8.68701 13.2041 8.13086 13.8931 8.13086C14.5737 8.13086 15.1382 8.68701 15.1382 9.37598C15.1382 10.0649 14.5737 10.6211 13.8931 10.6211Z" fill="#222222"/>
</svg>
