<svg width="20" height="20" viewBox="0 0 20 20" fill="none" xmlns="http://www.w3.org/2000/svg">
<path d="M7.19434 17.5522C6.54688 17.5522 6.14014 17.1289 6.14014 16.4731V14.896H4.43018C4.10645 14.896 3.90723 14.6968 3.90723 14.373C3.90723 14.0493 4.10645 13.8418 4.43018 13.8418H6.14014V11.6836H4.43018C4.10645 11.6836 3.89893 11.4844 3.89893 11.1523C3.89893 10.8286 4.10645 10.6211 4.43018 10.6211H6.14014V3.56543C6.14014 2.88477 6.55518 2.46143 7.21094 2.46143H11.2617C14.1255 2.46143 16.0928 4.2876 16.0928 7.08496C16.0928 9.89893 14.0425 11.6836 11.1953 11.6836H8.24023V13.8418H12.1831C12.4985 13.8418 12.6978 14.0493 12.6978 14.373C12.6978 14.6968 12.4985 14.896 12.1831 14.896H8.24023V16.4731C8.24023 17.1289 7.8335 17.5522 7.19434 17.5522ZM8.24023 9.99023H10.6807C12.6895 9.99023 13.9595 9.01904 13.9595 7.09326C13.9595 5.17578 12.6895 4.20459 10.689 4.20459H8.24023V9.99023Z" fill="#222222"/>
</svg>
