<svg width="20" height="20" viewBox="0 0 20 20" fill="none" xmlns="http://www.w3.org/2000/svg">
<path d="M2.90283 17.1953C1.10986 17.1953 0.180176 16.2822 0.180176 14.5059V5.53271C0.180176 3.75635 1.10986 2.83496 2.90283 2.83496H17.0972C18.8901 2.83496 19.8198 3.75635 19.8198 5.53271V14.5059C19.8198 16.2739 18.8901 17.1953 17.0972 17.1953H2.90283ZM3.00244 4.46191C2.23047 4.46191 1.80713 4.86035 1.80713 5.66553V9.79932H6.62988C5.67529 9.33447 5.01123 8.5127 5.01123 7.5249C5.01123 6.34619 5.89111 5.46631 7.06152 5.46631C8.05762 5.46631 8.9375 6.08057 9.46045 7.06836V4.46191H3.00244ZM13.3701 9.79932H18.1929V5.66553C18.1929 4.86035 17.7612 4.46191 16.9976 4.46191H10.5396V7.06836C11.0625 6.08057 11.9424 5.46631 12.9385 5.46631C14.1089 5.46631 14.9888 6.34619 14.9888 7.5249C14.9888 8.5127 14.3247 9.33447 13.3701 9.79932ZM9.08691 9.69971H9.31104V9.47559C9.31104 8.00635 8.30664 6.71973 7.16113 6.71973C6.60498 6.71973 6.24805 7.07666 6.24805 7.65771C6.24805 8.63721 7.55957 9.69971 9.08691 9.69971ZM10.9131 9.69971C12.4404 9.69971 13.7437 8.63721 13.7437 7.65771C13.7437 7.07666 13.395 6.71973 12.8306 6.71973C11.6851 6.71973 10.689 8.00635 10.689 9.47559V9.69971H10.9131ZM16.9976 15.5684C17.7612 15.5684 18.1929 15.1699 18.1929 14.3647V10.7954H11.353C11.8179 11.7334 13.2788 13.0781 14.3579 13.2192C14.8145 13.2856 15.0635 13.5596 15.0635 13.9746C15.0635 14.3647 14.7563 14.7383 14.2417 14.6636C13.0049 14.4727 11.1372 13.0864 10.5977 11.4595H10.5396V15.5684H16.9976ZM3.00244 15.5684H9.46045V11.4595H9.40234C8.85449 13.0864 6.99512 14.4727 5.7583 14.6636C5.24365 14.7383 4.93652 14.3647 4.93652 13.9746C4.93652 13.5596 5.18555 13.2856 5.64209 13.2192C6.72119 13.0781 8.18213 11.7334 8.64697 10.7954H1.80713V14.3647C1.80713 15.1699 2.23047 15.5684 3.00244 15.5684Z" fill="#222222"/>
</svg>
