<svg width="20" height="20" viewBox="0 0 20 20" fill="none" xmlns="http://www.w3.org/2000/svg">
<path d="M5.55078 18.9966C3.79932 18.9966 2.87793 18.0752 2.87793 16.3071V3.75635C2.87793 1.96338 3.79932 1.03369 5.57568 1.03369H14.416C16.1924 1.03369 17.1138 1.97168 17.1138 3.75635V12.9785C17.1138 13.8169 16.7817 14.2236 16.375 14.5972C15.3291 15.585 15.5366 16.9961 16.5576 17.4443C16.8647 17.5854 17.1138 17.8594 17.1138 18.2246C17.1138 18.6646 16.7817 18.9966 16.3501 18.9966H5.55078ZM14.2749 2.66064H6.64648V13.3604H14.8394C15.2544 13.3604 15.4868 13.1362 15.4868 12.7295V3.85596C15.4868 3.08398 15.0801 2.66064 14.2749 2.66064ZM4.50488 13.6509C4.78711 13.5015 5.10254 13.4019 5.47607 13.3687V2.67725C4.82861 2.75195 4.50488 3.15869 4.50488 3.85596V13.6509ZM8.14062 6.479C7.81689 6.479 7.55127 6.21338 7.55127 5.88965C7.55127 5.57422 7.81689 5.30859 8.14062 5.30859H13.9761C14.2998 5.30859 14.5654 5.57422 14.5654 5.88965C14.5654 6.21338 14.2998 6.479 13.9761 6.479H8.14062ZM8.14062 8.78662C7.81689 8.78662 7.55127 8.5293 7.55127 8.20557C7.55127 7.88184 7.81689 7.61621 8.14062 7.61621H12.5732C12.8887 7.61621 13.1543 7.88184 13.1543 8.20557C13.1543 8.5293 12.8887 8.78662 12.5732 8.78662H8.14062ZM5.7583 17.4526H14.4741C14.0342 16.6973 13.9844 15.751 14.3911 14.8794C14.3081 14.8877 14.2251 14.896 14.1338 14.896H5.82471C4.95312 14.896 4.42188 15.4272 4.42188 16.166C4.42188 16.9546 4.87842 17.4526 5.7583 17.4526Z" fill="#222222"/>
</svg>
