<svg width="21" height="20" viewBox="0 0 21 20" fill="none" xmlns="http://www.w3.org/2000/svg">
<path d="M2.72266 17.2949C0.937988 17.2949 0 16.3735 0 14.5972V5.4248C0 3.65674 0.929688 2.73535 2.51514 2.73535H17.5977C19.3823 2.73535 20.3203 3.65674 20.3203 5.4248V14.5972C20.3203 16.3735 19.3906 17.2949 17.8052 17.2949H2.72266ZM9.41309 10.4966C9.65381 10.7124 9.90283 10.8203 10.1602 10.8203C10.4175 10.8203 10.6665 10.7124 10.9072 10.4966L17.8135 4.271C17.7471 4.2627 17.6724 4.2627 17.5977 4.2627H2.72266C2.64795 4.2627 2.57324 4.2627 2.50684 4.271L9.41309 10.4966ZM18.793 5.47461C18.793 5.4082 18.793 5.3418 18.7847 5.28369L13.9287 9.6582L18.793 14.5225V5.47461ZM1.52734 5.46631V14.5225L6.3916 9.6582L1.53564 5.28369C1.52734 5.3418 1.52734 5.3999 1.52734 5.46631ZM2.72266 15.7676H17.5977C17.7471 15.7676 17.8799 15.751 18.0044 15.7261L12.8828 10.5962L11.7539 11.6172C11.2476 12.0737 10.7329 12.2812 10.1602 12.2812C9.5874 12.2812 9.07275 12.0737 8.56641 11.6172L7.4375 10.5962L2.31592 15.7261C2.44043 15.751 2.57324 15.7676 2.72266 15.7676Z" fill="#737373"/>
</svg>
