<svg width="20" height="20" viewBox="0 0 20 20" fill="none" xmlns="http://www.w3.org/2000/svg">
<path d="M2.92773 12.2979L9.25293 5.82324C9.46875 5.59912 9.71777 5.49121 10 5.49121C10.2822 5.49121 10.5396 5.60742 10.7471 5.82324L17.0723 12.2979C17.2549 12.4722 17.3462 12.7046 17.3462 12.9702C17.3462 13.5098 16.9229 13.9331 16.3916 13.9331C16.126 13.9331 15.877 13.8335 15.6943 13.6426L10 7.80713L4.30566 13.6426C4.12305 13.8335 3.87402 13.9331 3.6084 13.9331C3.06885 13.9331 2.64551 13.5098 2.64551 12.9702C2.64551 12.7046 2.74512 12.4722 2.92773 12.2979Z" fill="#222222"/>
</svg>
