<svg width="32" height="32" viewBox="0 0 32 32" fill="none" xmlns="http://www.w3.org/2000/svg">
<path d="M23.5 15.7305C23.1016 15.7305 22.8086 15.4258 22.8086 15.0391V5.19531C22.8086 4.80859 23.1133 4.50391 23.5 4.50391C23.875 4.50391 24.1797 4.80859 24.1797 5.19531V15.0391C24.1797 15.4258 23.875 15.7305 23.5 15.7305ZM10.8203 21.4727C7.33984 17.9922 4.72656 13.8789 4.72656 10.4922C4.72656 8.99219 5.25391 7.65625 6.23828 6.69531C6.92969 6.03906 7.89062 5.41797 8.6875 5.41797C9.33203 5.41797 9.78906 5.89844 10.3633 6.69531L12.3555 9.48438C12.8125 10.1172 12.9648 10.6094 12.9648 11.0781C12.9648 11.4883 12.8711 11.7695 12.5664 12.2969L11.4531 14.207C11.3711 14.3711 11.2891 14.5117 11.2891 14.6641C11.2891 14.8633 11.3594 15.0391 11.418 15.1562C11.875 16.0703 12.7539 17.2188 13.8789 18.3438C15.0039 19.4805 16.2812 20.4766 17.1953 20.8984C17.418 20.9922 17.5703 21.0508 17.793 21.0508C17.957 21.0508 18.0625 21.0156 18.2852 20.8984L20.1836 19.8555C20.8047 19.5156 21.1094 19.4453 21.4844 19.4453C21.9062 19.4453 22.2344 19.5391 22.9609 20.0547L25.8672 22.1406C26.6523 22.6914 26.9688 23.1484 26.9688 23.6523C26.9688 24.2969 26.6406 25.0352 25.7734 26.0078C24.8711 27.0273 23.4883 27.6602 21.8945 27.6602C18.5195 27.6602 14.3359 24.9883 10.8203 21.4727ZM26.2773 14.5117C25.9023 14.5117 25.5977 14.207 25.5977 13.8203V6.37891C25.5977 6.00391 25.9023 5.69922 26.2773 5.69922C26.6641 5.69922 26.9688 6.00391 26.9688 6.37891V13.8203C26.9688 14.207 26.6641 14.5117 26.2773 14.5117ZM20.6992 13.6914C20.3125 13.6914 20.0078 13.3867 20.0078 13V7.21094C20.0078 6.82422 20.3125 6.51953 20.6992 6.51953C21.0859 6.51953 21.3906 6.82422 21.3906 7.21094V13C21.3906 13.3867 21.0859 13.6914 20.6992 13.6914ZM29.0781 12.2148C28.6914 12.2148 28.3867 11.9102 28.3867 11.5352V8.67578C28.3867 8.30078 28.6914 7.98438 29.0781 7.98438C29.4648 7.98438 29.7578 8.28906 29.7578 8.67578V11.5352C29.7578 11.9219 29.4648 12.2148 29.0781 12.2148ZM17.8984 11.8047C17.5234 11.8047 17.2188 11.5 17.2188 11.125V9.09766C17.2188 8.71094 17.5234 8.40625 17.8984 8.40625C18.2969 8.40625 18.6016 8.71094 18.6016 9.09766V11.125C18.6016 11.5 18.2969 11.8047 17.8984 11.8047Z" fill="#FF395C"/>
</svg>
