<svg width="29" height="24" viewBox="0 0 29 24" fill="none" xmlns="http://www.w3.org/2000/svg">
<path d="M2.18066 17.0566L0.397461 7.00195C0 4.74609 0.977539 3.36035 3.26562 2.95215L17.7031 0.40625C19.9912 0.00878906 21.377 0.975586 21.7744 3.23145L22.3008 6.20703H24.6104C26.9199 6.20703 28.1338 7.39941 28.1338 9.69824V19.9033C28.1338 22.1914 26.9199 23.3838 24.6104 23.3838H9.94727C7.61621 23.3838 6.42383 22.2021 6.42383 19.9033V19.8389L6.25195 19.8711C3.95312 20.2686 2.57812 19.3125 2.18066 17.0566ZM4.21094 16.5088C4.39355 17.54 5.02734 17.9482 6.00488 17.7764L6.42383 17.7012V9.69824C6.42383 7.39941 7.61621 6.20703 9.94727 6.20703H20.1738L19.7441 3.7793C19.5615 2.74805 18.917 2.33984 17.9502 2.50098L3.75977 5.00391C2.77148 5.17578 2.32031 5.78809 2.50293 6.81934L4.21094 16.5088ZM8.5293 9.88086V18.7539L10.8818 16.6914C11.2793 16.3477 11.6768 16.1758 12.0957 16.1758C12.5361 16.1758 12.9658 16.3369 13.3633 16.7021L15.0498 18.2275L19.2822 14.4785C19.7119 14.0918 20.1738 13.9199 20.6895 13.9199C21.1943 13.9199 21.6885 14.1025 22.0967 14.4893L26.0283 18.1846V9.88086C26.0283 8.83887 25.4697 8.3125 24.4814 8.3125H10.0762C9.07715 8.3125 8.5293 8.83887 8.5293 9.88086ZM14.3408 14.7148C13.0947 14.7148 12.0742 13.6836 12.0742 12.4375C12.0742 11.2129 13.0947 10.1816 14.3408 10.1816C15.5762 10.1816 16.5859 11.2129 16.5859 12.4375C16.5859 13.6836 15.5762 14.7148 14.3408 14.7148Z" fill="white"/>
</svg>
