<svg width="24" height="24" viewBox="0 0 24 24" fill="none" xmlns="http://www.w3.org/2000/svg">
<path d="M22.5 12C22.5006 12.2547 22.4353 12.5051 22.3105 12.7271C22.1856 12.949 22.0055 13.1349 21.7875 13.2666L8.28 21.5297C8.05227 21.6691 7.79144 21.7453 7.52445 21.7502C7.25746 21.7552 6.99399 21.6887 6.76125 21.5578C6.53073 21.4289 6.3387 21.241 6.2049 21.0133C6.07111 20.7855 6.00039 20.5263 6 20.2622V3.73782C6.00039 3.47371 6.07111 3.21448 6.2049 2.98676C6.3387 2.75905 6.53073 2.57109 6.76125 2.4422C6.99399 2.31127 7.25746 2.24486 7.52445 2.2498C7.79144 2.25474 8.05227 2.33087 8.28 2.47032L21.7875 10.7334C22.0055 10.8651 22.1856 11.051 22.3105 11.2729C22.4353 11.4949 22.5006 11.7454 22.5 12Z" fill="white"/>
</svg>
