<svg width="20" height="20" viewBox="0 0 20 20" fill="none" xmlns="http://www.w3.org/2000/svg">
<path d="M9.9917 12.8706C9.46875 12.8706 9.07031 12.4805 9.07031 11.9575V8.76172H5.7666C5.24365 8.76172 4.83691 8.35498 4.83691 7.83203C4.83691 7.30908 5.24365 6.90234 5.7666 6.90234H9.07031V3.73145C9.07031 3.2085 9.46875 2.81836 9.9917 2.81836C10.5229 2.81836 10.9214 3.2085 10.9214 3.73145V6.90234H14.2334C14.7563 6.90234 15.1631 7.30908 15.1631 7.83203C15.1631 8.35498 14.7563 8.76172 14.2334 8.76172H10.9214V11.9575C10.9214 12.4805 10.5229 12.8706 9.9917 12.8706ZM4.83691 16.2822C4.83691 15.751 5.24365 15.3525 5.7666 15.3525H14.2334C14.748 15.3525 15.1631 15.751 15.1631 16.2822C15.1631 16.8052 14.748 17.2036 14.2334 17.2036H5.7666C5.24365 17.2036 4.83691 16.8052 4.83691 16.2822Z" fill="#737373"/>
</svg>
