<svg width="14" height="13" viewBox="0 0 14 13" fill="none" xmlns="http://www.w3.org/2000/svg">
<path d="M2.60742 12.4863C2.33203 12.2812 2.27344 11.9414 2.43164 11.4785L3.63867 7.89844L0.5625 5.68945C0.164062 5.4082 0 5.09766 0.111328 4.76953C0.222656 4.44727 0.527344 4.29492 1.01367 4.29492H4.78711L5.93555 0.720703C6.08789 0.251953 6.32812 0 6.66797 0C7.01367 0 7.25391 0.251953 7.40039 0.720703L8.54883 4.29492H12.3223C12.8086 4.29492 13.1191 4.44727 13.2305 4.76953C13.3418 5.09766 13.1719 5.4082 12.7793 5.68945L9.70312 7.89844L10.9043 11.4785C11.0625 11.9414 11.0039 12.2812 10.7344 12.4863C10.459 12.6973 10.1133 12.627 9.71484 12.3398L6.66797 10.1016L3.62109 12.3398C3.22266 12.627 2.88281 12.6973 2.60742 12.4863Z" fill="#FF395C"/>
</svg>
