<svg width="24" height="24" viewBox="0 0 24 24" fill="none" xmlns="http://www.w3.org/2000/svg">
<path d="M7.61426 21.4893C7.08691 21.4893 6.7793 21.1201 6.7793 20.54V18.0088H6.22559C3.67676 18.0088 2.15625 16.4971 2.15625 13.8867V7.06641C2.15625 4.45605 3.6416 2.94434 6.28711 2.94434H17.7217C20.3584 2.94434 21.8438 4.45605 21.8438 7.06641V13.8867C21.8438 16.4971 20.3584 18.0088 17.7217 18.0088H11.9121L8.69531 20.918C8.25586 21.3135 7.9834 21.4893 7.61426 21.4893ZM7.35059 8.07715H16.5527C16.8691 8.07715 17.124 7.81348 17.124 7.49707C17.124 7.18945 16.8691 6.93457 16.5527 6.93457H7.35059C7.04297 6.93457 6.78809 7.18945 6.78809 7.49707C6.78809 7.81348 7.04297 8.07715 7.35059 8.07715ZM7.35059 10.9775H16.5527C16.8691 10.9775 17.124 10.7227 17.124 10.4062C17.124 10.0986 16.8691 9.83496 16.5527 9.83496H7.35059C7.04297 9.83496 6.78809 10.0986 6.78809 10.4062C6.78809 10.7227 7.04297 10.9775 7.35059 10.9775ZM7.35059 13.8867H13.3535C13.6699 13.8867 13.916 13.6318 13.916 13.3242C13.916 12.999 13.6699 12.7441 13.3535 12.7441H7.35059C7.04297 12.7441 6.78809 12.999 6.78809 13.3242C6.78809 13.6318 7.04297 13.8867 7.35059 13.8867Z" fill="#FF395C"/>
</svg>
