<svg width="24" height="24" viewBox="0 0 24 24" fill="none" xmlns="http://www.w3.org/2000/svg">
<g clip-path="url(#clip0_2345_33854)">
<g clip-path="url(#clip1_2345_33854)">
<path d="M12 0C6.75315 0 2.5 4.29792 2.5 9.6C2.5 12.2501 3.56258 14.6496 5.28113 16.3867C7.00015 18.1248 11.05 20.64 11.2875 23.28C11.3231 23.6758 11.6067 24 12 24C12.3933 24 12.6769 23.6758 12.7125 23.28C12.95 20.64 16.9999 18.1248 18.7189 16.3867C20.4374 14.6496 21.5 12.2501 21.5 9.6C21.5 4.29792 17.2469 0 12 0Z" fill="#FF4433"/>
<path d="M12 13C13.933 13 15.5 11.433 15.5 9.5C15.5 7.567 13.933 6 12 6C10.067 6 8.5 7.567 8.5 9.5C8.5 11.433 10.067 13 12 13Z" fill="white"/>
</g>
</g>
<defs>
<clipPath id="clip0_2345_33854">
<rect width="24" height="24" fill="white"/>
</clipPath>
<clipPath id="clip1_2345_33854">
<rect width="24" height="24" fill="white"/>
</clipPath>
</defs>
</svg>
