<svg width="20" height="20" viewBox="0 0 20 20" fill="none" xmlns="http://www.w3.org/2000/svg">
<path d="M1.80713 8.49609C1.80713 4.76904 4.83691 1.73926 8.56396 1.73926C12.291 1.73926 15.3208 4.76904 15.3208 8.49609C15.3208 9.94873 14.8477 11.2935 14.0591 12.3809L17.8525 16.1826C18.0767 16.415 18.1929 16.7222 18.1929 17.0542C18.1929 17.7432 17.6865 18.2744 16.981 18.2744C16.6572 18.2744 16.3335 18.1665 16.1011 17.9258L12.2827 14.1074C11.2202 14.8296 9.9502 15.2529 8.56396 15.2529C4.83691 15.2529 1.80713 12.2231 1.80713 8.49609ZM3.53369 8.49609C3.53369 11.2769 5.7832 13.5264 8.56396 13.5264C11.3447 13.5264 13.5942 11.2769 13.5942 8.49609C13.5942 5.71533 11.3447 3.46582 8.56396 3.46582C5.7832 3.46582 3.53369 5.71533 3.53369 8.49609Z" fill="#6A6A6A" fill-opacity="0.6"/>
</svg>
