<svg width="20" height="20" viewBox="0 0 20 20" fill="none" xmlns="http://www.w3.org/2000/svg">
<path d="M9.62646 13.4434C8.66357 13.2607 8.00781 12.8955 7.51807 12.4141C5.46777 10.3555 5.47607 7.4668 7.50977 5.43311L10.3984 2.53613C12.4321 0.502441 15.3208 0.48584 17.3794 2.55273C19.438 4.61133 19.4297 7.5 17.3877 9.53369L15.0054 11.9077C15.1465 11.2686 15.0635 10.5298 14.8062 9.92383L16.2256 8.49609C17.6284 7.10156 17.6367 5.12598 16.2173 3.70654C14.8145 2.30371 12.8389 2.30371 11.4277 3.70654L8.67188 6.4624C7.27734 7.85693 7.27734 9.84912 8.68018 11.252C9.19482 11.7666 9.89209 12.082 10.8882 12.1733L9.62646 13.4434ZM10.3652 6.4458C11.3281 6.62842 11.9839 6.99365 12.4653 7.4834C14.5239 9.53369 14.5156 12.4224 12.4736 14.4644L9.59326 17.353C7.55957 19.3867 4.6709 19.4033 2.6123 17.3447C0.553711 15.2861 0.562012 12.3892 2.604 10.3555L4.97803 7.98145C4.84521 8.62891 4.92822 9.35938 5.18555 9.96533L3.76611 11.3931C2.36328 12.7876 2.35498 14.7715 3.77441 16.1826C5.17725 17.5854 7.15283 17.5854 8.55566 16.1826L11.3115 13.4268C12.7144 12.0322 12.7144 10.0483 11.3115 8.63721C10.7969 8.13086 10.0913 7.80713 9.10352 7.71582L10.3652 6.4458Z" fill="#737373"/>
</svg>
