<svg width="14" height="14" viewBox="0 0 14 14" fill="none" xmlns="http://www.w3.org/2000/svg">
<path d="M13.1978 11.8867C13.5464 12.2354 13.5464 12.833 13.1895 13.1899C12.8325 13.5552 12.2349 13.5469 11.8779 13.1982L6.77295 8.09326L1.66797 13.1982C1.32764 13.5386 0.72168 13.5469 0.356445 13.1899C-0.000488281 12.8413 0.0078125 12.2271 0.356445 11.8867L5.46143 6.77344L0.356445 1.66846C0.0078125 1.32812 0.0078125 0.722168 0.356445 0.356934C0.713379 0 1.32764 0.00830078 1.66797 0.356934L6.77295 5.46191L11.8779 0.356934C12.2432 0 12.8325 0.00830078 13.1895 0.365234C13.5547 0.713867 13.5464 1.31982 13.1978 1.66846L8.09277 6.77344L13.1978 11.8867Z" fill="white"/>
</svg>
