<svg width="20" height="20" viewBox="0 0 20 20" fill="none" xmlns="http://www.w3.org/2000/svg">
<path d="M9.9917 12.4141C9.57666 12.4141 9.22803 12.0654 9.22803 11.6587V3.32471L9.30273 2.07959L8.85449 2.61914L7.66748 3.88086C7.53467 4.03027 7.33545 4.11328 7.14453 4.11328C6.7627 4.11328 6.46387 3.83936 6.46387 3.44922C6.46387 3.25 6.54688 3.10059 6.67969 2.95947L9.41895 0.328125C9.60986 0.137207 9.79248 0.0708008 9.9917 0.0708008C10.1992 0.0708008 10.3818 0.137207 10.5728 0.328125L13.3037 2.95947C13.4448 3.10059 13.5278 3.25 13.5278 3.44922C13.5278 3.83936 13.2124 4.11328 12.8389 4.11328C12.6479 4.11328 12.457 4.03027 12.3242 3.88086L11.1372 2.61914L10.689 2.07959L10.7637 3.32471V11.6587C10.7637 12.0654 10.415 12.4141 9.9917 12.4141ZM6.05713 19.0962C3.76611 19.0962 2.49609 17.8179 2.49609 15.5352V9.13525C2.49609 6.85254 3.76611 5.57422 6.05713 5.57422H7.65918V7.20117H6.09863C4.83691 7.20117 4.12305 7.91504 4.12305 9.17676V15.4937C4.12305 16.7554 4.83691 17.4692 6.09863 17.4692H13.8931C15.1548 17.4692 15.8687 16.7554 15.8687 15.4937V9.17676C15.8687 7.91504 15.1548 7.20117 13.8931 7.20117H12.3242V5.57422H13.9346C16.2173 5.57422 17.4956 6.85254 17.4956 9.13525V15.5352C17.4956 17.8179 16.2173 19.0962 13.9346 19.0962H6.05713Z" fill="#737373"/>
</svg>
