<svg width="32" height="32" viewBox="0 0 32 32" fill="none" xmlns="http://www.w3.org/2000/svg">
<g clip-path="url(#clip0_2345_51561)">
<path d="M18.9702 5.73011C18.0916 5.42821 16.3074 4.38265 16.0527 1.81269C16.012 1.43121 15.6759 1.14008 15.2786 1.13005C12.3045 1.04973 10.5826 4.20195 9.79834 5.76802C9.47021 6.19105 8.99384 6.17962 8.65771 5.7881C8.15862 5.20584 8.35248 3.62973 7.21171 4.14172C3.95234 5.6074 2.01709 9.44226 2.01709 13.8995C2.01709 21.5391 13.1078 27.9038 15.2671 29.0382C15.4912 29.1587 16.5279 29.2613 16.9546 29.0382C19.1241 27.9038 30.0171 21.5391 30.0171 13.8995C30.0171 8.64919 25.8308 5.18576 21.1557 3.36872C20.6464 3.16794 20.0862 3.52934 20.0862 4.07145L20.0093 4.99574C19.9702 5.37855 19.5068 5.91447 18.9702 5.73011Z" fill="url(#paint0_linear_2345_51561)"/>
<path d="M18.9702 5.73011C18.0916 5.42821 16.3074 4.38265 16.0527 1.81269C16.012 1.43121 15.6759 1.14008 15.2786 1.13005C12.3045 1.04973 10.5826 4.20195 9.79834 5.76802C9.47021 6.19105 8.99384 6.17962 8.65771 5.7881C8.15862 5.20584 8.35248 3.62973 7.21171 4.14172C3.95234 5.6074 2.01709 9.44226 2.01709 13.8995C2.01709 21.5391 13.1078 27.9038 15.2671 29.0382C15.4912 29.1587 16.5279 29.2613 16.9546 29.0382C19.1241 27.9038 30.0171 21.5391 30.0171 13.8995C30.0171 8.64919 25.8308 5.18576 21.1557 3.36872C20.6464 3.16794 20.0862 3.52934 20.0862 4.07145L20.0093 4.99574C19.9702 5.37855 19.5068 5.91447 18.9702 5.73011Z" fill="url(#paint1_linear_2345_51561)"/>
<path d="M18.9702 5.73011C18.0916 5.42821 16.3074 4.38265 16.0527 1.81269C16.012 1.43121 15.6759 1.14008 15.2786 1.13005C12.3045 1.04973 10.5826 4.20195 9.79834 5.76802C9.47021 6.19105 8.99384 6.17962 8.65771 5.7881C8.15862 5.20584 8.35248 3.62973 7.21171 4.14172C3.95234 5.6074 2.01709 9.44226 2.01709 13.8995C2.01709 21.5391 13.1078 27.9038 15.2671 29.0382C15.4912 29.1587 16.5279 29.2613 16.9546 29.0382C19.1241 27.9038 30.0171 21.5391 30.0171 13.8995C30.0171 8.64919 25.8308 5.18576 21.1557 3.36872C20.6464 3.16794 20.0862 3.52934 20.0862 4.07145L20.0093 4.99574C19.9702 5.37855 19.5068 5.91447 18.9702 5.73011Z" fill="url(#paint2_linear_2345_51561)"/>
<path opacity="0.5" d="M23.7812 11.5973C23.6288 8.54863 21.8767 5.38136 20.9455 4.24351C20.814 4.08287 20.5863 4.17924 20.5601 4.38516C20.293 6.4856 18.4914 9.15413 17.25 10.2223L23.7812 11.5973Z" fill="url(#paint3_linear_2345_51561)"/>
<path opacity="0.9" d="M15.4856 12.7649C11.0316 8.65955 12.6297 3.8161 14.6892 1.92662C14.8261 1.80107 15.0389 1.88339 15.0782 2.06488C16.0508 6.54918 18.5323 7.7277 21.9891 8.53759C18.9975 9.25299 16.1901 11.8978 15.4856 12.7649Z" fill="url(#paint4_radial_2345_51561)"/>
<path opacity="0.5" d="M9.21877 14.3786C6.10606 11.9707 6.11149 6.58255 7.52369 4.87825C7.64218 4.73525 7.85382 4.81203 7.89844 4.99231C8.41 7.05915 9.7379 8.24417 12.3125 8.84737C10.0125 9.39737 9.76044 13.712 9.21877 14.3786Z" fill="url(#paint5_radial_2345_51561)"/>
<path opacity="0.5" d="M24.1251 22.3474L22.3486 5.19493C22.3309 5.02447 22.4842 4.88785 22.647 4.94132C24.9914 5.71134 29.018 9.21084 28.8751 13.7849C28.7251 18.5849 25.6667 21.0349 24.1251 22.3474Z" fill="url(#paint6_linear_2345_51561)"/>
<path d="M15.3033 28.9505C15.8366 29.2548 16.4839 29.2375 17.0151 28.9296C20.1286 27.1252 25.402 23.0872 27.4888 17.8616C30.5906 10.9715 23.3075 5.47136 18.2738 9.42723C17.7737 9.82027 17.151 10.2674 16.7004 10.6956C16.458 10.9259 16.0347 10.9494 15.7852 10.7268C15.1869 10.1932 14.3003 9.53263 13.7232 9.14218C9.43187 6.23885 1.62375 10.0659 4.95442 18.2338C6.16085 21.859 11.859 26.9852 15.3033 28.9505Z" fill="url(#paint7_radial_2345_51561)"/>
<path d="M15.3033 28.9505C15.8366 29.2548 16.4839 29.2375 17.0151 28.9296C20.1286 27.1252 25.402 23.0872 27.4888 17.8616C30.5906 10.9715 23.3075 5.47136 18.2738 9.42723C17.7737 9.82027 17.151 10.2674 16.7004 10.6956C16.458 10.9259 16.0347 10.9494 15.7852 10.7268C15.1869 10.1932 14.3003 9.53263 13.7232 9.14218C9.43187 6.23885 1.62375 10.0659 4.95442 18.2338C6.16085 21.859 11.859 26.9852 15.3033 28.9505Z" fill="url(#paint8_radial_2345_51561)"/>
<path d="M15.3033 28.9505C15.8366 29.2548 16.4839 29.2375 17.0151 28.9296C20.1286 27.1252 25.402 23.0872 27.4888 17.8616C30.5906 10.9715 23.3075 5.47136 18.2738 9.42723C17.7737 9.82027 17.151 10.2674 16.7004 10.6956C16.458 10.9259 16.0347 10.9494 15.7852 10.7268C15.1869 10.1932 14.3003 9.53263 13.7232 9.14218C9.43187 6.23885 1.62375 10.0659 4.95442 18.2338C6.16085 21.859 11.859 26.9852 15.3033 28.9505Z" fill="url(#paint9_radial_2345_51561)"/>
<path d="M15.3033 28.9505C15.8366 29.2548 16.4839 29.2375 17.0151 28.9296C20.1286 27.1252 25.402 23.0872 27.4888 17.8616C30.5906 10.9715 23.3075 5.47136 18.2738 9.42723C17.7737 9.82027 17.151 10.2674 16.7004 10.6956C16.458 10.9259 16.0347 10.9494 15.7852 10.7268C15.1869 10.1932 14.3003 9.53263 13.7232 9.14218C9.43187 6.23885 1.62375 10.0659 4.95442 18.2338C6.16085 21.859 11.859 26.9852 15.3033 28.9505Z" fill="url(#paint10_radial_2345_51561)"/>
<path d="M15.3033 28.9505C15.8366 29.2548 16.4839 29.2375 17.0151 28.9296C20.1286 27.1252 25.402 23.0872 27.4888 17.8616C30.5906 10.9715 23.3075 5.47136 18.2738 9.42723C17.7737 9.82027 17.151 10.2674 16.7004 10.6956C16.458 10.9259 16.0347 10.9494 15.7852 10.7268C15.1869 10.1932 14.3003 9.53263 13.7232 9.14218C9.43187 6.23885 1.62375 10.0659 4.95442 18.2338C6.16085 21.859 11.859 26.9852 15.3033 28.9505Z" fill="url(#paint11_linear_2345_51561)"/>
<path d="M15.3033 28.9505C15.8366 29.2548 16.4839 29.2375 17.0151 28.9296C20.1286 27.1252 25.402 23.0872 27.4888 17.8616C30.5906 10.9715 23.3075 5.47136 18.2738 9.42723C17.7737 9.82027 17.151 10.2674 16.7004 10.6956C16.458 10.9259 16.0347 10.9494 15.7852 10.7268C15.1869 10.1932 14.3003 9.53263 13.7232 9.14218C9.43187 6.23885 1.62375 10.0659 4.95442 18.2338C6.16085 21.859 11.859 26.9852 15.3033 28.9505Z" fill="url(#paint12_linear_2345_51561)"/>
<path d="M15.3033 28.9505C15.8366 29.2548 16.4839 29.2375 17.0151 28.9296C20.1286 27.1252 25.402 23.0872 27.4888 17.8616C30.5906 10.9715 23.3075 5.47136 18.2738 9.42723C17.7737 9.82027 17.151 10.2674 16.7004 10.6956C16.458 10.9259 16.0347 10.9494 15.7852 10.7268C15.1869 10.1932 14.3003 9.53263 13.7232 9.14218C9.43187 6.23885 1.62375 10.0659 4.95442 18.2338C6.16085 21.859 11.859 26.9852 15.3033 28.9505Z" fill="url(#paint13_radial_2345_51561)"/>
<path d="M15.3033 28.9505C15.8366 29.2548 16.4839 29.2375 17.0151 28.9296C20.1286 27.1252 25.402 23.0872 27.4888 17.8616C30.5906 10.9715 23.3075 5.47136 18.2738 9.42723C17.7737 9.82027 17.151 10.2674 16.7004 10.6956C16.458 10.9259 16.0347 10.9494 15.7852 10.7268C15.1869 10.1932 14.3003 9.53263 13.7232 9.14218C9.43187 6.23885 1.62375 10.0659 4.95442 18.2338C6.16085 21.859 11.859 26.9852 15.3033 28.9505Z" fill="url(#paint14_radial_2345_51561)"/>
<path d="M15.3033 28.9505C15.8366 29.2548 16.4839 29.2375 17.0151 28.9296C20.1286 27.1252 25.402 23.0872 27.4888 17.8616C30.5906 10.9715 23.3075 5.47136 18.2738 9.42723C17.7737 9.82027 17.151 10.2674 16.7004 10.6956C16.458 10.9259 16.0347 10.9494 15.7852 10.7268C15.1869 10.1932 14.3003 9.53263 13.7232 9.14218C9.43187 6.23885 1.62375 10.0659 4.95442 18.2338C6.16085 21.859 11.859 26.9852 15.3033 28.9505Z" fill="url(#paint15_radial_2345_51561)"/>
<path d="M15.3033 28.9505C15.8366 29.2548 16.4839 29.2375 17.0151 28.9296C20.1286 27.1252 25.402 23.0872 27.4888 17.8616C30.5906 10.9715 23.3075 5.47136 18.2738 9.42723C17.7737 9.82027 17.151 10.2674 16.7004 10.6956C16.458 10.9259 16.0347 10.9494 15.7852 10.7268C15.1869 10.1932 14.3003 9.53263 13.7232 9.14218C9.43187 6.23885 1.62375 10.0659 4.95442 18.2338C6.16085 21.859 11.859 26.9852 15.3033 28.9505Z" fill="url(#paint16_radial_2345_51561)"/>
<path d="M15.3033 28.9505C15.8366 29.2548 16.4839 29.2375 17.0151 28.9296C20.1286 27.1252 25.402 23.0872 27.4888 17.8616C30.5906 10.9715 23.3075 5.47136 18.2738 9.42723C17.7737 9.82027 17.151 10.2674 16.7004 10.6956C16.458 10.9259 16.0347 10.9494 15.7852 10.7268C15.1869 10.1932 14.3003 9.53263 13.7232 9.14218C9.43187 6.23885 1.62375 10.0659 4.95442 18.2338C6.16085 21.859 11.859 26.9852 15.3033 28.9505Z" fill="url(#paint17_radial_2345_51561)"/>
<path d="M15.3033 28.9505C15.8366 29.2548 16.4839 29.2375 17.0151 28.9296C20.1286 27.1252 25.402 23.0872 27.4888 17.8616C30.5906 10.9715 23.3075 5.47136 18.2738 9.42723C17.7737 9.82027 17.151 10.2674 16.7004 10.6956C16.458 10.9259 16.0347 10.9494 15.7852 10.7268C15.1869 10.1932 14.3003 9.53263 13.7232 9.14218C9.43187 6.23885 1.62375 10.0659 4.95442 18.2338C6.16085 21.859 11.859 26.9852 15.3033 28.9505Z" fill="url(#paint18_radial_2345_51561)"/>
<path d="M15.3033 28.9505C15.8366 29.2548 16.4839 29.2375 17.0151 28.9296C20.1286 27.1252 25.402 23.0872 27.4888 17.8616C30.5906 10.9715 23.3075 5.47136 18.2738 9.42723C17.7737 9.82027 17.151 10.2674 16.7004 10.6956C16.458 10.9259 16.0347 10.9494 15.7852 10.7268C15.1869 10.1932 14.3003 9.53263 13.7232 9.14218C9.43187 6.23885 1.62375 10.0659 4.95442 18.2338C6.16085 21.859 11.859 26.9852 15.3033 28.9505Z" fill="url(#paint19_radial_2345_51561)"/>
<path d="M15.3033 28.9505C15.8366 29.2548 16.4839 29.2375 17.0151 28.9296C20.1286 27.1252 25.402 23.0872 27.4888 17.8616C30.5906 10.9715 23.3075 5.47136 18.2738 9.42723C17.7737 9.82027 17.151 10.2674 16.7004 10.6956C16.458 10.9259 16.0347 10.9494 15.7852 10.7268C15.1869 10.1932 14.3003 9.53263 13.7232 9.14218C9.43187 6.23885 1.62375 10.0659 4.95442 18.2338C6.16085 21.859 11.859 26.9852 15.3033 28.9505Z" fill="url(#paint20_radial_2345_51561)"/>
</g>
<defs>
<linearGradient id="paint0_linear_2345_51561" x1="20.1873" y1="15.1492" x2="10.8123" y2="-0.0902107" gradientUnits="userSpaceOnUse">
<stop stop-color="#F8EC1D"/>
<stop offset="0.721254" stop-color="#F89C20"/>
<stop offset="1" stop-color="#F5891F"/>
</linearGradient>
<linearGradient id="paint1_linear_2345_51561" x1="9.99982" y1="16.6598" x2="4.18732" y2="23.6598" gradientUnits="userSpaceOnUse">
<stop stop-color="#F89C20" stop-opacity="0"/>
<stop offset="1" stop-color="#F5891F"/>
</linearGradient>
<linearGradient id="paint2_linear_2345_51561" x1="23.3123" y1="13.6598" x2="20.5623" y2="29.1698" gradientUnits="userSpaceOnUse">
<stop stop-color="#F89C20" stop-opacity="0"/>
<stop offset="1" stop-color="#F5891F"/>
</linearGradient>
<linearGradient id="paint3_linear_2345_51561" x1="21.3125" y1="4.12854" x2="21.3125" y2="10.191" gradientUnits="userSpaceOnUse">
<stop stop-color="#F89C20" stop-opacity="0"/>
<stop offset="0.8989" stop-color="#F89C20"/>
</linearGradient>
<radialGradient id="paint4_radial_2345_51561" cx="0" cy="0" r="1" gradientUnits="userSpaceOnUse" gradientTransform="translate(21.2188 6.84389) rotate(-179.228) scale(9.28209 7.74204)">
<stop offset="0.426965" stop-color="#FFD56C" stop-opacity="0"/>
<stop offset="0.783213" stop-color="#FFD56C" stop-opacity="0.660196"/>
<stop offset="0.864823" stop-color="#FFCB49"/>
<stop offset="0.932725" stop-color="#F89D20"/>
</radialGradient>
<radialGradient id="paint5_radial_2345_51561" cx="0" cy="0" r="1" gradientTransform="matrix(-5.65482 -0.110182 0.0635244 -6.8236 11.8432 9.15951)" gradientUnits="userSpaceOnUse">
<stop offset="0.426965" stop-color="#FFD56C" stop-opacity="0"/>
<stop offset="0.783213" stop-color="#FFD56C" stop-opacity="0.660196"/>
<stop offset="0.864823" stop-color="#FFCB49"/>
<stop offset="0.932725" stop-color="#F89D20"/>
</radialGradient>
<linearGradient id="paint6_linear_2345_51561" x1="28.8788" y1="13.5974" x2="18.1094" y2="7.85487" gradientUnits="userSpaceOnUse">
<stop stop-color="#FFE39E"/>
<stop offset="0.880208" stop-color="#FFE39E" stop-opacity="0"/>
</linearGradient>
<radialGradient id="paint7_radial_2345_51561" cx="0" cy="0" r="1" gradientUnits="userSpaceOnUse" gradientTransform="translate(15.2899 1.08027) rotate(88.5481) scale(27.8214 28.6493)">
<stop stop-color="#F12E52"/>
<stop offset="0.67675" stop-color="#FF3B79"/>
<stop offset="1" stop-color="#FF4EC6"/>
</radialGradient>
<radialGradient id="paint8_radial_2345_51561" cx="0" cy="0" r="1" gradientUnits="userSpaceOnUse" gradientTransform="translate(22.1674 13.5993) rotate(142.986) scale(22.6659 42.4555)">
<stop offset="0.483055" stop-color="#B91D43" stop-opacity="0"/>
<stop offset="0.833898" stop-color="#B91D43"/>
</radialGradient>
<radialGradient id="paint9_radial_2345_51561" cx="0" cy="0" r="1" gradientUnits="userSpaceOnUse" gradientTransform="translate(19.5504 19.1525) rotate(-158.663) scale(19.6607 27.7932)">
<stop offset="0.40984" stop-color="#B91D43" stop-opacity="0"/>
<stop offset="0.833898" stop-color="#B91D43"/>
</radialGradient>
<radialGradient id="paint10_radial_2345_51561" cx="0" cy="0" r="1" gradientUnits="userSpaceOnUse" gradientTransform="translate(15.716 15.7188) rotate(90) scale(17.1113 17.1113)">
<stop offset="0.671096" stop-color="#FF7AF2" stop-opacity="0"/>
<stop offset="0.933555" stop-color="#FFBCE6"/>
</radialGradient>
<linearGradient id="paint11_linear_2345_51561" x1="17.6046" y1="17.7218" x2="24.5292" y2="25.9627" gradientUnits="userSpaceOnUse">
<stop offset="0.694491" stop-color="#FF7AF2" stop-opacity="0"/>
<stop offset="0.933555" stop-color="#FFBCE6"/>
</linearGradient>
<linearGradient id="paint12_linear_2345_51561" x1="16.7462" y1="18.0651" x2="8.6197" y2="27.2217" gradientUnits="userSpaceOnUse">
<stop offset="0.694491" stop-color="#FF7AF2" stop-opacity="0"/>
<stop offset="0.933555" stop-color="#FFBCE6"/>
</linearGradient>
<radialGradient id="paint13_radial_2345_51561" cx="0" cy="0" r="1" gradientUnits="userSpaceOnUse" gradientTransform="translate(18.1246 14.9238) rotate(164.618) scale(14.8777 15.7121)">
<stop offset="0.802083" stop-color="#FF73A6" stop-opacity="0"/>
<stop offset="1" stop-color="#FF93BA" stop-opacity="0.6"/>
</radialGradient>
<radialGradient id="paint14_radial_2345_51561" cx="0" cy="0" r="1" gradientUnits="userSpaceOnUse" gradientTransform="translate(16.1337 11.3451) rotate(-90) scale(10.2492 12.2118)">
<stop stop-color="#FC0D1A" stop-opacity="0.6"/>
<stop offset="0.802083" stop-color="#FC1020" stop-opacity="0"/>
</radialGradient>
<radialGradient id="paint15_radial_2345_51561" cx="0" cy="0" r="1" gradientTransform="matrix(-5.57746 6.83208 -4.96308 -3.12762 25.3924 11.8029)" gradientUnits="userSpaceOnUse">
<stop stop-color="#FF93BA" stop-opacity="0.5"/>
<stop offset="1" stop-color="#FF73A6" stop-opacity="0"/>
</radialGradient>
<radialGradient id="paint16_radial_2345_51561" cx="0" cy="0" r="1" gradientTransform="matrix(1.9972 2.03881 -1.18388 1.48398 13.8811 14.2427)" gradientUnits="userSpaceOnUse">
<stop stop-color="#FF93BA" stop-opacity="0.4"/>
<stop offset="1" stop-color="#FF73A6" stop-opacity="0"/>
</radialGradient>
<radialGradient id="paint17_radial_2345_51561" cx="0" cy="0" r="1" gradientUnits="userSpaceOnUse" gradientTransform="translate(22.2027 9.58254) rotate(176.279) scale(2.56431 1.66622)">
<stop stop-color="#FF93BA" stop-opacity="0.3"/>
<stop offset="1" stop-color="#FF73A6" stop-opacity="0"/>
</radialGradient>
<radialGradient id="paint18_radial_2345_51561" cx="0" cy="0" r="1" gradientUnits="userSpaceOnUse" gradientTransform="translate(9.84508 9.64495) rotate(1.07082) scale(2.22643 1.1391)">
<stop stop-color="#FF93BA" stop-opacity="0.3"/>
<stop offset="1" stop-color="#FF73A6" stop-opacity="0"/>
</radialGradient>
<radialGradient id="paint19_radial_2345_51561" cx="0" cy="0" r="1" gradientUnits="userSpaceOnUse" gradientTransform="translate(17.7507 15.1581) rotate(-90) scale(5.0138 1.833)">
<stop stop-color="#FA1E3A" stop-opacity="0.7"/>
<stop offset="1" stop-color="#FA1E3A" stop-opacity="0"/>
</radialGradient>
<radialGradient id="paint20_radial_2345_51561" cx="0" cy="0" r="1" gradientUnits="userSpaceOnUse" gradientTransform="translate(22.9136 13.5932) rotate(-151.991) scale(5.49847)">
<stop stop-color="#FA1E3A" stop-opacity="0.7"/>
<stop offset="1" stop-color="#FA1E3A" stop-opacity="0"/>
</radialGradient>
<clipPath id="clip0_2345_51561">
<rect width="32" height="32" fill="white"/>
</clipPath>
</defs>
</svg>
