<svg width="16" height="16" viewBox="0 0 16 16" fill="none" xmlns="http://www.w3.org/2000/svg">
<g clip-path="url(#clip0_4001_12729)">
<g clip-path="url(#clip1_4001_12729)">
<path d="M6.326 0.00273242L6.812 0.000732422H9.188L9.67467 0.00273242L10.284 0.00939909L10.5727 0.0140658L10.8513 0.0213991L11.12 0.0307324L11.3787 0.0413991L11.628 0.0553991L11.868 0.0720657L12.098 0.0920657L12.32 0.114066C13.48 0.244732 14.2753 0.524732 14.8753 1.12473C15.4753 1.72473 15.7553 2.5194 15.886 3.68007L15.9087 3.90207L15.928 4.13273L15.9447 4.37273L15.958 4.6214L15.9747 5.0134L15.9827 5.28673L15.9913 5.71607L15.9973 6.32607L16 6.9794L15.9993 9.18806L15.9973 9.67473L15.9907 10.2841L15.986 10.5727L15.9787 10.8514L15.9693 11.1201L15.9587 11.3787L15.9447 11.6281L15.928 11.8681L15.908 12.0981L15.886 12.3201C15.7553 13.4801 15.4753 14.2754 14.8753 14.8754C14.2753 15.4754 13.4807 15.7554 12.32 15.8861L12.098 15.9087L11.8673 15.9281L11.6273 15.9447L11.3787 15.9581L10.9867 15.9747L10.7133 15.9827L10.284 15.9914L9.674 15.9974L9.02067 16.0001L6.812 15.9994L6.32533 15.9974L5.716 15.9907L5.42733 15.9861L5.14867 15.9787L4.88 15.9694L4.62133 15.9587L4.372 15.9447L4.132 15.9281L3.902 15.9081L3.68 15.8861C2.52 15.7554 1.72467 15.4754 1.12467 14.8754C0.524667 14.2754 0.244667 13.4807 0.114 12.3201L0.0913333 12.0981L0.072 11.8674L0.0553333 11.6274L0.042 11.3787L0.0253333 10.9867L0.0173333 10.7134L0.00866667 10.2841L0.00266667 9.67406L0 9.02073L0.000666667 6.81207L0.00266667 6.3254L0.00933333 5.71607L0.014 5.4274L0.0213333 5.14873L0.0306667 4.88007L0.0413333 4.6214L0.0553333 4.37207L0.072 4.13207L0.092 3.90207L0.114 3.68007C0.244667 2.52007 0.524667 1.72473 1.12467 1.12473C1.72467 0.524732 2.51933 0.244732 3.68 0.114066L3.902 0.0913991L4.13267 0.0720657L4.37267 0.0553991L4.62133 0.0420658L5.01333 0.0253991L5.28667 0.0173991L5.716 0.00873242L6.326 0.00273242Z" fill="#0277FF"/>
<path d="M4.52662 4.8667H2.69995C2.78662 9.0267 4.86662 11.5267 8.51328 11.5267H8.71995V9.1467C10.06 9.28003 11.0733 10.26 11.48 11.5267H13.3733C12.8533 9.63337 11.4866 8.5867 10.6333 8.1867C11.4866 7.69337 12.6866 6.49337 12.9733 4.8667H11.2533C10.88 6.1867 9.77328 7.3867 8.71995 7.50003V4.8667H6.99995V9.48003C5.93328 9.21337 4.58662 7.92003 4.52662 4.8667Z" fill="white"/>
</g>
</g>
<defs>
<clipPath id="clip0_4001_12729">
<rect width="16" height="16" fill="white"/>
</clipPath>
<clipPath id="clip1_4001_12729">
<rect width="16" height="16" fill="white"/>
</clipPath>
</defs>
</svg>
