<svg width="20" height="20" viewBox="0 0 20 20" fill="none" xmlns="http://www.w3.org/2000/svg">
<g clip-path="url(#clip0_2369_44983)">
<g clip-path="url(#clip1_2369_44983)">
<path d="M0.429081 9.88041C0.428612 11.5608 0.871 13.2016 1.71219 14.6478L0.348633 19.589L5.44359 18.2631C6.85279 19.0245 8.43169 19.4235 10.0362 19.4236H10.0404C15.3371 19.4236 19.6487 15.1458 19.651 9.88793C19.652 7.3401 18.6532 4.94428 16.8385 3.1418C15.0241 1.33948 12.6111 0.346378 10.04 0.345215C4.74267 0.345215 0.431346 4.62273 0.429159 9.88041" fill="#25CC62"/>
<path d="M0.0865022 9.87721C0.0859555 11.6181 0.544198 13.3175 1.41538 14.8155L0.00292969 19.9339L5.28057 18.5605C6.73474 19.3474 8.37198 19.7622 10.038 19.7629H10.0423C15.529 19.7629 19.9955 15.3312 19.9979 9.88512C19.9988 7.24574 18.9641 4.7638 17.0845 2.89674C15.2048 1.02992 12.7054 0.00108527 10.0423 0C4.55459 0 0.0886892 4.43101 0.0865022 9.87721ZM3.22953 14.5575L3.03247 14.2471C2.20409 12.9398 1.76686 11.4291 1.76748 9.87783C1.7692 5.35109 5.48107 1.66822 10.0454 1.66822C12.2558 1.66915 14.333 2.52434 15.8955 4.07597C17.4578 5.62775 18.3175 7.69054 18.317 9.8845C18.3149 14.4112 14.603 18.0946 10.0423 18.0946H10.039C8.55396 18.0938 7.09753 17.698 5.82739 16.95L5.52512 16.7721L2.39326 17.5871L3.22953 14.5575Z" fill="white"/>
<path d="M7.55384 5.74801C7.36748 5.33692 7.17136 5.32863 6.99414 5.32142C6.84902 5.31522 6.68312 5.31568 6.51738 5.31568C6.35149 5.31568 6.08195 5.37762 5.85411 5.62452C5.62605 5.87165 4.9834 6.46886 4.9834 7.68351C4.9834 8.89816 5.87481 10.0721 5.99908 10.237C6.1235 10.4016 7.71997 12.974 10.2484 13.9636C12.3497 14.786 12.7774 14.6224 13.2334 14.5812C13.6895 14.5401 14.7052 13.9841 14.9124 13.4076C15.1198 12.8312 15.1198 12.3371 15.0576 12.2338C14.9955 12.131 14.8296 12.0692 14.5808 11.9458C14.332 11.8223 13.109 11.225 12.881 11.1426C12.6529 11.0603 12.4871 11.0192 12.3212 11.2664C12.1553 11.5132 11.679 12.0692 11.5338 12.2338C11.3887 12.3989 11.2435 12.4194 10.9948 12.2959C10.7459 12.172 9.9448 11.9117 8.99433 11.0706C8.25483 10.4162 7.75559 9.60808 7.61047 9.36088C7.46535 9.11405 7.59492 8.98026 7.71966 8.85723C7.83143 8.74661 7.9685 8.56894 8.093 8.42483C8.21703 8.28064 8.25843 8.17777 8.34137 8.01312C8.4244 7.84832 8.38285 7.70413 8.32075 7.58064C8.25843 7.45715 7.77503 6.23615 7.55384 5.74801Z" fill="white"/>
</g>
</g>
<defs>
<clipPath id="clip0_2369_44983">
<rect width="20" height="20" fill="white"/>
</clipPath>
<clipPath id="clip1_2369_44983">
<rect width="20" height="20" fill="white"/>
</clipPath>
</defs>
</svg>
