<svg width="20" height="20" viewBox="0 0 20 20" fill="none" xmlns="http://www.w3.org/2000/svg">
<g clip-path="url(#clip0_2442_34440)">
<g clip-path="url(#clip1_2442_34440)">
<path d="M10.0007 0C5.62828 0 2.08398 3.5816 2.08398 8C2.08398 10.2084 2.96946 12.208 4.40159 13.6556C5.83411 15.104 9.20898 17.2 9.4069 19.4C9.43658 19.7299 9.6729 20 10.0007 20C10.3284 20 10.5647 19.7299 10.5944 19.4C10.7923 17.2 14.1672 15.104 15.5997 13.6556C17.0318 12.208 17.9173 10.2084 17.9173 8C17.9173 3.5816 14.373 0 10.0007 0Z" fill="#FF4433"/>
<path d="M10.0007 10.8333C11.6115 10.8333 12.9173 9.52749 12.9173 7.91667C12.9173 6.30583 11.6115 5 10.0007 5C8.38984 5 7.08398 6.30583 7.08398 7.91667C7.08398 9.52749 8.38984 10.8333 10.0007 10.8333Z" fill="white"/>
</g>
</g>
<defs>
<clipPath id="clip0_2442_34440">
<rect width="20" height="20" fill="white"/>
</clipPath>
<clipPath id="clip1_2442_34440">
<rect width="20" height="20" fill="white"/>
</clipPath>
</defs>
</svg>
