<svg width="16" height="16" viewBox="0 0 16 16" fill="none" xmlns="http://www.w3.org/2000/svg">
<g clip-path="url(#clip0_4001_12743)">
<g clip-path="url(#clip1_4001_12743)">
<path d="M15.645 4.10094C15.5533 3.75927 15.3743 3.44779 15.1259 3.1975C14.8775 2.94721 14.5684 2.76685 14.2293 2.67439C12.9879 2.33325 7.99179 2.33325 7.99179 2.33325C7.99179 2.33325 2.99539 2.34358 1.75401 2.68471C1.41492 2.77718 1.10579 2.95755 0.8574 3.20785C0.609011 3.45815 0.430032 3.76965 0.338286 4.11133C-0.0372031 6.33379 -0.182862 9.72032 0.348597 11.8539C0.440352 12.1955 0.619335 12.507 0.867723 12.7573C1.11611 13.0076 1.42524 13.188 1.76432 13.2804C3.0057 13.6216 8.00198 13.6216 8.00198 13.6216C8.00198 13.6216 12.9982 13.6216 14.2395 13.2804C14.5786 13.188 14.8877 13.0076 15.1361 12.7573C15.3845 12.507 15.5635 12.1956 15.6553 11.8539C16.0513 9.62827 16.1734 6.24382 15.645 4.10094Z" fill="#FF0000"/>
<path d="M6.40161 10.3962L10.5463 7.97726L6.40161 5.55835V10.3962Z" fill="white"/>
</g>
</g>
<defs>
<clipPath id="clip0_4001_12743">
<rect width="16" height="16" fill="white"/>
</clipPath>
<clipPath id="clip1_4001_12743">
<rect width="16" height="11.3333" fill="white" transform="translate(0 2.33325)"/>
</clipPath>
</defs>
</svg>
